M48
; DRILL file {KiCad (5.1.5)-3} date 02.01.2022 5:02:35
; FORMAT={-:-/ absolute / metric / decimal}
; #@! TF.CreationDate,2022-01-02T05:02:35+03:00
; #@! TF.GenerationSoftware,Kicad,Pcbnew,(5.1.5)-3
; #@! TF.FileFunction,Plated,1,4,PTH
FMAT,2
METRIC
T1C0.400
T2C1.000
%
G90
G05
T1
X22.352Y-89.154
X22.86Y-65.786
X22.86Y-68.326
X22.86Y-70.866
X22.86Y-73.406
X22.86Y-75.946
X22.86Y-78.486
X22.86Y-81.026
X22.86Y-83.566
X22.86Y-86.106
X23.876Y-89.154
X25.4Y-64.516
X25.4Y-89.154
X26.67Y-89.154
X30.48Y-82.296
X31.242Y-77.724
X31.242Y-88.646
X31.242Y-91.694
X32.766Y-88.646
X33.02Y-72.39
X34.798Y-91.694
X35.036Y-77.724
X35.052Y-68.326
X36.068Y-75.946
X38.1Y-73.406
X38.1Y-75.946
X38.608Y-65.786
X43.18Y-70.866
X43.18Y-78.486
X43.18Y-81.026
T2
X26.67Y-61.468
X29.21Y-61.468
X31.75Y-61.468
X34.29Y-61.468
X36.83Y-61.468
X39.37Y-61.468
T0
M30
