G04 #@! TF.GenerationSoftware,KiCad,Pcbnew,(5.1.5)-3*
G04 #@! TF.CreationDate,2022-04-02T01:18:13+03:00*
G04 #@! TF.ProjectId,USB-UART_PANEL,5553422d-5541-4525-945f-50414e454c2e,rev?*
G04 #@! TF.SameCoordinates,Original*
G04 #@! TF.FileFunction,Soldermask,Top*
G04 #@! TF.FilePolarity,Negative*
%FSLAX46Y46*%
G04 Gerber Fmt 4.6, Leading zero omitted, Abs format (unit mm)*
G04 Created by KiCad (PCBNEW (5.1.5)-3) date 2022-04-02 01:18:13*
%MOMM*%
%LPD*%
G04 APERTURE LIST*
%ADD10C,0.050000*%
%ADD11C,0.100000*%
G04 APERTURE END LIST*
D10*
X0Y100000000D02*
X0Y0D01*
X65000000Y100000000D02*
X0Y100000000D01*
X65000000Y0D02*
X65000000Y100000000D01*
X0Y0D02*
X65000000Y0D01*
X2500000Y22914000D02*
X2500000Y35106000D01*
X11898000Y22914000D02*
X2500000Y22914000D01*
X11898000Y12500000D02*
X11898000Y22914000D01*
X60920000Y12500000D02*
X11898000Y12500000D01*
X60920000Y45520000D02*
X60920000Y12500000D01*
X11898000Y45520000D02*
X60920000Y45520000D01*
X11898000Y35106000D02*
X11898000Y45520000D01*
X2500000Y35106000D02*
X11898000Y35106000D01*
X2500000Y65414000D02*
X2500000Y77606000D01*
X11898000Y65414000D02*
X2500000Y65414000D01*
X11898000Y55000000D02*
X11898000Y65414000D01*
X60920000Y55000000D02*
X11898000Y55000000D01*
X60920000Y88020000D02*
X60920000Y55000000D01*
X11898000Y88020000D02*
X60920000Y88020000D01*
X11898000Y77606000D02*
X11898000Y88020000D01*
X2500000Y77606000D02*
X11898000Y77606000D01*
D11*
G36*
X49349512Y18476073D02*
G01*
X49498812Y18446376D01*
X49662784Y18378456D01*
X49810354Y18279853D01*
X49935853Y18154354D01*
X50034456Y18006784D01*
X50102376Y17842812D01*
X50137000Y17668741D01*
X50137000Y17491259D01*
X50102376Y17317188D01*
X50034456Y17153216D01*
X49935853Y17005646D01*
X49810354Y16880147D01*
X49662784Y16781544D01*
X49498812Y16713624D01*
X49349512Y16683927D01*
X49324742Y16679000D01*
X49147258Y16679000D01*
X49122488Y16683927D01*
X48973188Y16713624D01*
X48809216Y16781544D01*
X48661646Y16880147D01*
X48536147Y17005646D01*
X48437544Y17153216D01*
X48369624Y17317188D01*
X48335000Y17491259D01*
X48335000Y17668741D01*
X48369624Y17842812D01*
X48437544Y18006784D01*
X48536147Y18154354D01*
X48661646Y18279853D01*
X48809216Y18378456D01*
X48973188Y18446376D01*
X49122488Y18476073D01*
X49147258Y18481000D01*
X49324742Y18481000D01*
X49349512Y18476073D01*
G37*
G36*
X34109512Y18476073D02*
G01*
X34258812Y18446376D01*
X34422784Y18378456D01*
X34570354Y18279853D01*
X34695853Y18154354D01*
X34794456Y18006784D01*
X34862376Y17842812D01*
X34897000Y17668741D01*
X34897000Y17491259D01*
X34862376Y17317188D01*
X34794456Y17153216D01*
X34695853Y17005646D01*
X34570354Y16880147D01*
X34422784Y16781544D01*
X34258812Y16713624D01*
X34109512Y16683927D01*
X34084742Y16679000D01*
X33907258Y16679000D01*
X33882488Y16683927D01*
X33733188Y16713624D01*
X33569216Y16781544D01*
X33421646Y16880147D01*
X33296147Y17005646D01*
X33197544Y17153216D01*
X33129624Y17317188D01*
X33095000Y17491259D01*
X33095000Y17668741D01*
X33129624Y17842812D01*
X33197544Y18006784D01*
X33296147Y18154354D01*
X33421646Y18279853D01*
X33569216Y18378456D01*
X33733188Y18446376D01*
X33882488Y18476073D01*
X33907258Y18481000D01*
X34084742Y18481000D01*
X34109512Y18476073D01*
G37*
G36*
X32357000Y16679000D02*
G01*
X30555000Y16679000D01*
X30555000Y18481000D01*
X32357000Y18481000D01*
X32357000Y16679000D01*
G37*
G36*
X47597000Y16679000D02*
G01*
X45795000Y16679000D01*
X45795000Y18481000D01*
X47597000Y18481000D01*
X47597000Y16679000D01*
G37*
G36*
X58407000Y17299000D02*
G01*
X55305000Y17299000D01*
X55305000Y20401000D01*
X58407000Y20401000D01*
X58407000Y17299000D01*
G37*
G36*
X34109512Y21016073D02*
G01*
X34258812Y20986376D01*
X34422784Y20918456D01*
X34570354Y20819853D01*
X34695853Y20694354D01*
X34794456Y20546784D01*
X34862376Y20382812D01*
X34897000Y20208741D01*
X34897000Y20031259D01*
X34862376Y19857188D01*
X34794456Y19693216D01*
X34695853Y19545646D01*
X34570354Y19420147D01*
X34422784Y19321544D01*
X34258812Y19253624D01*
X34109512Y19223927D01*
X34084742Y19219000D01*
X33907258Y19219000D01*
X33882488Y19223927D01*
X33733188Y19253624D01*
X33569216Y19321544D01*
X33421646Y19420147D01*
X33296147Y19545646D01*
X33197544Y19693216D01*
X33129624Y19857188D01*
X33095000Y20031259D01*
X33095000Y20208741D01*
X33129624Y20382812D01*
X33197544Y20546784D01*
X33296147Y20694354D01*
X33421646Y20819853D01*
X33569216Y20918456D01*
X33733188Y20986376D01*
X33882488Y21016073D01*
X33907258Y21021000D01*
X34084742Y21021000D01*
X34109512Y21016073D01*
G37*
G36*
X46809512Y21016073D02*
G01*
X46958812Y20986376D01*
X47122784Y20918456D01*
X47270354Y20819853D01*
X47395853Y20694354D01*
X47494456Y20546784D01*
X47562376Y20382812D01*
X47597000Y20208741D01*
X47597000Y20031259D01*
X47562376Y19857188D01*
X47494456Y19693216D01*
X47395853Y19545646D01*
X47270354Y19420147D01*
X47122784Y19321544D01*
X46958812Y19253624D01*
X46809512Y19223927D01*
X46784742Y19219000D01*
X46607258Y19219000D01*
X46582488Y19223927D01*
X46433188Y19253624D01*
X46269216Y19321544D01*
X46121646Y19420147D01*
X45996147Y19545646D01*
X45897544Y19693216D01*
X45829624Y19857188D01*
X45795000Y20031259D01*
X45795000Y20208741D01*
X45829624Y20382812D01*
X45897544Y20546784D01*
X45996147Y20694354D01*
X46121646Y20819853D01*
X46269216Y20918456D01*
X46433188Y20986376D01*
X46582488Y21016073D01*
X46607258Y21021000D01*
X46784742Y21021000D01*
X46809512Y21016073D01*
G37*
G36*
X49349512Y21016073D02*
G01*
X49498812Y20986376D01*
X49662784Y20918456D01*
X49810354Y20819853D01*
X49935853Y20694354D01*
X50034456Y20546784D01*
X50102376Y20382812D01*
X50137000Y20208741D01*
X50137000Y20031259D01*
X50102376Y19857188D01*
X50034456Y19693216D01*
X49935853Y19545646D01*
X49810354Y19420147D01*
X49662784Y19321544D01*
X49498812Y19253624D01*
X49349512Y19223927D01*
X49324742Y19219000D01*
X49147258Y19219000D01*
X49122488Y19223927D01*
X48973188Y19253624D01*
X48809216Y19321544D01*
X48661646Y19420147D01*
X48536147Y19545646D01*
X48437544Y19693216D01*
X48369624Y19857188D01*
X48335000Y20031259D01*
X48335000Y20208741D01*
X48369624Y20382812D01*
X48437544Y20546784D01*
X48536147Y20694354D01*
X48661646Y20819853D01*
X48809216Y20918456D01*
X48973188Y20986376D01*
X49122488Y21016073D01*
X49147258Y21021000D01*
X49324742Y21021000D01*
X49349512Y21016073D01*
G37*
G36*
X31569512Y21016073D02*
G01*
X31718812Y20986376D01*
X31882784Y20918456D01*
X32030354Y20819853D01*
X32155853Y20694354D01*
X32254456Y20546784D01*
X32322376Y20382812D01*
X32357000Y20208741D01*
X32357000Y20031259D01*
X32322376Y19857188D01*
X32254456Y19693216D01*
X32155853Y19545646D01*
X32030354Y19420147D01*
X31882784Y19321544D01*
X31718812Y19253624D01*
X31569512Y19223927D01*
X31544742Y19219000D01*
X31367258Y19219000D01*
X31342488Y19223927D01*
X31193188Y19253624D01*
X31029216Y19321544D01*
X30881646Y19420147D01*
X30756147Y19545646D01*
X30657544Y19693216D01*
X30589624Y19857188D01*
X30555000Y20031259D01*
X30555000Y20208741D01*
X30589624Y20382812D01*
X30657544Y20546784D01*
X30756147Y20694354D01*
X30881646Y20819853D01*
X31029216Y20918456D01*
X31193188Y20986376D01*
X31342488Y21016073D01*
X31367258Y21021000D01*
X31544742Y21021000D01*
X31569512Y21016073D01*
G37*
G36*
X49349512Y23556073D02*
G01*
X49498812Y23526376D01*
X49662784Y23458456D01*
X49810354Y23359853D01*
X49935853Y23234354D01*
X50034456Y23086784D01*
X50102376Y22922812D01*
X50137000Y22748741D01*
X50137000Y22571259D01*
X50102376Y22397188D01*
X50034456Y22233216D01*
X49935853Y22085646D01*
X49810354Y21960147D01*
X49662784Y21861544D01*
X49498812Y21793624D01*
X49349512Y21763927D01*
X49324742Y21759000D01*
X49147258Y21759000D01*
X49122488Y21763927D01*
X48973188Y21793624D01*
X48809216Y21861544D01*
X48661646Y21960147D01*
X48536147Y22085646D01*
X48437544Y22233216D01*
X48369624Y22397188D01*
X48335000Y22571259D01*
X48335000Y22748741D01*
X48369624Y22922812D01*
X48437544Y23086784D01*
X48536147Y23234354D01*
X48661646Y23359853D01*
X48809216Y23458456D01*
X48973188Y23526376D01*
X49122488Y23556073D01*
X49147258Y23561000D01*
X49324742Y23561000D01*
X49349512Y23556073D01*
G37*
G36*
X46809512Y23556073D02*
G01*
X46958812Y23526376D01*
X47122784Y23458456D01*
X47270354Y23359853D01*
X47395853Y23234354D01*
X47494456Y23086784D01*
X47562376Y22922812D01*
X47597000Y22748741D01*
X47597000Y22571259D01*
X47562376Y22397188D01*
X47494456Y22233216D01*
X47395853Y22085646D01*
X47270354Y21960147D01*
X47122784Y21861544D01*
X46958812Y21793624D01*
X46809512Y21763927D01*
X46784742Y21759000D01*
X46607258Y21759000D01*
X46582488Y21763927D01*
X46433188Y21793624D01*
X46269216Y21861544D01*
X46121646Y21960147D01*
X45996147Y22085646D01*
X45897544Y22233216D01*
X45829624Y22397188D01*
X45795000Y22571259D01*
X45795000Y22748741D01*
X45829624Y22922812D01*
X45897544Y23086784D01*
X45996147Y23234354D01*
X46121646Y23359853D01*
X46269216Y23458456D01*
X46433188Y23526376D01*
X46582488Y23556073D01*
X46607258Y23561000D01*
X46784742Y23561000D01*
X46809512Y23556073D01*
G37*
G36*
X34109512Y23556073D02*
G01*
X34258812Y23526376D01*
X34422784Y23458456D01*
X34570354Y23359853D01*
X34695853Y23234354D01*
X34794456Y23086784D01*
X34862376Y22922812D01*
X34897000Y22748741D01*
X34897000Y22571259D01*
X34862376Y22397188D01*
X34794456Y22233216D01*
X34695853Y22085646D01*
X34570354Y21960147D01*
X34422784Y21861544D01*
X34258812Y21793624D01*
X34109512Y21763927D01*
X34084742Y21759000D01*
X33907258Y21759000D01*
X33882488Y21763927D01*
X33733188Y21793624D01*
X33569216Y21861544D01*
X33421646Y21960147D01*
X33296147Y22085646D01*
X33197544Y22233216D01*
X33129624Y22397188D01*
X33095000Y22571259D01*
X33095000Y22748741D01*
X33129624Y22922812D01*
X33197544Y23086784D01*
X33296147Y23234354D01*
X33421646Y23359853D01*
X33569216Y23458456D01*
X33733188Y23526376D01*
X33882488Y23556073D01*
X33907258Y23561000D01*
X34084742Y23561000D01*
X34109512Y23556073D01*
G37*
G36*
X31569512Y23556073D02*
G01*
X31718812Y23526376D01*
X31882784Y23458456D01*
X32030354Y23359853D01*
X32155853Y23234354D01*
X32254456Y23086784D01*
X32322376Y22922812D01*
X32357000Y22748741D01*
X32357000Y22571259D01*
X32322376Y22397188D01*
X32254456Y22233216D01*
X32155853Y22085646D01*
X32030354Y21960147D01*
X31882784Y21861544D01*
X31718812Y21793624D01*
X31569512Y21763927D01*
X31544742Y21759000D01*
X31367258Y21759000D01*
X31342488Y21763927D01*
X31193188Y21793624D01*
X31029216Y21861544D01*
X30881646Y21960147D01*
X30756147Y22085646D01*
X30657544Y22233216D01*
X30589624Y22397188D01*
X30555000Y22571259D01*
X30555000Y22748741D01*
X30589624Y22922812D01*
X30657544Y23086784D01*
X30756147Y23234354D01*
X30881646Y23359853D01*
X31029216Y23458456D01*
X31193188Y23526376D01*
X31342488Y23556073D01*
X31367258Y23561000D01*
X31544742Y23561000D01*
X31569512Y23556073D01*
G37*
G36*
X57158585Y25451198D02*
G01*
X57308410Y25421396D01*
X57590674Y25304479D01*
X57844705Y25134741D01*
X58060741Y24918705D01*
X58230479Y24664674D01*
X58347396Y24382410D01*
X58407000Y24082760D01*
X58407000Y23777240D01*
X58347396Y23477590D01*
X58230479Y23195326D01*
X58060741Y22941295D01*
X57844705Y22725259D01*
X57590674Y22555521D01*
X57308410Y22438604D01*
X57158585Y22408802D01*
X57008761Y22379000D01*
X56703239Y22379000D01*
X56553415Y22408802D01*
X56403590Y22438604D01*
X56121326Y22555521D01*
X55867295Y22725259D01*
X55651259Y22941295D01*
X55481521Y23195326D01*
X55364604Y23477590D01*
X55305000Y23777240D01*
X55305000Y24082760D01*
X55364604Y24382410D01*
X55481521Y24664674D01*
X55651259Y24918705D01*
X55867295Y25134741D01*
X56121326Y25304479D01*
X56403590Y25421396D01*
X56553415Y25451198D01*
X56703239Y25481000D01*
X57008761Y25481000D01*
X57158585Y25451198D01*
G37*
G36*
X14297512Y24826073D02*
G01*
X14446812Y24796376D01*
X14610784Y24728456D01*
X14758354Y24629853D01*
X14883853Y24504354D01*
X14982456Y24356784D01*
X15050376Y24192812D01*
X15085000Y24018741D01*
X15085000Y23841259D01*
X15050376Y23667188D01*
X14982456Y23503216D01*
X14883853Y23355646D01*
X14758354Y23230147D01*
X14610784Y23131544D01*
X14446812Y23063624D01*
X14297512Y23033927D01*
X14272742Y23029000D01*
X14095258Y23029000D01*
X14070488Y23033927D01*
X13921188Y23063624D01*
X13757216Y23131544D01*
X13609646Y23230147D01*
X13484147Y23355646D01*
X13385544Y23503216D01*
X13317624Y23667188D01*
X13283000Y23841259D01*
X13283000Y24018741D01*
X13317624Y24192812D01*
X13385544Y24356784D01*
X13484147Y24504354D01*
X13609646Y24629853D01*
X13757216Y24728456D01*
X13921188Y24796376D01*
X14070488Y24826073D01*
X14095258Y24831000D01*
X14272742Y24831000D01*
X14297512Y24826073D01*
G37*
G36*
X11949000Y23959000D02*
G01*
X3347000Y23959000D01*
X3347000Y34061000D01*
X11949000Y34061000D01*
X11949000Y23959000D01*
G37*
G36*
X34109512Y26096073D02*
G01*
X34258812Y26066376D01*
X34422784Y25998456D01*
X34570354Y25899853D01*
X34695853Y25774354D01*
X34794456Y25626784D01*
X34862376Y25462812D01*
X34897000Y25288741D01*
X34897000Y25111259D01*
X34862376Y24937188D01*
X34794456Y24773216D01*
X34695853Y24625646D01*
X34570354Y24500147D01*
X34422784Y24401544D01*
X34258812Y24333624D01*
X34109512Y24303927D01*
X34084742Y24299000D01*
X33907258Y24299000D01*
X33882488Y24303927D01*
X33733188Y24333624D01*
X33569216Y24401544D01*
X33421646Y24500147D01*
X33296147Y24625646D01*
X33197544Y24773216D01*
X33129624Y24937188D01*
X33095000Y25111259D01*
X33095000Y25288741D01*
X33129624Y25462812D01*
X33197544Y25626784D01*
X33296147Y25774354D01*
X33421646Y25899853D01*
X33569216Y25998456D01*
X33733188Y26066376D01*
X33882488Y26096073D01*
X33907258Y26101000D01*
X34084742Y26101000D01*
X34109512Y26096073D01*
G37*
G36*
X46809512Y26096073D02*
G01*
X46958812Y26066376D01*
X47122784Y25998456D01*
X47270354Y25899853D01*
X47395853Y25774354D01*
X47494456Y25626784D01*
X47562376Y25462812D01*
X47597000Y25288741D01*
X47597000Y25111259D01*
X47562376Y24937188D01*
X47494456Y24773216D01*
X47395853Y24625646D01*
X47270354Y24500147D01*
X47122784Y24401544D01*
X46958812Y24333624D01*
X46809512Y24303927D01*
X46784742Y24299000D01*
X46607258Y24299000D01*
X46582488Y24303927D01*
X46433188Y24333624D01*
X46269216Y24401544D01*
X46121646Y24500147D01*
X45996147Y24625646D01*
X45897544Y24773216D01*
X45829624Y24937188D01*
X45795000Y25111259D01*
X45795000Y25288741D01*
X45829624Y25462812D01*
X45897544Y25626784D01*
X45996147Y25774354D01*
X46121646Y25899853D01*
X46269216Y25998456D01*
X46433188Y26066376D01*
X46582488Y26096073D01*
X46607258Y26101000D01*
X46784742Y26101000D01*
X46809512Y26096073D01*
G37*
G36*
X49349512Y26096073D02*
G01*
X49498812Y26066376D01*
X49662784Y25998456D01*
X49810354Y25899853D01*
X49935853Y25774354D01*
X50034456Y25626784D01*
X50102376Y25462812D01*
X50137000Y25288741D01*
X50137000Y25111259D01*
X50102376Y24937188D01*
X50034456Y24773216D01*
X49935853Y24625646D01*
X49810354Y24500147D01*
X49662784Y24401544D01*
X49498812Y24333624D01*
X49349512Y24303927D01*
X49324742Y24299000D01*
X49147258Y24299000D01*
X49122488Y24303927D01*
X48973188Y24333624D01*
X48809216Y24401544D01*
X48661646Y24500147D01*
X48536147Y24625646D01*
X48437544Y24773216D01*
X48369624Y24937188D01*
X48335000Y25111259D01*
X48335000Y25288741D01*
X48369624Y25462812D01*
X48437544Y25626784D01*
X48536147Y25774354D01*
X48661646Y25899853D01*
X48809216Y25998456D01*
X48973188Y26066376D01*
X49122488Y26096073D01*
X49147258Y26101000D01*
X49324742Y26101000D01*
X49349512Y26096073D01*
G37*
G36*
X31569512Y26096073D02*
G01*
X31718812Y26066376D01*
X31882784Y25998456D01*
X32030354Y25899853D01*
X32155853Y25774354D01*
X32254456Y25626784D01*
X32322376Y25462812D01*
X32357000Y25288741D01*
X32357000Y25111259D01*
X32322376Y24937188D01*
X32254456Y24773216D01*
X32155853Y24625646D01*
X32030354Y24500147D01*
X31882784Y24401544D01*
X31718812Y24333624D01*
X31569512Y24303927D01*
X31544742Y24299000D01*
X31367258Y24299000D01*
X31342488Y24303927D01*
X31193188Y24333624D01*
X31029216Y24401544D01*
X30881646Y24500147D01*
X30756147Y24625646D01*
X30657544Y24773216D01*
X30589624Y24937188D01*
X30555000Y25111259D01*
X30555000Y25288741D01*
X30589624Y25462812D01*
X30657544Y25626784D01*
X30756147Y25774354D01*
X30881646Y25899853D01*
X31029216Y25998456D01*
X31193188Y26066376D01*
X31342488Y26096073D01*
X31367258Y26101000D01*
X31544742Y26101000D01*
X31569512Y26096073D01*
G37*
G36*
X14297512Y27366073D02*
G01*
X14446812Y27336376D01*
X14610784Y27268456D01*
X14758354Y27169853D01*
X14883853Y27044354D01*
X14982456Y26896784D01*
X15050376Y26732812D01*
X15085000Y26558741D01*
X15085000Y26381259D01*
X15050376Y26207188D01*
X14982456Y26043216D01*
X14883853Y25895646D01*
X14758354Y25770147D01*
X14610784Y25671544D01*
X14446812Y25603624D01*
X14297512Y25573927D01*
X14272742Y25569000D01*
X14095258Y25569000D01*
X14070488Y25573927D01*
X13921188Y25603624D01*
X13757216Y25671544D01*
X13609646Y25770147D01*
X13484147Y25895646D01*
X13385544Y26043216D01*
X13317624Y26207188D01*
X13283000Y26381259D01*
X13283000Y26558741D01*
X13317624Y26732812D01*
X13385544Y26896784D01*
X13484147Y27044354D01*
X13609646Y27169853D01*
X13757216Y27268456D01*
X13921188Y27336376D01*
X14070488Y27366073D01*
X14095258Y27371000D01*
X14272742Y27371000D01*
X14297512Y27366073D01*
G37*
G36*
X49349512Y28636073D02*
G01*
X49498812Y28606376D01*
X49662784Y28538456D01*
X49810354Y28439853D01*
X49935853Y28314354D01*
X50034456Y28166784D01*
X50102376Y28002812D01*
X50137000Y27828741D01*
X50137000Y27651259D01*
X50102376Y27477188D01*
X50034456Y27313216D01*
X49935853Y27165646D01*
X49810354Y27040147D01*
X49662784Y26941544D01*
X49498812Y26873624D01*
X49349512Y26843927D01*
X49324742Y26839000D01*
X49147258Y26839000D01*
X49122488Y26843927D01*
X48973188Y26873624D01*
X48809216Y26941544D01*
X48661646Y27040147D01*
X48536147Y27165646D01*
X48437544Y27313216D01*
X48369624Y27477188D01*
X48335000Y27651259D01*
X48335000Y27828741D01*
X48369624Y28002812D01*
X48437544Y28166784D01*
X48536147Y28314354D01*
X48661646Y28439853D01*
X48809216Y28538456D01*
X48973188Y28606376D01*
X49122488Y28636073D01*
X49147258Y28641000D01*
X49324742Y28641000D01*
X49349512Y28636073D01*
G37*
G36*
X34109512Y28636073D02*
G01*
X34258812Y28606376D01*
X34422784Y28538456D01*
X34570354Y28439853D01*
X34695853Y28314354D01*
X34794456Y28166784D01*
X34862376Y28002812D01*
X34897000Y27828741D01*
X34897000Y27651259D01*
X34862376Y27477188D01*
X34794456Y27313216D01*
X34695853Y27165646D01*
X34570354Y27040147D01*
X34422784Y26941544D01*
X34258812Y26873624D01*
X34109512Y26843927D01*
X34084742Y26839000D01*
X33907258Y26839000D01*
X33882488Y26843927D01*
X33733188Y26873624D01*
X33569216Y26941544D01*
X33421646Y27040147D01*
X33296147Y27165646D01*
X33197544Y27313216D01*
X33129624Y27477188D01*
X33095000Y27651259D01*
X33095000Y27828741D01*
X33129624Y28002812D01*
X33197544Y28166784D01*
X33296147Y28314354D01*
X33421646Y28439853D01*
X33569216Y28538456D01*
X33733188Y28606376D01*
X33882488Y28636073D01*
X33907258Y28641000D01*
X34084742Y28641000D01*
X34109512Y28636073D01*
G37*
G36*
X31569512Y28636073D02*
G01*
X31718812Y28606376D01*
X31882784Y28538456D01*
X32030354Y28439853D01*
X32155853Y28314354D01*
X32254456Y28166784D01*
X32322376Y28002812D01*
X32357000Y27828741D01*
X32357000Y27651259D01*
X32322376Y27477188D01*
X32254456Y27313216D01*
X32155853Y27165646D01*
X32030354Y27040147D01*
X31882784Y26941544D01*
X31718812Y26873624D01*
X31569512Y26843927D01*
X31544742Y26839000D01*
X31367258Y26839000D01*
X31342488Y26843927D01*
X31193188Y26873624D01*
X31029216Y26941544D01*
X30881646Y27040147D01*
X30756147Y27165646D01*
X30657544Y27313216D01*
X30589624Y27477188D01*
X30555000Y27651259D01*
X30555000Y27828741D01*
X30589624Y28002812D01*
X30657544Y28166784D01*
X30756147Y28314354D01*
X30881646Y28439853D01*
X31029216Y28538456D01*
X31193188Y28606376D01*
X31342488Y28636073D01*
X31367258Y28641000D01*
X31544742Y28641000D01*
X31569512Y28636073D01*
G37*
G36*
X46809512Y28636073D02*
G01*
X46958812Y28606376D01*
X47122784Y28538456D01*
X47270354Y28439853D01*
X47395853Y28314354D01*
X47494456Y28166784D01*
X47562376Y28002812D01*
X47597000Y27828741D01*
X47597000Y27651259D01*
X47562376Y27477188D01*
X47494456Y27313216D01*
X47395853Y27165646D01*
X47270354Y27040147D01*
X47122784Y26941544D01*
X46958812Y26873624D01*
X46809512Y26843927D01*
X46784742Y26839000D01*
X46607258Y26839000D01*
X46582488Y26843927D01*
X46433188Y26873624D01*
X46269216Y26941544D01*
X46121646Y27040147D01*
X45996147Y27165646D01*
X45897544Y27313216D01*
X45829624Y27477188D01*
X45795000Y27651259D01*
X45795000Y27828741D01*
X45829624Y28002812D01*
X45897544Y28166784D01*
X45996147Y28314354D01*
X46121646Y28439853D01*
X46269216Y28538456D01*
X46433188Y28606376D01*
X46582488Y28636073D01*
X46607258Y28641000D01*
X46784742Y28641000D01*
X46809512Y28636073D01*
G37*
G36*
X57158585Y30531198D02*
G01*
X57308410Y30501396D01*
X57590674Y30384479D01*
X57844705Y30214741D01*
X58060741Y29998705D01*
X58230479Y29744674D01*
X58347396Y29462410D01*
X58407000Y29162760D01*
X58407000Y28857240D01*
X58347396Y28557590D01*
X58230479Y28275326D01*
X58060741Y28021295D01*
X57844705Y27805259D01*
X57590674Y27635521D01*
X57308410Y27518604D01*
X57158585Y27488802D01*
X57008761Y27459000D01*
X56703239Y27459000D01*
X56553415Y27488802D01*
X56403590Y27518604D01*
X56121326Y27635521D01*
X55867295Y27805259D01*
X55651259Y28021295D01*
X55481521Y28275326D01*
X55364604Y28557590D01*
X55305000Y28857240D01*
X55305000Y29162760D01*
X55364604Y29462410D01*
X55481521Y29744674D01*
X55651259Y29998705D01*
X55867295Y30214741D01*
X56121326Y30384479D01*
X56403590Y30501396D01*
X56553415Y30531198D01*
X56703239Y30561000D01*
X57008761Y30561000D01*
X57158585Y30531198D01*
G37*
G36*
X14297512Y29906073D02*
G01*
X14446812Y29876376D01*
X14610784Y29808456D01*
X14758354Y29709853D01*
X14883853Y29584354D01*
X14982456Y29436784D01*
X15050376Y29272812D01*
X15085000Y29098741D01*
X15085000Y28921259D01*
X15050376Y28747188D01*
X14982456Y28583216D01*
X14883853Y28435646D01*
X14758354Y28310147D01*
X14610784Y28211544D01*
X14446812Y28143624D01*
X14297512Y28113927D01*
X14272742Y28109000D01*
X14095258Y28109000D01*
X14070488Y28113927D01*
X13921188Y28143624D01*
X13757216Y28211544D01*
X13609646Y28310147D01*
X13484147Y28435646D01*
X13385544Y28583216D01*
X13317624Y28747188D01*
X13283000Y28921259D01*
X13283000Y29098741D01*
X13317624Y29272812D01*
X13385544Y29436784D01*
X13484147Y29584354D01*
X13609646Y29709853D01*
X13757216Y29808456D01*
X13921188Y29876376D01*
X14070488Y29906073D01*
X14095258Y29911000D01*
X14272742Y29911000D01*
X14297512Y29906073D01*
G37*
G36*
X49349512Y31176073D02*
G01*
X49498812Y31146376D01*
X49662784Y31078456D01*
X49810354Y30979853D01*
X49935853Y30854354D01*
X50034456Y30706784D01*
X50102376Y30542812D01*
X50137000Y30368741D01*
X50137000Y30191259D01*
X50102376Y30017188D01*
X50034456Y29853216D01*
X49935853Y29705646D01*
X49810354Y29580147D01*
X49662784Y29481544D01*
X49498812Y29413624D01*
X49349512Y29383927D01*
X49324742Y29379000D01*
X49147258Y29379000D01*
X49122488Y29383927D01*
X48973188Y29413624D01*
X48809216Y29481544D01*
X48661646Y29580147D01*
X48536147Y29705646D01*
X48437544Y29853216D01*
X48369624Y30017188D01*
X48335000Y30191259D01*
X48335000Y30368741D01*
X48369624Y30542812D01*
X48437544Y30706784D01*
X48536147Y30854354D01*
X48661646Y30979853D01*
X48809216Y31078456D01*
X48973188Y31146376D01*
X49122488Y31176073D01*
X49147258Y31181000D01*
X49324742Y31181000D01*
X49349512Y31176073D01*
G37*
G36*
X31569512Y31176073D02*
G01*
X31718812Y31146376D01*
X31882784Y31078456D01*
X32030354Y30979853D01*
X32155853Y30854354D01*
X32254456Y30706784D01*
X32322376Y30542812D01*
X32357000Y30368741D01*
X32357000Y30191259D01*
X32322376Y30017188D01*
X32254456Y29853216D01*
X32155853Y29705646D01*
X32030354Y29580147D01*
X31882784Y29481544D01*
X31718812Y29413624D01*
X31569512Y29383927D01*
X31544742Y29379000D01*
X31367258Y29379000D01*
X31342488Y29383927D01*
X31193188Y29413624D01*
X31029216Y29481544D01*
X30881646Y29580147D01*
X30756147Y29705646D01*
X30657544Y29853216D01*
X30589624Y30017188D01*
X30555000Y30191259D01*
X30555000Y30368741D01*
X30589624Y30542812D01*
X30657544Y30706784D01*
X30756147Y30854354D01*
X30881646Y30979853D01*
X31029216Y31078456D01*
X31193188Y31146376D01*
X31342488Y31176073D01*
X31367258Y31181000D01*
X31544742Y31181000D01*
X31569512Y31176073D01*
G37*
G36*
X46809512Y31176073D02*
G01*
X46958812Y31146376D01*
X47122784Y31078456D01*
X47270354Y30979853D01*
X47395853Y30854354D01*
X47494456Y30706784D01*
X47562376Y30542812D01*
X47597000Y30368741D01*
X47597000Y30191259D01*
X47562376Y30017188D01*
X47494456Y29853216D01*
X47395853Y29705646D01*
X47270354Y29580147D01*
X47122784Y29481544D01*
X46958812Y29413624D01*
X46809512Y29383927D01*
X46784742Y29379000D01*
X46607258Y29379000D01*
X46582488Y29383927D01*
X46433188Y29413624D01*
X46269216Y29481544D01*
X46121646Y29580147D01*
X45996147Y29705646D01*
X45897544Y29853216D01*
X45829624Y30017188D01*
X45795000Y30191259D01*
X45795000Y30368741D01*
X45829624Y30542812D01*
X45897544Y30706784D01*
X45996147Y30854354D01*
X46121646Y30979853D01*
X46269216Y31078456D01*
X46433188Y31146376D01*
X46582488Y31176073D01*
X46607258Y31181000D01*
X46784742Y31181000D01*
X46809512Y31176073D01*
G37*
G36*
X34109512Y31176073D02*
G01*
X34258812Y31146376D01*
X34422784Y31078456D01*
X34570354Y30979853D01*
X34695853Y30854354D01*
X34794456Y30706784D01*
X34862376Y30542812D01*
X34897000Y30368741D01*
X34897000Y30191259D01*
X34862376Y30017188D01*
X34794456Y29853216D01*
X34695853Y29705646D01*
X34570354Y29580147D01*
X34422784Y29481544D01*
X34258812Y29413624D01*
X34109512Y29383927D01*
X34084742Y29379000D01*
X33907258Y29379000D01*
X33882488Y29383927D01*
X33733188Y29413624D01*
X33569216Y29481544D01*
X33421646Y29580147D01*
X33296147Y29705646D01*
X33197544Y29853216D01*
X33129624Y30017188D01*
X33095000Y30191259D01*
X33095000Y30368741D01*
X33129624Y30542812D01*
X33197544Y30706784D01*
X33296147Y30854354D01*
X33421646Y30979853D01*
X33569216Y31078456D01*
X33733188Y31146376D01*
X33882488Y31176073D01*
X33907258Y31181000D01*
X34084742Y31181000D01*
X34109512Y31176073D01*
G37*
G36*
X14297512Y32446073D02*
G01*
X14446812Y32416376D01*
X14610784Y32348456D01*
X14758354Y32249853D01*
X14883853Y32124354D01*
X14982456Y31976784D01*
X15050376Y31812812D01*
X15085000Y31638741D01*
X15085000Y31461259D01*
X15050376Y31287188D01*
X14982456Y31123216D01*
X14883853Y30975646D01*
X14758354Y30850147D01*
X14610784Y30751544D01*
X14446812Y30683624D01*
X14297512Y30653927D01*
X14272742Y30649000D01*
X14095258Y30649000D01*
X14070488Y30653927D01*
X13921188Y30683624D01*
X13757216Y30751544D01*
X13609646Y30850147D01*
X13484147Y30975646D01*
X13385544Y31123216D01*
X13317624Y31287188D01*
X13283000Y31461259D01*
X13283000Y31638741D01*
X13317624Y31812812D01*
X13385544Y31976784D01*
X13484147Y32124354D01*
X13609646Y32249853D01*
X13757216Y32348456D01*
X13921188Y32416376D01*
X14070488Y32446073D01*
X14095258Y32451000D01*
X14272742Y32451000D01*
X14297512Y32446073D01*
G37*
G36*
X31569512Y33716073D02*
G01*
X31718812Y33686376D01*
X31882784Y33618456D01*
X32030354Y33519853D01*
X32155853Y33394354D01*
X32254456Y33246784D01*
X32322376Y33082812D01*
X32357000Y32908741D01*
X32357000Y32731259D01*
X32322376Y32557188D01*
X32254456Y32393216D01*
X32155853Y32245646D01*
X32030354Y32120147D01*
X31882784Y32021544D01*
X31718812Y31953624D01*
X31569512Y31923927D01*
X31544742Y31919000D01*
X31367258Y31919000D01*
X31342488Y31923927D01*
X31193188Y31953624D01*
X31029216Y32021544D01*
X30881646Y32120147D01*
X30756147Y32245646D01*
X30657544Y32393216D01*
X30589624Y32557188D01*
X30555000Y32731259D01*
X30555000Y32908741D01*
X30589624Y33082812D01*
X30657544Y33246784D01*
X30756147Y33394354D01*
X30881646Y33519853D01*
X31029216Y33618456D01*
X31193188Y33686376D01*
X31342488Y33716073D01*
X31367258Y33721000D01*
X31544742Y33721000D01*
X31569512Y33716073D01*
G37*
G36*
X49349512Y33716073D02*
G01*
X49498812Y33686376D01*
X49662784Y33618456D01*
X49810354Y33519853D01*
X49935853Y33394354D01*
X50034456Y33246784D01*
X50102376Y33082812D01*
X50137000Y32908741D01*
X50137000Y32731259D01*
X50102376Y32557188D01*
X50034456Y32393216D01*
X49935853Y32245646D01*
X49810354Y32120147D01*
X49662784Y32021544D01*
X49498812Y31953624D01*
X49349512Y31923927D01*
X49324742Y31919000D01*
X49147258Y31919000D01*
X49122488Y31923927D01*
X48973188Y31953624D01*
X48809216Y32021544D01*
X48661646Y32120147D01*
X48536147Y32245646D01*
X48437544Y32393216D01*
X48369624Y32557188D01*
X48335000Y32731259D01*
X48335000Y32908741D01*
X48369624Y33082812D01*
X48437544Y33246784D01*
X48536147Y33394354D01*
X48661646Y33519853D01*
X48809216Y33618456D01*
X48973188Y33686376D01*
X49122488Y33716073D01*
X49147258Y33721000D01*
X49324742Y33721000D01*
X49349512Y33716073D01*
G37*
G36*
X46809512Y33716073D02*
G01*
X46958812Y33686376D01*
X47122784Y33618456D01*
X47270354Y33519853D01*
X47395853Y33394354D01*
X47494456Y33246784D01*
X47562376Y33082812D01*
X47597000Y32908741D01*
X47597000Y32731259D01*
X47562376Y32557188D01*
X47494456Y32393216D01*
X47395853Y32245646D01*
X47270354Y32120147D01*
X47122784Y32021544D01*
X46958812Y31953624D01*
X46809512Y31923927D01*
X46784742Y31919000D01*
X46607258Y31919000D01*
X46582488Y31923927D01*
X46433188Y31953624D01*
X46269216Y32021544D01*
X46121646Y32120147D01*
X45996147Y32245646D01*
X45897544Y32393216D01*
X45829624Y32557188D01*
X45795000Y32731259D01*
X45795000Y32908741D01*
X45829624Y33082812D01*
X45897544Y33246784D01*
X45996147Y33394354D01*
X46121646Y33519853D01*
X46269216Y33618456D01*
X46433188Y33686376D01*
X46582488Y33716073D01*
X46607258Y33721000D01*
X46784742Y33721000D01*
X46809512Y33716073D01*
G37*
G36*
X34109512Y33716073D02*
G01*
X34258812Y33686376D01*
X34422784Y33618456D01*
X34570354Y33519853D01*
X34695853Y33394354D01*
X34794456Y33246784D01*
X34862376Y33082812D01*
X34897000Y32908741D01*
X34897000Y32731259D01*
X34862376Y32557188D01*
X34794456Y32393216D01*
X34695853Y32245646D01*
X34570354Y32120147D01*
X34422784Y32021544D01*
X34258812Y31953624D01*
X34109512Y31923927D01*
X34084742Y31919000D01*
X33907258Y31919000D01*
X33882488Y31923927D01*
X33733188Y31953624D01*
X33569216Y32021544D01*
X33421646Y32120147D01*
X33296147Y32245646D01*
X33197544Y32393216D01*
X33129624Y32557188D01*
X33095000Y32731259D01*
X33095000Y32908741D01*
X33129624Y33082812D01*
X33197544Y33246784D01*
X33296147Y33394354D01*
X33421646Y33519853D01*
X33569216Y33618456D01*
X33733188Y33686376D01*
X33882488Y33716073D01*
X33907258Y33721000D01*
X34084742Y33721000D01*
X34109512Y33716073D01*
G37*
G36*
X57158585Y35611198D02*
G01*
X57308410Y35581396D01*
X57590674Y35464479D01*
X57844705Y35294741D01*
X58060741Y35078705D01*
X58230479Y34824674D01*
X58347396Y34542410D01*
X58407000Y34242760D01*
X58407000Y33937240D01*
X58347396Y33637590D01*
X58230479Y33355326D01*
X58060741Y33101295D01*
X57844705Y32885259D01*
X57590674Y32715521D01*
X57308410Y32598604D01*
X57158585Y32568802D01*
X57008761Y32539000D01*
X56703239Y32539000D01*
X56553415Y32568802D01*
X56403590Y32598604D01*
X56121326Y32715521D01*
X55867295Y32885259D01*
X55651259Y33101295D01*
X55481521Y33355326D01*
X55364604Y33637590D01*
X55305000Y33937240D01*
X55305000Y34242760D01*
X55364604Y34542410D01*
X55481521Y34824674D01*
X55651259Y35078705D01*
X55867295Y35294741D01*
X56121326Y35464479D01*
X56403590Y35581396D01*
X56553415Y35611198D01*
X56703239Y35641000D01*
X57008761Y35641000D01*
X57158585Y35611198D01*
G37*
G36*
X15085000Y33189000D02*
G01*
X13283000Y33189000D01*
X13283000Y34991000D01*
X15085000Y34991000D01*
X15085000Y33189000D01*
G37*
G36*
X31569512Y36256073D02*
G01*
X31718812Y36226376D01*
X31882784Y36158456D01*
X32030354Y36059853D01*
X32155853Y35934354D01*
X32254456Y35786784D01*
X32322376Y35622812D01*
X32357000Y35448741D01*
X32357000Y35271259D01*
X32322376Y35097188D01*
X32254456Y34933216D01*
X32155853Y34785646D01*
X32030354Y34660147D01*
X31882784Y34561544D01*
X31718812Y34493624D01*
X31569512Y34463927D01*
X31544742Y34459000D01*
X31367258Y34459000D01*
X31342488Y34463927D01*
X31193188Y34493624D01*
X31029216Y34561544D01*
X30881646Y34660147D01*
X30756147Y34785646D01*
X30657544Y34933216D01*
X30589624Y35097188D01*
X30555000Y35271259D01*
X30555000Y35448741D01*
X30589624Y35622812D01*
X30657544Y35786784D01*
X30756147Y35934354D01*
X30881646Y36059853D01*
X31029216Y36158456D01*
X31193188Y36226376D01*
X31342488Y36256073D01*
X31367258Y36261000D01*
X31544742Y36261000D01*
X31569512Y36256073D01*
G37*
G36*
X34109512Y36256073D02*
G01*
X34258812Y36226376D01*
X34422784Y36158456D01*
X34570354Y36059853D01*
X34695853Y35934354D01*
X34794456Y35786784D01*
X34862376Y35622812D01*
X34897000Y35448741D01*
X34897000Y35271259D01*
X34862376Y35097188D01*
X34794456Y34933216D01*
X34695853Y34785646D01*
X34570354Y34660147D01*
X34422784Y34561544D01*
X34258812Y34493624D01*
X34109512Y34463927D01*
X34084742Y34459000D01*
X33907258Y34459000D01*
X33882488Y34463927D01*
X33733188Y34493624D01*
X33569216Y34561544D01*
X33421646Y34660147D01*
X33296147Y34785646D01*
X33197544Y34933216D01*
X33129624Y35097188D01*
X33095000Y35271259D01*
X33095000Y35448741D01*
X33129624Y35622812D01*
X33197544Y35786784D01*
X33296147Y35934354D01*
X33421646Y36059853D01*
X33569216Y36158456D01*
X33733188Y36226376D01*
X33882488Y36256073D01*
X33907258Y36261000D01*
X34084742Y36261000D01*
X34109512Y36256073D01*
G37*
G36*
X49349512Y36256073D02*
G01*
X49498812Y36226376D01*
X49662784Y36158456D01*
X49810354Y36059853D01*
X49935853Y35934354D01*
X50034456Y35786784D01*
X50102376Y35622812D01*
X50137000Y35448741D01*
X50137000Y35271259D01*
X50102376Y35097188D01*
X50034456Y34933216D01*
X49935853Y34785646D01*
X49810354Y34660147D01*
X49662784Y34561544D01*
X49498812Y34493624D01*
X49349512Y34463927D01*
X49324742Y34459000D01*
X49147258Y34459000D01*
X49122488Y34463927D01*
X48973188Y34493624D01*
X48809216Y34561544D01*
X48661646Y34660147D01*
X48536147Y34785646D01*
X48437544Y34933216D01*
X48369624Y35097188D01*
X48335000Y35271259D01*
X48335000Y35448741D01*
X48369624Y35622812D01*
X48437544Y35786784D01*
X48536147Y35934354D01*
X48661646Y36059853D01*
X48809216Y36158456D01*
X48973188Y36226376D01*
X49122488Y36256073D01*
X49147258Y36261000D01*
X49324742Y36261000D01*
X49349512Y36256073D01*
G37*
G36*
X46809512Y36256073D02*
G01*
X46958812Y36226376D01*
X47122784Y36158456D01*
X47270354Y36059853D01*
X47395853Y35934354D01*
X47494456Y35786784D01*
X47562376Y35622812D01*
X47597000Y35448741D01*
X47597000Y35271259D01*
X47562376Y35097188D01*
X47494456Y34933216D01*
X47395853Y34785646D01*
X47270354Y34660147D01*
X47122784Y34561544D01*
X46958812Y34493624D01*
X46809512Y34463927D01*
X46784742Y34459000D01*
X46607258Y34459000D01*
X46582488Y34463927D01*
X46433188Y34493624D01*
X46269216Y34561544D01*
X46121646Y34660147D01*
X45996147Y34785646D01*
X45897544Y34933216D01*
X45829624Y35097188D01*
X45795000Y35271259D01*
X45795000Y35448741D01*
X45829624Y35622812D01*
X45897544Y35786784D01*
X45996147Y35934354D01*
X46121646Y36059853D01*
X46269216Y36158456D01*
X46433188Y36226376D01*
X46582488Y36256073D01*
X46607258Y36261000D01*
X46784742Y36261000D01*
X46809512Y36256073D01*
G37*
G36*
X49349512Y38796073D02*
G01*
X49498812Y38766376D01*
X49662784Y38698456D01*
X49810354Y38599853D01*
X49935853Y38474354D01*
X50034456Y38326784D01*
X50102376Y38162812D01*
X50137000Y37988741D01*
X50137000Y37811259D01*
X50102376Y37637188D01*
X50034456Y37473216D01*
X49935853Y37325646D01*
X49810354Y37200147D01*
X49662784Y37101544D01*
X49498812Y37033624D01*
X49349512Y37003927D01*
X49324742Y36999000D01*
X49147258Y36999000D01*
X49122488Y37003927D01*
X48973188Y37033624D01*
X48809216Y37101544D01*
X48661646Y37200147D01*
X48536147Y37325646D01*
X48437544Y37473216D01*
X48369624Y37637188D01*
X48335000Y37811259D01*
X48335000Y37988741D01*
X48369624Y38162812D01*
X48437544Y38326784D01*
X48536147Y38474354D01*
X48661646Y38599853D01*
X48809216Y38698456D01*
X48973188Y38766376D01*
X49122488Y38796073D01*
X49147258Y38801000D01*
X49324742Y38801000D01*
X49349512Y38796073D01*
G37*
G36*
X46809512Y38796073D02*
G01*
X46958812Y38766376D01*
X47122784Y38698456D01*
X47270354Y38599853D01*
X47395853Y38474354D01*
X47494456Y38326784D01*
X47562376Y38162812D01*
X47597000Y37988741D01*
X47597000Y37811259D01*
X47562376Y37637188D01*
X47494456Y37473216D01*
X47395853Y37325646D01*
X47270354Y37200147D01*
X47122784Y37101544D01*
X46958812Y37033624D01*
X46809512Y37003927D01*
X46784742Y36999000D01*
X46607258Y36999000D01*
X46582488Y37003927D01*
X46433188Y37033624D01*
X46269216Y37101544D01*
X46121646Y37200147D01*
X45996147Y37325646D01*
X45897544Y37473216D01*
X45829624Y37637188D01*
X45795000Y37811259D01*
X45795000Y37988741D01*
X45829624Y38162812D01*
X45897544Y38326784D01*
X45996147Y38474354D01*
X46121646Y38599853D01*
X46269216Y38698456D01*
X46433188Y38766376D01*
X46582488Y38796073D01*
X46607258Y38801000D01*
X46784742Y38801000D01*
X46809512Y38796073D01*
G37*
G36*
X31569512Y38796073D02*
G01*
X31718812Y38766376D01*
X31882784Y38698456D01*
X32030354Y38599853D01*
X32155853Y38474354D01*
X32254456Y38326784D01*
X32322376Y38162812D01*
X32357000Y37988741D01*
X32357000Y37811259D01*
X32322376Y37637188D01*
X32254456Y37473216D01*
X32155853Y37325646D01*
X32030354Y37200147D01*
X31882784Y37101544D01*
X31718812Y37033624D01*
X31569512Y37003927D01*
X31544742Y36999000D01*
X31367258Y36999000D01*
X31342488Y37003927D01*
X31193188Y37033624D01*
X31029216Y37101544D01*
X30881646Y37200147D01*
X30756147Y37325646D01*
X30657544Y37473216D01*
X30589624Y37637188D01*
X30555000Y37811259D01*
X30555000Y37988741D01*
X30589624Y38162812D01*
X30657544Y38326784D01*
X30756147Y38474354D01*
X30881646Y38599853D01*
X31029216Y38698456D01*
X31193188Y38766376D01*
X31342488Y38796073D01*
X31367258Y38801000D01*
X31544742Y38801000D01*
X31569512Y38796073D01*
G37*
G36*
X34109512Y38796073D02*
G01*
X34258812Y38766376D01*
X34422784Y38698456D01*
X34570354Y38599853D01*
X34695853Y38474354D01*
X34794456Y38326784D01*
X34862376Y38162812D01*
X34897000Y37988741D01*
X34897000Y37811259D01*
X34862376Y37637188D01*
X34794456Y37473216D01*
X34695853Y37325646D01*
X34570354Y37200147D01*
X34422784Y37101544D01*
X34258812Y37033624D01*
X34109512Y37003927D01*
X34084742Y36999000D01*
X33907258Y36999000D01*
X33882488Y37003927D01*
X33733188Y37033624D01*
X33569216Y37101544D01*
X33421646Y37200147D01*
X33296147Y37325646D01*
X33197544Y37473216D01*
X33129624Y37637188D01*
X33095000Y37811259D01*
X33095000Y37988741D01*
X33129624Y38162812D01*
X33197544Y38326784D01*
X33296147Y38474354D01*
X33421646Y38599853D01*
X33569216Y38698456D01*
X33733188Y38766376D01*
X33882488Y38796073D01*
X33907258Y38801000D01*
X34084742Y38801000D01*
X34109512Y38796073D01*
G37*
G36*
X57103179Y40702219D02*
G01*
X57308410Y40661396D01*
X57590674Y40544479D01*
X57844705Y40374741D01*
X58060741Y40158705D01*
X58230479Y39904674D01*
X58347396Y39622410D01*
X58407000Y39322760D01*
X58407000Y39017240D01*
X58347396Y38717590D01*
X58230479Y38435326D01*
X58060741Y38181295D01*
X57844705Y37965259D01*
X57590674Y37795521D01*
X57308410Y37678604D01*
X57158585Y37648802D01*
X57008761Y37619000D01*
X56703239Y37619000D01*
X56553415Y37648802D01*
X56403590Y37678604D01*
X56121326Y37795521D01*
X55867295Y37965259D01*
X55651259Y38181295D01*
X55481521Y38435326D01*
X55364604Y38717590D01*
X55305000Y39017240D01*
X55305000Y39322760D01*
X55364604Y39622410D01*
X55481521Y39904674D01*
X55651259Y40158705D01*
X55867295Y40374741D01*
X56121326Y40544479D01*
X56403590Y40661396D01*
X56608821Y40702219D01*
X56703239Y40721000D01*
X57008761Y40721000D01*
X57103179Y40702219D01*
G37*
G36*
X16957642Y40702219D02*
G01*
X17103414Y40641838D01*
X17103416Y40641837D01*
X17234608Y40554178D01*
X17346178Y40442608D01*
X17433837Y40311416D01*
X17433838Y40311414D01*
X17494219Y40165642D01*
X17525000Y40010893D01*
X17525000Y39853107D01*
X17494219Y39698358D01*
X17442552Y39573624D01*
X17433837Y39552584D01*
X17346178Y39421392D01*
X17234608Y39309822D01*
X17103416Y39222163D01*
X17103415Y39222162D01*
X17103414Y39222162D01*
X16957642Y39161781D01*
X16802893Y39131000D01*
X16645107Y39131000D01*
X16490358Y39161781D01*
X16344586Y39222162D01*
X16344585Y39222162D01*
X16344584Y39222163D01*
X16213392Y39309822D01*
X16101822Y39421392D01*
X16014163Y39552584D01*
X16005448Y39573624D01*
X15953781Y39698358D01*
X15923000Y39853107D01*
X15923000Y40010893D01*
X15953781Y40165642D01*
X16014162Y40311414D01*
X16014163Y40311416D01*
X16101822Y40442608D01*
X16213392Y40554178D01*
X16344584Y40641837D01*
X16344586Y40641838D01*
X16490358Y40702219D01*
X16645107Y40733000D01*
X16802893Y40733000D01*
X16957642Y40702219D01*
G37*
G36*
X21837642Y40702219D02*
G01*
X21983414Y40641838D01*
X21983416Y40641837D01*
X22114608Y40554178D01*
X22226178Y40442608D01*
X22313837Y40311416D01*
X22313838Y40311414D01*
X22374219Y40165642D01*
X22405000Y40010893D01*
X22405000Y39853107D01*
X22374219Y39698358D01*
X22322552Y39573624D01*
X22313837Y39552584D01*
X22226178Y39421392D01*
X22114608Y39309822D01*
X21983416Y39222163D01*
X21983415Y39222162D01*
X21983414Y39222162D01*
X21837642Y39161781D01*
X21682893Y39131000D01*
X21525107Y39131000D01*
X21370358Y39161781D01*
X21224586Y39222162D01*
X21224585Y39222162D01*
X21224584Y39222163D01*
X21093392Y39309822D01*
X20981822Y39421392D01*
X20894163Y39552584D01*
X20885448Y39573624D01*
X20833781Y39698358D01*
X20803000Y39853107D01*
X20803000Y40010893D01*
X20833781Y40165642D01*
X20894162Y40311414D01*
X20894163Y40311416D01*
X20981822Y40442608D01*
X21093392Y40554178D01*
X21224584Y40641837D01*
X21224586Y40641838D01*
X21370358Y40702219D01*
X21525107Y40733000D01*
X21682893Y40733000D01*
X21837642Y40702219D01*
G37*
G36*
X34109512Y41336073D02*
G01*
X34258812Y41306376D01*
X34422784Y41238456D01*
X34570354Y41139853D01*
X34695853Y41014354D01*
X34794456Y40866784D01*
X34862376Y40702812D01*
X34897000Y40528741D01*
X34897000Y40351259D01*
X34862376Y40177188D01*
X34794456Y40013216D01*
X34695853Y39865646D01*
X34570354Y39740147D01*
X34422784Y39641544D01*
X34258812Y39573624D01*
X34109512Y39543927D01*
X34084742Y39539000D01*
X33907258Y39539000D01*
X33882488Y39543927D01*
X33733188Y39573624D01*
X33569216Y39641544D01*
X33421646Y39740147D01*
X33296147Y39865646D01*
X33197544Y40013216D01*
X33129624Y40177188D01*
X33095000Y40351259D01*
X33095000Y40528741D01*
X33129624Y40702812D01*
X33197544Y40866784D01*
X33296147Y41014354D01*
X33421646Y41139853D01*
X33569216Y41238456D01*
X33733188Y41306376D01*
X33882488Y41336073D01*
X33907258Y41341000D01*
X34084742Y41341000D01*
X34109512Y41336073D01*
G37*
G36*
X31569512Y41336073D02*
G01*
X31718812Y41306376D01*
X31882784Y41238456D01*
X32030354Y41139853D01*
X32155853Y41014354D01*
X32254456Y40866784D01*
X32322376Y40702812D01*
X32357000Y40528741D01*
X32357000Y40351259D01*
X32322376Y40177188D01*
X32254456Y40013216D01*
X32155853Y39865646D01*
X32030354Y39740147D01*
X31882784Y39641544D01*
X31718812Y39573624D01*
X31569512Y39543927D01*
X31544742Y39539000D01*
X31367258Y39539000D01*
X31342488Y39543927D01*
X31193188Y39573624D01*
X31029216Y39641544D01*
X30881646Y39740147D01*
X30756147Y39865646D01*
X30657544Y40013216D01*
X30589624Y40177188D01*
X30555000Y40351259D01*
X30555000Y40528741D01*
X30589624Y40702812D01*
X30657544Y40866784D01*
X30756147Y41014354D01*
X30881646Y41139853D01*
X31029216Y41238456D01*
X31193188Y41306376D01*
X31342488Y41336073D01*
X31367258Y41341000D01*
X31544742Y41341000D01*
X31569512Y41336073D01*
G37*
G36*
X49349512Y41336073D02*
G01*
X49498812Y41306376D01*
X49662784Y41238456D01*
X49810354Y41139853D01*
X49935853Y41014354D01*
X50034456Y40866784D01*
X50102376Y40702812D01*
X50137000Y40528741D01*
X50137000Y40351259D01*
X50102376Y40177188D01*
X50034456Y40013216D01*
X49935853Y39865646D01*
X49810354Y39740147D01*
X49662784Y39641544D01*
X49498812Y39573624D01*
X49349512Y39543927D01*
X49324742Y39539000D01*
X49147258Y39539000D01*
X49122488Y39543927D01*
X48973188Y39573624D01*
X48809216Y39641544D01*
X48661646Y39740147D01*
X48536147Y39865646D01*
X48437544Y40013216D01*
X48369624Y40177188D01*
X48335000Y40351259D01*
X48335000Y40528741D01*
X48369624Y40702812D01*
X48437544Y40866784D01*
X48536147Y41014354D01*
X48661646Y41139853D01*
X48809216Y41238456D01*
X48973188Y41306376D01*
X49122488Y41336073D01*
X49147258Y41341000D01*
X49324742Y41341000D01*
X49349512Y41336073D01*
G37*
G36*
X46809512Y41336073D02*
G01*
X46958812Y41306376D01*
X47122784Y41238456D01*
X47270354Y41139853D01*
X47395853Y41014354D01*
X47494456Y40866784D01*
X47562376Y40702812D01*
X47597000Y40528741D01*
X47597000Y40351259D01*
X47562376Y40177188D01*
X47494456Y40013216D01*
X47395853Y39865646D01*
X47270354Y39740147D01*
X47122784Y39641544D01*
X46958812Y39573624D01*
X46809512Y39543927D01*
X46784742Y39539000D01*
X46607258Y39539000D01*
X46582488Y39543927D01*
X46433188Y39573624D01*
X46269216Y39641544D01*
X46121646Y39740147D01*
X45996147Y39865646D01*
X45897544Y40013216D01*
X45829624Y40177188D01*
X45795000Y40351259D01*
X45795000Y40528741D01*
X45829624Y40702812D01*
X45897544Y40866784D01*
X45996147Y41014354D01*
X46121646Y41139853D01*
X46269216Y41238456D01*
X46433188Y41306376D01*
X46582488Y41336073D01*
X46607258Y41341000D01*
X46784742Y41341000D01*
X46809512Y41336073D01*
G37*
G36*
X49349512Y60976073D02*
G01*
X49498812Y60946376D01*
X49662784Y60878456D01*
X49810354Y60779853D01*
X49935853Y60654354D01*
X50034456Y60506784D01*
X50102376Y60342812D01*
X50137000Y60168741D01*
X50137000Y59991259D01*
X50102376Y59817188D01*
X50034456Y59653216D01*
X49935853Y59505646D01*
X49810354Y59380147D01*
X49662784Y59281544D01*
X49498812Y59213624D01*
X49349512Y59183927D01*
X49324742Y59179000D01*
X49147258Y59179000D01*
X49122488Y59183927D01*
X48973188Y59213624D01*
X48809216Y59281544D01*
X48661646Y59380147D01*
X48536147Y59505646D01*
X48437544Y59653216D01*
X48369624Y59817188D01*
X48335000Y59991259D01*
X48335000Y60168741D01*
X48369624Y60342812D01*
X48437544Y60506784D01*
X48536147Y60654354D01*
X48661646Y60779853D01*
X48809216Y60878456D01*
X48973188Y60946376D01*
X49122488Y60976073D01*
X49147258Y60981000D01*
X49324742Y60981000D01*
X49349512Y60976073D01*
G37*
G36*
X47597000Y59179000D02*
G01*
X45795000Y59179000D01*
X45795000Y60981000D01*
X47597000Y60981000D01*
X47597000Y59179000D01*
G37*
G36*
X34109512Y60976073D02*
G01*
X34258812Y60946376D01*
X34422784Y60878456D01*
X34570354Y60779853D01*
X34695853Y60654354D01*
X34794456Y60506784D01*
X34862376Y60342812D01*
X34897000Y60168741D01*
X34897000Y59991259D01*
X34862376Y59817188D01*
X34794456Y59653216D01*
X34695853Y59505646D01*
X34570354Y59380147D01*
X34422784Y59281544D01*
X34258812Y59213624D01*
X34109512Y59183927D01*
X34084742Y59179000D01*
X33907258Y59179000D01*
X33882488Y59183927D01*
X33733188Y59213624D01*
X33569216Y59281544D01*
X33421646Y59380147D01*
X33296147Y59505646D01*
X33197544Y59653216D01*
X33129624Y59817188D01*
X33095000Y59991259D01*
X33095000Y60168741D01*
X33129624Y60342812D01*
X33197544Y60506784D01*
X33296147Y60654354D01*
X33421646Y60779853D01*
X33569216Y60878456D01*
X33733188Y60946376D01*
X33882488Y60976073D01*
X33907258Y60981000D01*
X34084742Y60981000D01*
X34109512Y60976073D01*
G37*
G36*
X32357000Y59179000D02*
G01*
X30555000Y59179000D01*
X30555000Y60981000D01*
X32357000Y60981000D01*
X32357000Y59179000D01*
G37*
G36*
X58407000Y59799000D02*
G01*
X55305000Y59799000D01*
X55305000Y62901000D01*
X58407000Y62901000D01*
X58407000Y59799000D01*
G37*
G36*
X46809512Y63516073D02*
G01*
X46958812Y63486376D01*
X47122784Y63418456D01*
X47270354Y63319853D01*
X47395853Y63194354D01*
X47494456Y63046784D01*
X47562376Y62882812D01*
X47597000Y62708741D01*
X47597000Y62531259D01*
X47562376Y62357188D01*
X47494456Y62193216D01*
X47395853Y62045646D01*
X47270354Y61920147D01*
X47122784Y61821544D01*
X46958812Y61753624D01*
X46809512Y61723927D01*
X46784742Y61719000D01*
X46607258Y61719000D01*
X46582488Y61723927D01*
X46433188Y61753624D01*
X46269216Y61821544D01*
X46121646Y61920147D01*
X45996147Y62045646D01*
X45897544Y62193216D01*
X45829624Y62357188D01*
X45795000Y62531259D01*
X45795000Y62708741D01*
X45829624Y62882812D01*
X45897544Y63046784D01*
X45996147Y63194354D01*
X46121646Y63319853D01*
X46269216Y63418456D01*
X46433188Y63486376D01*
X46582488Y63516073D01*
X46607258Y63521000D01*
X46784742Y63521000D01*
X46809512Y63516073D01*
G37*
G36*
X34109512Y63516073D02*
G01*
X34258812Y63486376D01*
X34422784Y63418456D01*
X34570354Y63319853D01*
X34695853Y63194354D01*
X34794456Y63046784D01*
X34862376Y62882812D01*
X34897000Y62708741D01*
X34897000Y62531259D01*
X34862376Y62357188D01*
X34794456Y62193216D01*
X34695853Y62045646D01*
X34570354Y61920147D01*
X34422784Y61821544D01*
X34258812Y61753624D01*
X34109512Y61723927D01*
X34084742Y61719000D01*
X33907258Y61719000D01*
X33882488Y61723927D01*
X33733188Y61753624D01*
X33569216Y61821544D01*
X33421646Y61920147D01*
X33296147Y62045646D01*
X33197544Y62193216D01*
X33129624Y62357188D01*
X33095000Y62531259D01*
X33095000Y62708741D01*
X33129624Y62882812D01*
X33197544Y63046784D01*
X33296147Y63194354D01*
X33421646Y63319853D01*
X33569216Y63418456D01*
X33733188Y63486376D01*
X33882488Y63516073D01*
X33907258Y63521000D01*
X34084742Y63521000D01*
X34109512Y63516073D01*
G37*
G36*
X31569512Y63516073D02*
G01*
X31718812Y63486376D01*
X31882784Y63418456D01*
X32030354Y63319853D01*
X32155853Y63194354D01*
X32254456Y63046784D01*
X32322376Y62882812D01*
X32357000Y62708741D01*
X32357000Y62531259D01*
X32322376Y62357188D01*
X32254456Y62193216D01*
X32155853Y62045646D01*
X32030354Y61920147D01*
X31882784Y61821544D01*
X31718812Y61753624D01*
X31569512Y61723927D01*
X31544742Y61719000D01*
X31367258Y61719000D01*
X31342488Y61723927D01*
X31193188Y61753624D01*
X31029216Y61821544D01*
X30881646Y61920147D01*
X30756147Y62045646D01*
X30657544Y62193216D01*
X30589624Y62357188D01*
X30555000Y62531259D01*
X30555000Y62708741D01*
X30589624Y62882812D01*
X30657544Y63046784D01*
X30756147Y63194354D01*
X30881646Y63319853D01*
X31029216Y63418456D01*
X31193188Y63486376D01*
X31342488Y63516073D01*
X31367258Y63521000D01*
X31544742Y63521000D01*
X31569512Y63516073D01*
G37*
G36*
X49349512Y63516073D02*
G01*
X49498812Y63486376D01*
X49662784Y63418456D01*
X49810354Y63319853D01*
X49935853Y63194354D01*
X50034456Y63046784D01*
X50102376Y62882812D01*
X50137000Y62708741D01*
X50137000Y62531259D01*
X50102376Y62357188D01*
X50034456Y62193216D01*
X49935853Y62045646D01*
X49810354Y61920147D01*
X49662784Y61821544D01*
X49498812Y61753624D01*
X49349512Y61723927D01*
X49324742Y61719000D01*
X49147258Y61719000D01*
X49122488Y61723927D01*
X48973188Y61753624D01*
X48809216Y61821544D01*
X48661646Y61920147D01*
X48536147Y62045646D01*
X48437544Y62193216D01*
X48369624Y62357188D01*
X48335000Y62531259D01*
X48335000Y62708741D01*
X48369624Y62882812D01*
X48437544Y63046784D01*
X48536147Y63194354D01*
X48661646Y63319853D01*
X48809216Y63418456D01*
X48973188Y63486376D01*
X49122488Y63516073D01*
X49147258Y63521000D01*
X49324742Y63521000D01*
X49349512Y63516073D01*
G37*
G36*
X31569512Y66056073D02*
G01*
X31718812Y66026376D01*
X31882784Y65958456D01*
X32030354Y65859853D01*
X32155853Y65734354D01*
X32254456Y65586784D01*
X32322376Y65422812D01*
X32357000Y65248741D01*
X32357000Y65071259D01*
X32322376Y64897188D01*
X32254456Y64733216D01*
X32155853Y64585646D01*
X32030354Y64460147D01*
X31882784Y64361544D01*
X31718812Y64293624D01*
X31569512Y64263927D01*
X31544742Y64259000D01*
X31367258Y64259000D01*
X31342488Y64263927D01*
X31193188Y64293624D01*
X31029216Y64361544D01*
X30881646Y64460147D01*
X30756147Y64585646D01*
X30657544Y64733216D01*
X30589624Y64897188D01*
X30555000Y65071259D01*
X30555000Y65248741D01*
X30589624Y65422812D01*
X30657544Y65586784D01*
X30756147Y65734354D01*
X30881646Y65859853D01*
X31029216Y65958456D01*
X31193188Y66026376D01*
X31342488Y66056073D01*
X31367258Y66061000D01*
X31544742Y66061000D01*
X31569512Y66056073D01*
G37*
G36*
X49349512Y66056073D02*
G01*
X49498812Y66026376D01*
X49662784Y65958456D01*
X49810354Y65859853D01*
X49935853Y65734354D01*
X50034456Y65586784D01*
X50102376Y65422812D01*
X50137000Y65248741D01*
X50137000Y65071259D01*
X50102376Y64897188D01*
X50034456Y64733216D01*
X49935853Y64585646D01*
X49810354Y64460147D01*
X49662784Y64361544D01*
X49498812Y64293624D01*
X49349512Y64263927D01*
X49324742Y64259000D01*
X49147258Y64259000D01*
X49122488Y64263927D01*
X48973188Y64293624D01*
X48809216Y64361544D01*
X48661646Y64460147D01*
X48536147Y64585646D01*
X48437544Y64733216D01*
X48369624Y64897188D01*
X48335000Y65071259D01*
X48335000Y65248741D01*
X48369624Y65422812D01*
X48437544Y65586784D01*
X48536147Y65734354D01*
X48661646Y65859853D01*
X48809216Y65958456D01*
X48973188Y66026376D01*
X49122488Y66056073D01*
X49147258Y66061000D01*
X49324742Y66061000D01*
X49349512Y66056073D01*
G37*
G36*
X46809512Y66056073D02*
G01*
X46958812Y66026376D01*
X47122784Y65958456D01*
X47270354Y65859853D01*
X47395853Y65734354D01*
X47494456Y65586784D01*
X47562376Y65422812D01*
X47597000Y65248741D01*
X47597000Y65071259D01*
X47562376Y64897188D01*
X47494456Y64733216D01*
X47395853Y64585646D01*
X47270354Y64460147D01*
X47122784Y64361544D01*
X46958812Y64293624D01*
X46809512Y64263927D01*
X46784742Y64259000D01*
X46607258Y64259000D01*
X46582488Y64263927D01*
X46433188Y64293624D01*
X46269216Y64361544D01*
X46121646Y64460147D01*
X45996147Y64585646D01*
X45897544Y64733216D01*
X45829624Y64897188D01*
X45795000Y65071259D01*
X45795000Y65248741D01*
X45829624Y65422812D01*
X45897544Y65586784D01*
X45996147Y65734354D01*
X46121646Y65859853D01*
X46269216Y65958456D01*
X46433188Y66026376D01*
X46582488Y66056073D01*
X46607258Y66061000D01*
X46784742Y66061000D01*
X46809512Y66056073D01*
G37*
G36*
X34109512Y66056073D02*
G01*
X34258812Y66026376D01*
X34422784Y65958456D01*
X34570354Y65859853D01*
X34695853Y65734354D01*
X34794456Y65586784D01*
X34862376Y65422812D01*
X34897000Y65248741D01*
X34897000Y65071259D01*
X34862376Y64897188D01*
X34794456Y64733216D01*
X34695853Y64585646D01*
X34570354Y64460147D01*
X34422784Y64361544D01*
X34258812Y64293624D01*
X34109512Y64263927D01*
X34084742Y64259000D01*
X33907258Y64259000D01*
X33882488Y64263927D01*
X33733188Y64293624D01*
X33569216Y64361544D01*
X33421646Y64460147D01*
X33296147Y64585646D01*
X33197544Y64733216D01*
X33129624Y64897188D01*
X33095000Y65071259D01*
X33095000Y65248741D01*
X33129624Y65422812D01*
X33197544Y65586784D01*
X33296147Y65734354D01*
X33421646Y65859853D01*
X33569216Y65958456D01*
X33733188Y66026376D01*
X33882488Y66056073D01*
X33907258Y66061000D01*
X34084742Y66061000D01*
X34109512Y66056073D01*
G37*
G36*
X57158585Y67951198D02*
G01*
X57308410Y67921396D01*
X57590674Y67804479D01*
X57844705Y67634741D01*
X58060741Y67418705D01*
X58230479Y67164674D01*
X58347396Y66882410D01*
X58407000Y66582760D01*
X58407000Y66277240D01*
X58347396Y65977590D01*
X58230479Y65695326D01*
X58060741Y65441295D01*
X57844705Y65225259D01*
X57590674Y65055521D01*
X57308410Y64938604D01*
X57158585Y64908802D01*
X57008761Y64879000D01*
X56703239Y64879000D01*
X56553415Y64908802D01*
X56403590Y64938604D01*
X56121326Y65055521D01*
X55867295Y65225259D01*
X55651259Y65441295D01*
X55481521Y65695326D01*
X55364604Y65977590D01*
X55305000Y66277240D01*
X55305000Y66582760D01*
X55364604Y66882410D01*
X55481521Y67164674D01*
X55651259Y67418705D01*
X55867295Y67634741D01*
X56121326Y67804479D01*
X56403590Y67921396D01*
X56553415Y67951198D01*
X56703239Y67981000D01*
X57008761Y67981000D01*
X57158585Y67951198D01*
G37*
G36*
X14297512Y67326073D02*
G01*
X14446812Y67296376D01*
X14610784Y67228456D01*
X14758354Y67129853D01*
X14883853Y67004354D01*
X14982456Y66856784D01*
X15050376Y66692812D01*
X15085000Y66518741D01*
X15085000Y66341259D01*
X15050376Y66167188D01*
X14982456Y66003216D01*
X14883853Y65855646D01*
X14758354Y65730147D01*
X14610784Y65631544D01*
X14446812Y65563624D01*
X14297512Y65533927D01*
X14272742Y65529000D01*
X14095258Y65529000D01*
X14070488Y65533927D01*
X13921188Y65563624D01*
X13757216Y65631544D01*
X13609646Y65730147D01*
X13484147Y65855646D01*
X13385544Y66003216D01*
X13317624Y66167188D01*
X13283000Y66341259D01*
X13283000Y66518741D01*
X13317624Y66692812D01*
X13385544Y66856784D01*
X13484147Y67004354D01*
X13609646Y67129853D01*
X13757216Y67228456D01*
X13921188Y67296376D01*
X14070488Y67326073D01*
X14095258Y67331000D01*
X14272742Y67331000D01*
X14297512Y67326073D01*
G37*
G36*
X11949000Y66459000D02*
G01*
X3347000Y66459000D01*
X3347000Y76561000D01*
X11949000Y76561000D01*
X11949000Y66459000D01*
G37*
G36*
X34109512Y68596073D02*
G01*
X34258812Y68566376D01*
X34422784Y68498456D01*
X34570354Y68399853D01*
X34695853Y68274354D01*
X34794456Y68126784D01*
X34862376Y67962812D01*
X34897000Y67788741D01*
X34897000Y67611259D01*
X34862376Y67437188D01*
X34794456Y67273216D01*
X34695853Y67125646D01*
X34570354Y67000147D01*
X34422784Y66901544D01*
X34258812Y66833624D01*
X34109512Y66803927D01*
X34084742Y66799000D01*
X33907258Y66799000D01*
X33882488Y66803927D01*
X33733188Y66833624D01*
X33569216Y66901544D01*
X33421646Y67000147D01*
X33296147Y67125646D01*
X33197544Y67273216D01*
X33129624Y67437188D01*
X33095000Y67611259D01*
X33095000Y67788741D01*
X33129624Y67962812D01*
X33197544Y68126784D01*
X33296147Y68274354D01*
X33421646Y68399853D01*
X33569216Y68498456D01*
X33733188Y68566376D01*
X33882488Y68596073D01*
X33907258Y68601000D01*
X34084742Y68601000D01*
X34109512Y68596073D01*
G37*
G36*
X31569512Y68596073D02*
G01*
X31718812Y68566376D01*
X31882784Y68498456D01*
X32030354Y68399853D01*
X32155853Y68274354D01*
X32254456Y68126784D01*
X32322376Y67962812D01*
X32357000Y67788741D01*
X32357000Y67611259D01*
X32322376Y67437188D01*
X32254456Y67273216D01*
X32155853Y67125646D01*
X32030354Y67000147D01*
X31882784Y66901544D01*
X31718812Y66833624D01*
X31569512Y66803927D01*
X31544742Y66799000D01*
X31367258Y66799000D01*
X31342488Y66803927D01*
X31193188Y66833624D01*
X31029216Y66901544D01*
X30881646Y67000147D01*
X30756147Y67125646D01*
X30657544Y67273216D01*
X30589624Y67437188D01*
X30555000Y67611259D01*
X30555000Y67788741D01*
X30589624Y67962812D01*
X30657544Y68126784D01*
X30756147Y68274354D01*
X30881646Y68399853D01*
X31029216Y68498456D01*
X31193188Y68566376D01*
X31342488Y68596073D01*
X31367258Y68601000D01*
X31544742Y68601000D01*
X31569512Y68596073D01*
G37*
G36*
X46809512Y68596073D02*
G01*
X46958812Y68566376D01*
X47122784Y68498456D01*
X47270354Y68399853D01*
X47395853Y68274354D01*
X47494456Y68126784D01*
X47562376Y67962812D01*
X47597000Y67788741D01*
X47597000Y67611259D01*
X47562376Y67437188D01*
X47494456Y67273216D01*
X47395853Y67125646D01*
X47270354Y67000147D01*
X47122784Y66901544D01*
X46958812Y66833624D01*
X46809512Y66803927D01*
X46784742Y66799000D01*
X46607258Y66799000D01*
X46582488Y66803927D01*
X46433188Y66833624D01*
X46269216Y66901544D01*
X46121646Y67000147D01*
X45996147Y67125646D01*
X45897544Y67273216D01*
X45829624Y67437188D01*
X45795000Y67611259D01*
X45795000Y67788741D01*
X45829624Y67962812D01*
X45897544Y68126784D01*
X45996147Y68274354D01*
X46121646Y68399853D01*
X46269216Y68498456D01*
X46433188Y68566376D01*
X46582488Y68596073D01*
X46607258Y68601000D01*
X46784742Y68601000D01*
X46809512Y68596073D01*
G37*
G36*
X49349512Y68596073D02*
G01*
X49498812Y68566376D01*
X49662784Y68498456D01*
X49810354Y68399853D01*
X49935853Y68274354D01*
X50034456Y68126784D01*
X50102376Y67962812D01*
X50137000Y67788741D01*
X50137000Y67611259D01*
X50102376Y67437188D01*
X50034456Y67273216D01*
X49935853Y67125646D01*
X49810354Y67000147D01*
X49662784Y66901544D01*
X49498812Y66833624D01*
X49349512Y66803927D01*
X49324742Y66799000D01*
X49147258Y66799000D01*
X49122488Y66803927D01*
X48973188Y66833624D01*
X48809216Y66901544D01*
X48661646Y67000147D01*
X48536147Y67125646D01*
X48437544Y67273216D01*
X48369624Y67437188D01*
X48335000Y67611259D01*
X48335000Y67788741D01*
X48369624Y67962812D01*
X48437544Y68126784D01*
X48536147Y68274354D01*
X48661646Y68399853D01*
X48809216Y68498456D01*
X48973188Y68566376D01*
X49122488Y68596073D01*
X49147258Y68601000D01*
X49324742Y68601000D01*
X49349512Y68596073D01*
G37*
G36*
X14297512Y69866073D02*
G01*
X14446812Y69836376D01*
X14610784Y69768456D01*
X14758354Y69669853D01*
X14883853Y69544354D01*
X14982456Y69396784D01*
X15050376Y69232812D01*
X15085000Y69058741D01*
X15085000Y68881259D01*
X15050376Y68707188D01*
X14982456Y68543216D01*
X14883853Y68395646D01*
X14758354Y68270147D01*
X14610784Y68171544D01*
X14446812Y68103624D01*
X14297512Y68073927D01*
X14272742Y68069000D01*
X14095258Y68069000D01*
X14070488Y68073927D01*
X13921188Y68103624D01*
X13757216Y68171544D01*
X13609646Y68270147D01*
X13484147Y68395646D01*
X13385544Y68543216D01*
X13317624Y68707188D01*
X13283000Y68881259D01*
X13283000Y69058741D01*
X13317624Y69232812D01*
X13385544Y69396784D01*
X13484147Y69544354D01*
X13609646Y69669853D01*
X13757216Y69768456D01*
X13921188Y69836376D01*
X14070488Y69866073D01*
X14095258Y69871000D01*
X14272742Y69871000D01*
X14297512Y69866073D01*
G37*
G36*
X31569512Y71136073D02*
G01*
X31718812Y71106376D01*
X31882784Y71038456D01*
X32030354Y70939853D01*
X32155853Y70814354D01*
X32254456Y70666784D01*
X32322376Y70502812D01*
X32357000Y70328741D01*
X32357000Y70151259D01*
X32322376Y69977188D01*
X32254456Y69813216D01*
X32155853Y69665646D01*
X32030354Y69540147D01*
X31882784Y69441544D01*
X31718812Y69373624D01*
X31569512Y69343927D01*
X31544742Y69339000D01*
X31367258Y69339000D01*
X31342488Y69343927D01*
X31193188Y69373624D01*
X31029216Y69441544D01*
X30881646Y69540147D01*
X30756147Y69665646D01*
X30657544Y69813216D01*
X30589624Y69977188D01*
X30555000Y70151259D01*
X30555000Y70328741D01*
X30589624Y70502812D01*
X30657544Y70666784D01*
X30756147Y70814354D01*
X30881646Y70939853D01*
X31029216Y71038456D01*
X31193188Y71106376D01*
X31342488Y71136073D01*
X31367258Y71141000D01*
X31544742Y71141000D01*
X31569512Y71136073D01*
G37*
G36*
X34109512Y71136073D02*
G01*
X34258812Y71106376D01*
X34422784Y71038456D01*
X34570354Y70939853D01*
X34695853Y70814354D01*
X34794456Y70666784D01*
X34862376Y70502812D01*
X34897000Y70328741D01*
X34897000Y70151259D01*
X34862376Y69977188D01*
X34794456Y69813216D01*
X34695853Y69665646D01*
X34570354Y69540147D01*
X34422784Y69441544D01*
X34258812Y69373624D01*
X34109512Y69343927D01*
X34084742Y69339000D01*
X33907258Y69339000D01*
X33882488Y69343927D01*
X33733188Y69373624D01*
X33569216Y69441544D01*
X33421646Y69540147D01*
X33296147Y69665646D01*
X33197544Y69813216D01*
X33129624Y69977188D01*
X33095000Y70151259D01*
X33095000Y70328741D01*
X33129624Y70502812D01*
X33197544Y70666784D01*
X33296147Y70814354D01*
X33421646Y70939853D01*
X33569216Y71038456D01*
X33733188Y71106376D01*
X33882488Y71136073D01*
X33907258Y71141000D01*
X34084742Y71141000D01*
X34109512Y71136073D01*
G37*
G36*
X46809512Y71136073D02*
G01*
X46958812Y71106376D01*
X47122784Y71038456D01*
X47270354Y70939853D01*
X47395853Y70814354D01*
X47494456Y70666784D01*
X47562376Y70502812D01*
X47597000Y70328741D01*
X47597000Y70151259D01*
X47562376Y69977188D01*
X47494456Y69813216D01*
X47395853Y69665646D01*
X47270354Y69540147D01*
X47122784Y69441544D01*
X46958812Y69373624D01*
X46809512Y69343927D01*
X46784742Y69339000D01*
X46607258Y69339000D01*
X46582488Y69343927D01*
X46433188Y69373624D01*
X46269216Y69441544D01*
X46121646Y69540147D01*
X45996147Y69665646D01*
X45897544Y69813216D01*
X45829624Y69977188D01*
X45795000Y70151259D01*
X45795000Y70328741D01*
X45829624Y70502812D01*
X45897544Y70666784D01*
X45996147Y70814354D01*
X46121646Y70939853D01*
X46269216Y71038456D01*
X46433188Y71106376D01*
X46582488Y71136073D01*
X46607258Y71141000D01*
X46784742Y71141000D01*
X46809512Y71136073D01*
G37*
G36*
X49349512Y71136073D02*
G01*
X49498812Y71106376D01*
X49662784Y71038456D01*
X49810354Y70939853D01*
X49935853Y70814354D01*
X50034456Y70666784D01*
X50102376Y70502812D01*
X50137000Y70328741D01*
X50137000Y70151259D01*
X50102376Y69977188D01*
X50034456Y69813216D01*
X49935853Y69665646D01*
X49810354Y69540147D01*
X49662784Y69441544D01*
X49498812Y69373624D01*
X49349512Y69343927D01*
X49324742Y69339000D01*
X49147258Y69339000D01*
X49122488Y69343927D01*
X48973188Y69373624D01*
X48809216Y69441544D01*
X48661646Y69540147D01*
X48536147Y69665646D01*
X48437544Y69813216D01*
X48369624Y69977188D01*
X48335000Y70151259D01*
X48335000Y70328741D01*
X48369624Y70502812D01*
X48437544Y70666784D01*
X48536147Y70814354D01*
X48661646Y70939853D01*
X48809216Y71038456D01*
X48973188Y71106376D01*
X49122488Y71136073D01*
X49147258Y71141000D01*
X49324742Y71141000D01*
X49349512Y71136073D01*
G37*
G36*
X57158585Y73031198D02*
G01*
X57308410Y73001396D01*
X57590674Y72884479D01*
X57844705Y72714741D01*
X58060741Y72498705D01*
X58230479Y72244674D01*
X58347396Y71962410D01*
X58407000Y71662760D01*
X58407000Y71357240D01*
X58347396Y71057590D01*
X58230479Y70775326D01*
X58060741Y70521295D01*
X57844705Y70305259D01*
X57590674Y70135521D01*
X57308410Y70018604D01*
X57158585Y69988802D01*
X57008761Y69959000D01*
X56703239Y69959000D01*
X56553415Y69988802D01*
X56403590Y70018604D01*
X56121326Y70135521D01*
X55867295Y70305259D01*
X55651259Y70521295D01*
X55481521Y70775326D01*
X55364604Y71057590D01*
X55305000Y71357240D01*
X55305000Y71662760D01*
X55364604Y71962410D01*
X55481521Y72244674D01*
X55651259Y72498705D01*
X55867295Y72714741D01*
X56121326Y72884479D01*
X56403590Y73001396D01*
X56553415Y73031198D01*
X56703239Y73061000D01*
X57008761Y73061000D01*
X57158585Y73031198D01*
G37*
G36*
X14297512Y72406073D02*
G01*
X14446812Y72376376D01*
X14610784Y72308456D01*
X14758354Y72209853D01*
X14883853Y72084354D01*
X14982456Y71936784D01*
X15050376Y71772812D01*
X15085000Y71598741D01*
X15085000Y71421259D01*
X15050376Y71247188D01*
X14982456Y71083216D01*
X14883853Y70935646D01*
X14758354Y70810147D01*
X14610784Y70711544D01*
X14446812Y70643624D01*
X14297512Y70613927D01*
X14272742Y70609000D01*
X14095258Y70609000D01*
X14070488Y70613927D01*
X13921188Y70643624D01*
X13757216Y70711544D01*
X13609646Y70810147D01*
X13484147Y70935646D01*
X13385544Y71083216D01*
X13317624Y71247188D01*
X13283000Y71421259D01*
X13283000Y71598741D01*
X13317624Y71772812D01*
X13385544Y71936784D01*
X13484147Y72084354D01*
X13609646Y72209853D01*
X13757216Y72308456D01*
X13921188Y72376376D01*
X14070488Y72406073D01*
X14095258Y72411000D01*
X14272742Y72411000D01*
X14297512Y72406073D01*
G37*
G36*
X49349512Y73676073D02*
G01*
X49498812Y73646376D01*
X49662784Y73578456D01*
X49810354Y73479853D01*
X49935853Y73354354D01*
X50034456Y73206784D01*
X50102376Y73042812D01*
X50137000Y72868741D01*
X50137000Y72691259D01*
X50102376Y72517188D01*
X50034456Y72353216D01*
X49935853Y72205646D01*
X49810354Y72080147D01*
X49662784Y71981544D01*
X49498812Y71913624D01*
X49349512Y71883927D01*
X49324742Y71879000D01*
X49147258Y71879000D01*
X49122488Y71883927D01*
X48973188Y71913624D01*
X48809216Y71981544D01*
X48661646Y72080147D01*
X48536147Y72205646D01*
X48437544Y72353216D01*
X48369624Y72517188D01*
X48335000Y72691259D01*
X48335000Y72868741D01*
X48369624Y73042812D01*
X48437544Y73206784D01*
X48536147Y73354354D01*
X48661646Y73479853D01*
X48809216Y73578456D01*
X48973188Y73646376D01*
X49122488Y73676073D01*
X49147258Y73681000D01*
X49324742Y73681000D01*
X49349512Y73676073D01*
G37*
G36*
X31569512Y73676073D02*
G01*
X31718812Y73646376D01*
X31882784Y73578456D01*
X32030354Y73479853D01*
X32155853Y73354354D01*
X32254456Y73206784D01*
X32322376Y73042812D01*
X32357000Y72868741D01*
X32357000Y72691259D01*
X32322376Y72517188D01*
X32254456Y72353216D01*
X32155853Y72205646D01*
X32030354Y72080147D01*
X31882784Y71981544D01*
X31718812Y71913624D01*
X31569512Y71883927D01*
X31544742Y71879000D01*
X31367258Y71879000D01*
X31342488Y71883927D01*
X31193188Y71913624D01*
X31029216Y71981544D01*
X30881646Y72080147D01*
X30756147Y72205646D01*
X30657544Y72353216D01*
X30589624Y72517188D01*
X30555000Y72691259D01*
X30555000Y72868741D01*
X30589624Y73042812D01*
X30657544Y73206784D01*
X30756147Y73354354D01*
X30881646Y73479853D01*
X31029216Y73578456D01*
X31193188Y73646376D01*
X31342488Y73676073D01*
X31367258Y73681000D01*
X31544742Y73681000D01*
X31569512Y73676073D01*
G37*
G36*
X46809512Y73676073D02*
G01*
X46958812Y73646376D01*
X47122784Y73578456D01*
X47270354Y73479853D01*
X47395853Y73354354D01*
X47494456Y73206784D01*
X47562376Y73042812D01*
X47597000Y72868741D01*
X47597000Y72691259D01*
X47562376Y72517188D01*
X47494456Y72353216D01*
X47395853Y72205646D01*
X47270354Y72080147D01*
X47122784Y71981544D01*
X46958812Y71913624D01*
X46809512Y71883927D01*
X46784742Y71879000D01*
X46607258Y71879000D01*
X46582488Y71883927D01*
X46433188Y71913624D01*
X46269216Y71981544D01*
X46121646Y72080147D01*
X45996147Y72205646D01*
X45897544Y72353216D01*
X45829624Y72517188D01*
X45795000Y72691259D01*
X45795000Y72868741D01*
X45829624Y73042812D01*
X45897544Y73206784D01*
X45996147Y73354354D01*
X46121646Y73479853D01*
X46269216Y73578456D01*
X46433188Y73646376D01*
X46582488Y73676073D01*
X46607258Y73681000D01*
X46784742Y73681000D01*
X46809512Y73676073D01*
G37*
G36*
X34109512Y73676073D02*
G01*
X34258812Y73646376D01*
X34422784Y73578456D01*
X34570354Y73479853D01*
X34695853Y73354354D01*
X34794456Y73206784D01*
X34862376Y73042812D01*
X34897000Y72868741D01*
X34897000Y72691259D01*
X34862376Y72517188D01*
X34794456Y72353216D01*
X34695853Y72205646D01*
X34570354Y72080147D01*
X34422784Y71981544D01*
X34258812Y71913624D01*
X34109512Y71883927D01*
X34084742Y71879000D01*
X33907258Y71879000D01*
X33882488Y71883927D01*
X33733188Y71913624D01*
X33569216Y71981544D01*
X33421646Y72080147D01*
X33296147Y72205646D01*
X33197544Y72353216D01*
X33129624Y72517188D01*
X33095000Y72691259D01*
X33095000Y72868741D01*
X33129624Y73042812D01*
X33197544Y73206784D01*
X33296147Y73354354D01*
X33421646Y73479853D01*
X33569216Y73578456D01*
X33733188Y73646376D01*
X33882488Y73676073D01*
X33907258Y73681000D01*
X34084742Y73681000D01*
X34109512Y73676073D01*
G37*
G36*
X14297512Y74946073D02*
G01*
X14446812Y74916376D01*
X14610784Y74848456D01*
X14758354Y74749853D01*
X14883853Y74624354D01*
X14982456Y74476784D01*
X15050376Y74312812D01*
X15085000Y74138741D01*
X15085000Y73961259D01*
X15050376Y73787188D01*
X14982456Y73623216D01*
X14883853Y73475646D01*
X14758354Y73350147D01*
X14610784Y73251544D01*
X14446812Y73183624D01*
X14297512Y73153927D01*
X14272742Y73149000D01*
X14095258Y73149000D01*
X14070488Y73153927D01*
X13921188Y73183624D01*
X13757216Y73251544D01*
X13609646Y73350147D01*
X13484147Y73475646D01*
X13385544Y73623216D01*
X13317624Y73787188D01*
X13283000Y73961259D01*
X13283000Y74138741D01*
X13317624Y74312812D01*
X13385544Y74476784D01*
X13484147Y74624354D01*
X13609646Y74749853D01*
X13757216Y74848456D01*
X13921188Y74916376D01*
X14070488Y74946073D01*
X14095258Y74951000D01*
X14272742Y74951000D01*
X14297512Y74946073D01*
G37*
G36*
X31569512Y76216073D02*
G01*
X31718812Y76186376D01*
X31882784Y76118456D01*
X32030354Y76019853D01*
X32155853Y75894354D01*
X32254456Y75746784D01*
X32322376Y75582812D01*
X32357000Y75408741D01*
X32357000Y75231259D01*
X32322376Y75057188D01*
X32254456Y74893216D01*
X32155853Y74745646D01*
X32030354Y74620147D01*
X31882784Y74521544D01*
X31718812Y74453624D01*
X31569512Y74423927D01*
X31544742Y74419000D01*
X31367258Y74419000D01*
X31342488Y74423927D01*
X31193188Y74453624D01*
X31029216Y74521544D01*
X30881646Y74620147D01*
X30756147Y74745646D01*
X30657544Y74893216D01*
X30589624Y75057188D01*
X30555000Y75231259D01*
X30555000Y75408741D01*
X30589624Y75582812D01*
X30657544Y75746784D01*
X30756147Y75894354D01*
X30881646Y76019853D01*
X31029216Y76118456D01*
X31193188Y76186376D01*
X31342488Y76216073D01*
X31367258Y76221000D01*
X31544742Y76221000D01*
X31569512Y76216073D01*
G37*
G36*
X34109512Y76216073D02*
G01*
X34258812Y76186376D01*
X34422784Y76118456D01*
X34570354Y76019853D01*
X34695853Y75894354D01*
X34794456Y75746784D01*
X34862376Y75582812D01*
X34897000Y75408741D01*
X34897000Y75231259D01*
X34862376Y75057188D01*
X34794456Y74893216D01*
X34695853Y74745646D01*
X34570354Y74620147D01*
X34422784Y74521544D01*
X34258812Y74453624D01*
X34109512Y74423927D01*
X34084742Y74419000D01*
X33907258Y74419000D01*
X33882488Y74423927D01*
X33733188Y74453624D01*
X33569216Y74521544D01*
X33421646Y74620147D01*
X33296147Y74745646D01*
X33197544Y74893216D01*
X33129624Y75057188D01*
X33095000Y75231259D01*
X33095000Y75408741D01*
X33129624Y75582812D01*
X33197544Y75746784D01*
X33296147Y75894354D01*
X33421646Y76019853D01*
X33569216Y76118456D01*
X33733188Y76186376D01*
X33882488Y76216073D01*
X33907258Y76221000D01*
X34084742Y76221000D01*
X34109512Y76216073D01*
G37*
G36*
X46809512Y76216073D02*
G01*
X46958812Y76186376D01*
X47122784Y76118456D01*
X47270354Y76019853D01*
X47395853Y75894354D01*
X47494456Y75746784D01*
X47562376Y75582812D01*
X47597000Y75408741D01*
X47597000Y75231259D01*
X47562376Y75057188D01*
X47494456Y74893216D01*
X47395853Y74745646D01*
X47270354Y74620147D01*
X47122784Y74521544D01*
X46958812Y74453624D01*
X46809512Y74423927D01*
X46784742Y74419000D01*
X46607258Y74419000D01*
X46582488Y74423927D01*
X46433188Y74453624D01*
X46269216Y74521544D01*
X46121646Y74620147D01*
X45996147Y74745646D01*
X45897544Y74893216D01*
X45829624Y75057188D01*
X45795000Y75231259D01*
X45795000Y75408741D01*
X45829624Y75582812D01*
X45897544Y75746784D01*
X45996147Y75894354D01*
X46121646Y76019853D01*
X46269216Y76118456D01*
X46433188Y76186376D01*
X46582488Y76216073D01*
X46607258Y76221000D01*
X46784742Y76221000D01*
X46809512Y76216073D01*
G37*
G36*
X49349512Y76216073D02*
G01*
X49498812Y76186376D01*
X49662784Y76118456D01*
X49810354Y76019853D01*
X49935853Y75894354D01*
X50034456Y75746784D01*
X50102376Y75582812D01*
X50137000Y75408741D01*
X50137000Y75231259D01*
X50102376Y75057188D01*
X50034456Y74893216D01*
X49935853Y74745646D01*
X49810354Y74620147D01*
X49662784Y74521544D01*
X49498812Y74453624D01*
X49349512Y74423927D01*
X49324742Y74419000D01*
X49147258Y74419000D01*
X49122488Y74423927D01*
X48973188Y74453624D01*
X48809216Y74521544D01*
X48661646Y74620147D01*
X48536147Y74745646D01*
X48437544Y74893216D01*
X48369624Y75057188D01*
X48335000Y75231259D01*
X48335000Y75408741D01*
X48369624Y75582812D01*
X48437544Y75746784D01*
X48536147Y75894354D01*
X48661646Y76019853D01*
X48809216Y76118456D01*
X48973188Y76186376D01*
X49122488Y76216073D01*
X49147258Y76221000D01*
X49324742Y76221000D01*
X49349512Y76216073D01*
G37*
G36*
X57158585Y78111198D02*
G01*
X57308410Y78081396D01*
X57590674Y77964479D01*
X57844705Y77794741D01*
X58060741Y77578705D01*
X58230479Y77324674D01*
X58347396Y77042410D01*
X58407000Y76742760D01*
X58407000Y76437240D01*
X58347396Y76137590D01*
X58230479Y75855326D01*
X58060741Y75601295D01*
X57844705Y75385259D01*
X57590674Y75215521D01*
X57308410Y75098604D01*
X57158585Y75068802D01*
X57008761Y75039000D01*
X56703239Y75039000D01*
X56553415Y75068802D01*
X56403590Y75098604D01*
X56121326Y75215521D01*
X55867295Y75385259D01*
X55651259Y75601295D01*
X55481521Y75855326D01*
X55364604Y76137590D01*
X55305000Y76437240D01*
X55305000Y76742760D01*
X55364604Y77042410D01*
X55481521Y77324674D01*
X55651259Y77578705D01*
X55867295Y77794741D01*
X56121326Y77964479D01*
X56403590Y78081396D01*
X56553415Y78111198D01*
X56703239Y78141000D01*
X57008761Y78141000D01*
X57158585Y78111198D01*
G37*
G36*
X15085000Y75689000D02*
G01*
X13283000Y75689000D01*
X13283000Y77491000D01*
X15085000Y77491000D01*
X15085000Y75689000D01*
G37*
G36*
X49349512Y78756073D02*
G01*
X49498812Y78726376D01*
X49662784Y78658456D01*
X49810354Y78559853D01*
X49935853Y78434354D01*
X50034456Y78286784D01*
X50102376Y78122812D01*
X50137000Y77948741D01*
X50137000Y77771259D01*
X50102376Y77597188D01*
X50034456Y77433216D01*
X49935853Y77285646D01*
X49810354Y77160147D01*
X49662784Y77061544D01*
X49498812Y76993624D01*
X49349512Y76963927D01*
X49324742Y76959000D01*
X49147258Y76959000D01*
X49122488Y76963927D01*
X48973188Y76993624D01*
X48809216Y77061544D01*
X48661646Y77160147D01*
X48536147Y77285646D01*
X48437544Y77433216D01*
X48369624Y77597188D01*
X48335000Y77771259D01*
X48335000Y77948741D01*
X48369624Y78122812D01*
X48437544Y78286784D01*
X48536147Y78434354D01*
X48661646Y78559853D01*
X48809216Y78658456D01*
X48973188Y78726376D01*
X49122488Y78756073D01*
X49147258Y78761000D01*
X49324742Y78761000D01*
X49349512Y78756073D01*
G37*
G36*
X46809512Y78756073D02*
G01*
X46958812Y78726376D01*
X47122784Y78658456D01*
X47270354Y78559853D01*
X47395853Y78434354D01*
X47494456Y78286784D01*
X47562376Y78122812D01*
X47597000Y77948741D01*
X47597000Y77771259D01*
X47562376Y77597188D01*
X47494456Y77433216D01*
X47395853Y77285646D01*
X47270354Y77160147D01*
X47122784Y77061544D01*
X46958812Y76993624D01*
X46809512Y76963927D01*
X46784742Y76959000D01*
X46607258Y76959000D01*
X46582488Y76963927D01*
X46433188Y76993624D01*
X46269216Y77061544D01*
X46121646Y77160147D01*
X45996147Y77285646D01*
X45897544Y77433216D01*
X45829624Y77597188D01*
X45795000Y77771259D01*
X45795000Y77948741D01*
X45829624Y78122812D01*
X45897544Y78286784D01*
X45996147Y78434354D01*
X46121646Y78559853D01*
X46269216Y78658456D01*
X46433188Y78726376D01*
X46582488Y78756073D01*
X46607258Y78761000D01*
X46784742Y78761000D01*
X46809512Y78756073D01*
G37*
G36*
X31569512Y78756073D02*
G01*
X31718812Y78726376D01*
X31882784Y78658456D01*
X32030354Y78559853D01*
X32155853Y78434354D01*
X32254456Y78286784D01*
X32322376Y78122812D01*
X32357000Y77948741D01*
X32357000Y77771259D01*
X32322376Y77597188D01*
X32254456Y77433216D01*
X32155853Y77285646D01*
X32030354Y77160147D01*
X31882784Y77061544D01*
X31718812Y76993624D01*
X31569512Y76963927D01*
X31544742Y76959000D01*
X31367258Y76959000D01*
X31342488Y76963927D01*
X31193188Y76993624D01*
X31029216Y77061544D01*
X30881646Y77160147D01*
X30756147Y77285646D01*
X30657544Y77433216D01*
X30589624Y77597188D01*
X30555000Y77771259D01*
X30555000Y77948741D01*
X30589624Y78122812D01*
X30657544Y78286784D01*
X30756147Y78434354D01*
X30881646Y78559853D01*
X31029216Y78658456D01*
X31193188Y78726376D01*
X31342488Y78756073D01*
X31367258Y78761000D01*
X31544742Y78761000D01*
X31569512Y78756073D01*
G37*
G36*
X34109512Y78756073D02*
G01*
X34258812Y78726376D01*
X34422784Y78658456D01*
X34570354Y78559853D01*
X34695853Y78434354D01*
X34794456Y78286784D01*
X34862376Y78122812D01*
X34897000Y77948741D01*
X34897000Y77771259D01*
X34862376Y77597188D01*
X34794456Y77433216D01*
X34695853Y77285646D01*
X34570354Y77160147D01*
X34422784Y77061544D01*
X34258812Y76993624D01*
X34109512Y76963927D01*
X34084742Y76959000D01*
X33907258Y76959000D01*
X33882488Y76963927D01*
X33733188Y76993624D01*
X33569216Y77061544D01*
X33421646Y77160147D01*
X33296147Y77285646D01*
X33197544Y77433216D01*
X33129624Y77597188D01*
X33095000Y77771259D01*
X33095000Y77948741D01*
X33129624Y78122812D01*
X33197544Y78286784D01*
X33296147Y78434354D01*
X33421646Y78559853D01*
X33569216Y78658456D01*
X33733188Y78726376D01*
X33882488Y78756073D01*
X33907258Y78761000D01*
X34084742Y78761000D01*
X34109512Y78756073D01*
G37*
G36*
X46809512Y81296073D02*
G01*
X46958812Y81266376D01*
X47122784Y81198456D01*
X47270354Y81099853D01*
X47395853Y80974354D01*
X47494456Y80826784D01*
X47562376Y80662812D01*
X47597000Y80488741D01*
X47597000Y80311259D01*
X47562376Y80137188D01*
X47494456Y79973216D01*
X47395853Y79825646D01*
X47270354Y79700147D01*
X47122784Y79601544D01*
X46958812Y79533624D01*
X46809512Y79503927D01*
X46784742Y79499000D01*
X46607258Y79499000D01*
X46582488Y79503927D01*
X46433188Y79533624D01*
X46269216Y79601544D01*
X46121646Y79700147D01*
X45996147Y79825646D01*
X45897544Y79973216D01*
X45829624Y80137188D01*
X45795000Y80311259D01*
X45795000Y80488741D01*
X45829624Y80662812D01*
X45897544Y80826784D01*
X45996147Y80974354D01*
X46121646Y81099853D01*
X46269216Y81198456D01*
X46433188Y81266376D01*
X46582488Y81296073D01*
X46607258Y81301000D01*
X46784742Y81301000D01*
X46809512Y81296073D01*
G37*
G36*
X31569512Y81296073D02*
G01*
X31718812Y81266376D01*
X31882784Y81198456D01*
X32030354Y81099853D01*
X32155853Y80974354D01*
X32254456Y80826784D01*
X32322376Y80662812D01*
X32357000Y80488741D01*
X32357000Y80311259D01*
X32322376Y80137188D01*
X32254456Y79973216D01*
X32155853Y79825646D01*
X32030354Y79700147D01*
X31882784Y79601544D01*
X31718812Y79533624D01*
X31569512Y79503927D01*
X31544742Y79499000D01*
X31367258Y79499000D01*
X31342488Y79503927D01*
X31193188Y79533624D01*
X31029216Y79601544D01*
X30881646Y79700147D01*
X30756147Y79825646D01*
X30657544Y79973216D01*
X30589624Y80137188D01*
X30555000Y80311259D01*
X30555000Y80488741D01*
X30589624Y80662812D01*
X30657544Y80826784D01*
X30756147Y80974354D01*
X30881646Y81099853D01*
X31029216Y81198456D01*
X31193188Y81266376D01*
X31342488Y81296073D01*
X31367258Y81301000D01*
X31544742Y81301000D01*
X31569512Y81296073D01*
G37*
G36*
X49349512Y81296073D02*
G01*
X49498812Y81266376D01*
X49662784Y81198456D01*
X49810354Y81099853D01*
X49935853Y80974354D01*
X50034456Y80826784D01*
X50102376Y80662812D01*
X50137000Y80488741D01*
X50137000Y80311259D01*
X50102376Y80137188D01*
X50034456Y79973216D01*
X49935853Y79825646D01*
X49810354Y79700147D01*
X49662784Y79601544D01*
X49498812Y79533624D01*
X49349512Y79503927D01*
X49324742Y79499000D01*
X49147258Y79499000D01*
X49122488Y79503927D01*
X48973188Y79533624D01*
X48809216Y79601544D01*
X48661646Y79700147D01*
X48536147Y79825646D01*
X48437544Y79973216D01*
X48369624Y80137188D01*
X48335000Y80311259D01*
X48335000Y80488741D01*
X48369624Y80662812D01*
X48437544Y80826784D01*
X48536147Y80974354D01*
X48661646Y81099853D01*
X48809216Y81198456D01*
X48973188Y81266376D01*
X49122488Y81296073D01*
X49147258Y81301000D01*
X49324742Y81301000D01*
X49349512Y81296073D01*
G37*
G36*
X34109512Y81296073D02*
G01*
X34258812Y81266376D01*
X34422784Y81198456D01*
X34570354Y81099853D01*
X34695853Y80974354D01*
X34794456Y80826784D01*
X34862376Y80662812D01*
X34897000Y80488741D01*
X34897000Y80311259D01*
X34862376Y80137188D01*
X34794456Y79973216D01*
X34695853Y79825646D01*
X34570354Y79700147D01*
X34422784Y79601544D01*
X34258812Y79533624D01*
X34109512Y79503927D01*
X34084742Y79499000D01*
X33907258Y79499000D01*
X33882488Y79503927D01*
X33733188Y79533624D01*
X33569216Y79601544D01*
X33421646Y79700147D01*
X33296147Y79825646D01*
X33197544Y79973216D01*
X33129624Y80137188D01*
X33095000Y80311259D01*
X33095000Y80488741D01*
X33129624Y80662812D01*
X33197544Y80826784D01*
X33296147Y80974354D01*
X33421646Y81099853D01*
X33569216Y81198456D01*
X33733188Y81266376D01*
X33882488Y81296073D01*
X33907258Y81301000D01*
X34084742Y81301000D01*
X34109512Y81296073D01*
G37*
G36*
X57103179Y83202219D02*
G01*
X57308410Y83161396D01*
X57590674Y83044479D01*
X57844705Y82874741D01*
X58060741Y82658705D01*
X58230479Y82404674D01*
X58347396Y82122410D01*
X58407000Y81822760D01*
X58407000Y81517240D01*
X58347396Y81217590D01*
X58230479Y80935326D01*
X58060741Y80681295D01*
X57844705Y80465259D01*
X57590674Y80295521D01*
X57308410Y80178604D01*
X57158585Y80148802D01*
X57008761Y80119000D01*
X56703239Y80119000D01*
X56553415Y80148802D01*
X56403590Y80178604D01*
X56121326Y80295521D01*
X55867295Y80465259D01*
X55651259Y80681295D01*
X55481521Y80935326D01*
X55364604Y81217590D01*
X55305000Y81517240D01*
X55305000Y81822760D01*
X55364604Y82122410D01*
X55481521Y82404674D01*
X55651259Y82658705D01*
X55867295Y82874741D01*
X56121326Y83044479D01*
X56403590Y83161396D01*
X56608821Y83202219D01*
X56703239Y83221000D01*
X57008761Y83221000D01*
X57103179Y83202219D01*
G37*
G36*
X16957642Y83202219D02*
G01*
X17103414Y83141838D01*
X17103416Y83141837D01*
X17234608Y83054178D01*
X17346178Y82942608D01*
X17433837Y82811416D01*
X17433838Y82811414D01*
X17494219Y82665642D01*
X17525000Y82510893D01*
X17525000Y82353107D01*
X17494219Y82198358D01*
X17442552Y82073624D01*
X17433837Y82052584D01*
X17346178Y81921392D01*
X17234608Y81809822D01*
X17103416Y81722163D01*
X17103415Y81722162D01*
X17103414Y81722162D01*
X16957642Y81661781D01*
X16802893Y81631000D01*
X16645107Y81631000D01*
X16490358Y81661781D01*
X16344586Y81722162D01*
X16344585Y81722162D01*
X16344584Y81722163D01*
X16213392Y81809822D01*
X16101822Y81921392D01*
X16014163Y82052584D01*
X16005448Y82073624D01*
X15953781Y82198358D01*
X15923000Y82353107D01*
X15923000Y82510893D01*
X15953781Y82665642D01*
X16014162Y82811414D01*
X16014163Y82811416D01*
X16101822Y82942608D01*
X16213392Y83054178D01*
X16344584Y83141837D01*
X16344586Y83141838D01*
X16490358Y83202219D01*
X16645107Y83233000D01*
X16802893Y83233000D01*
X16957642Y83202219D01*
G37*
G36*
X21837642Y83202219D02*
G01*
X21983414Y83141838D01*
X21983416Y83141837D01*
X22114608Y83054178D01*
X22226178Y82942608D01*
X22313837Y82811416D01*
X22313838Y82811414D01*
X22374219Y82665642D01*
X22405000Y82510893D01*
X22405000Y82353107D01*
X22374219Y82198358D01*
X22322552Y82073624D01*
X22313837Y82052584D01*
X22226178Y81921392D01*
X22114608Y81809822D01*
X21983416Y81722163D01*
X21983415Y81722162D01*
X21983414Y81722162D01*
X21837642Y81661781D01*
X21682893Y81631000D01*
X21525107Y81631000D01*
X21370358Y81661781D01*
X21224586Y81722162D01*
X21224585Y81722162D01*
X21224584Y81722163D01*
X21093392Y81809822D01*
X20981822Y81921392D01*
X20894163Y82052584D01*
X20885448Y82073624D01*
X20833781Y82198358D01*
X20803000Y82353107D01*
X20803000Y82510893D01*
X20833781Y82665642D01*
X20894162Y82811414D01*
X20894163Y82811416D01*
X20981822Y82942608D01*
X21093392Y83054178D01*
X21224584Y83141837D01*
X21224586Y83141838D01*
X21370358Y83202219D01*
X21525107Y83233000D01*
X21682893Y83233000D01*
X21837642Y83202219D01*
G37*
G36*
X31569512Y83836073D02*
G01*
X31718812Y83806376D01*
X31882784Y83738456D01*
X32030354Y83639853D01*
X32155853Y83514354D01*
X32254456Y83366784D01*
X32322376Y83202812D01*
X32357000Y83028741D01*
X32357000Y82851259D01*
X32322376Y82677188D01*
X32254456Y82513216D01*
X32155853Y82365646D01*
X32030354Y82240147D01*
X31882784Y82141544D01*
X31718812Y82073624D01*
X31569512Y82043927D01*
X31544742Y82039000D01*
X31367258Y82039000D01*
X31342488Y82043927D01*
X31193188Y82073624D01*
X31029216Y82141544D01*
X30881646Y82240147D01*
X30756147Y82365646D01*
X30657544Y82513216D01*
X30589624Y82677188D01*
X30555000Y82851259D01*
X30555000Y83028741D01*
X30589624Y83202812D01*
X30657544Y83366784D01*
X30756147Y83514354D01*
X30881646Y83639853D01*
X31029216Y83738456D01*
X31193188Y83806376D01*
X31342488Y83836073D01*
X31367258Y83841000D01*
X31544742Y83841000D01*
X31569512Y83836073D01*
G37*
G36*
X34109512Y83836073D02*
G01*
X34258812Y83806376D01*
X34422784Y83738456D01*
X34570354Y83639853D01*
X34695853Y83514354D01*
X34794456Y83366784D01*
X34862376Y83202812D01*
X34897000Y83028741D01*
X34897000Y82851259D01*
X34862376Y82677188D01*
X34794456Y82513216D01*
X34695853Y82365646D01*
X34570354Y82240147D01*
X34422784Y82141544D01*
X34258812Y82073624D01*
X34109512Y82043927D01*
X34084742Y82039000D01*
X33907258Y82039000D01*
X33882488Y82043927D01*
X33733188Y82073624D01*
X33569216Y82141544D01*
X33421646Y82240147D01*
X33296147Y82365646D01*
X33197544Y82513216D01*
X33129624Y82677188D01*
X33095000Y82851259D01*
X33095000Y83028741D01*
X33129624Y83202812D01*
X33197544Y83366784D01*
X33296147Y83514354D01*
X33421646Y83639853D01*
X33569216Y83738456D01*
X33733188Y83806376D01*
X33882488Y83836073D01*
X33907258Y83841000D01*
X34084742Y83841000D01*
X34109512Y83836073D01*
G37*
G36*
X46809512Y83836073D02*
G01*
X46958812Y83806376D01*
X47122784Y83738456D01*
X47270354Y83639853D01*
X47395853Y83514354D01*
X47494456Y83366784D01*
X47562376Y83202812D01*
X47597000Y83028741D01*
X47597000Y82851259D01*
X47562376Y82677188D01*
X47494456Y82513216D01*
X47395853Y82365646D01*
X47270354Y82240147D01*
X47122784Y82141544D01*
X46958812Y82073624D01*
X46809512Y82043927D01*
X46784742Y82039000D01*
X46607258Y82039000D01*
X46582488Y82043927D01*
X46433188Y82073624D01*
X46269216Y82141544D01*
X46121646Y82240147D01*
X45996147Y82365646D01*
X45897544Y82513216D01*
X45829624Y82677188D01*
X45795000Y82851259D01*
X45795000Y83028741D01*
X45829624Y83202812D01*
X45897544Y83366784D01*
X45996147Y83514354D01*
X46121646Y83639853D01*
X46269216Y83738456D01*
X46433188Y83806376D01*
X46582488Y83836073D01*
X46607258Y83841000D01*
X46784742Y83841000D01*
X46809512Y83836073D01*
G37*
G36*
X49349512Y83836073D02*
G01*
X49498812Y83806376D01*
X49662784Y83738456D01*
X49810354Y83639853D01*
X49935853Y83514354D01*
X50034456Y83366784D01*
X50102376Y83202812D01*
X50137000Y83028741D01*
X50137000Y82851259D01*
X50102376Y82677188D01*
X50034456Y82513216D01*
X49935853Y82365646D01*
X49810354Y82240147D01*
X49662784Y82141544D01*
X49498812Y82073624D01*
X49349512Y82043927D01*
X49324742Y82039000D01*
X49147258Y82039000D01*
X49122488Y82043927D01*
X48973188Y82073624D01*
X48809216Y82141544D01*
X48661646Y82240147D01*
X48536147Y82365646D01*
X48437544Y82513216D01*
X48369624Y82677188D01*
X48335000Y82851259D01*
X48335000Y83028741D01*
X48369624Y83202812D01*
X48437544Y83366784D01*
X48536147Y83514354D01*
X48661646Y83639853D01*
X48809216Y83738456D01*
X48973188Y83806376D01*
X49122488Y83836073D01*
X49147258Y83841000D01*
X49324742Y83841000D01*
X49349512Y83836073D01*
G37*
M02*
