G04 #@! TF.GenerationSoftware,KiCad,Pcbnew,(5.1.5)-3*
G04 #@! TF.CreationDate,2022-04-02T01:18:13+03:00*
G04 #@! TF.ProjectId,USB-UART_PANEL,5553422d-5541-4525-945f-50414e454c2e,rev?*
G04 #@! TF.SameCoordinates,Original*
G04 #@! TF.FileFunction,Copper,L1,Top*
G04 #@! TF.FilePolarity,Positive*
%FSLAX46Y46*%
G04 Gerber Fmt 4.6, Leading zero omitted, Abs format (unit mm)*
G04 Created by KiCad (PCBNEW (5.1.5)-3) date 2022-04-02 01:18:13*
%MOMM*%
%LPD*%
G04 APERTURE LIST*
%ADD10C,0.050000*%
%ADD11C,3.000000*%
%ADD12R,3.000000X3.000000*%
%ADD13R,8.500000X10.000000*%
%ADD14C,1.500000*%
%ADD15O,1.700000X1.700000*%
%ADD16R,1.700000X1.700000*%
%ADD17C,0.250000*%
G04 APERTURE END LIST*
D10*
X0Y100000000D02*
X0Y0D01*
X65000000Y100000000D02*
X0Y100000000D01*
X65000000Y0D02*
X65000000Y100000000D01*
X0Y0D02*
X65000000Y0D01*
X2500000Y22914000D02*
X2500000Y35106000D01*
X11898000Y22914000D02*
X2500000Y22914000D01*
X11898000Y12500000D02*
X11898000Y22914000D01*
X60920000Y12500000D02*
X11898000Y12500000D01*
X60920000Y45520000D02*
X60920000Y12500000D01*
X11898000Y45520000D02*
X60920000Y45520000D01*
X11898000Y35106000D02*
X11898000Y45520000D01*
X2500000Y35106000D02*
X11898000Y35106000D01*
X2500000Y65414000D02*
X2500000Y77606000D01*
X11898000Y65414000D02*
X2500000Y65414000D01*
X11898000Y55000000D02*
X11898000Y65414000D01*
X60920000Y55000000D02*
X11898000Y55000000D01*
X60920000Y88020000D02*
X60920000Y55000000D01*
X11898000Y88020000D02*
X60920000Y88020000D01*
X11898000Y77606000D02*
X11898000Y88020000D01*
X2500000Y77606000D02*
X11898000Y77606000D01*
D11*
X56856000Y39170000D03*
X56856000Y34090000D03*
D12*
X56856000Y18850000D03*
D11*
X56856000Y29010000D03*
X56856000Y23930000D03*
D13*
X7648000Y29010000D03*
D14*
X21604000Y39932000D03*
X16724000Y39932000D03*
D15*
X33996000Y40440000D03*
X31456000Y40440000D03*
X33996000Y37900000D03*
X31456000Y37900000D03*
X33996000Y35360000D03*
X31456000Y35360000D03*
X33996000Y32820000D03*
X31456000Y32820000D03*
X33996000Y30280000D03*
X31456000Y30280000D03*
X33996000Y27740000D03*
X31456000Y27740000D03*
X33996000Y25200000D03*
X31456000Y25200000D03*
X33996000Y22660000D03*
X31456000Y22660000D03*
X33996000Y20120000D03*
X31456000Y20120000D03*
X33996000Y17580000D03*
D16*
X31456000Y17580000D03*
D15*
X49236000Y40440000D03*
X46696000Y40440000D03*
X49236000Y37900000D03*
X46696000Y37900000D03*
X49236000Y35360000D03*
X46696000Y35360000D03*
X49236000Y32820000D03*
X46696000Y32820000D03*
X49236000Y30280000D03*
X46696000Y30280000D03*
X49236000Y27740000D03*
X46696000Y27740000D03*
X49236000Y25200000D03*
X46696000Y25200000D03*
X49236000Y22660000D03*
X46696000Y22660000D03*
X49236000Y20120000D03*
X46696000Y20120000D03*
X49236000Y17580000D03*
D16*
X46696000Y17580000D03*
D15*
X14184000Y23930000D03*
X14184000Y26470000D03*
X14184000Y29010000D03*
X14184000Y31550000D03*
D16*
X14184000Y34090000D03*
D11*
X56856000Y81670000D03*
X56856000Y76590000D03*
D12*
X56856000Y61350000D03*
D11*
X56856000Y71510000D03*
X56856000Y66430000D03*
D13*
X7648000Y71510000D03*
D14*
X21604000Y82432000D03*
X16724000Y82432000D03*
D15*
X33996000Y82940000D03*
X31456000Y82940000D03*
X33996000Y80400000D03*
X31456000Y80400000D03*
X33996000Y77860000D03*
X31456000Y77860000D03*
X33996000Y75320000D03*
X31456000Y75320000D03*
X33996000Y72780000D03*
X31456000Y72780000D03*
X33996000Y70240000D03*
X31456000Y70240000D03*
X33996000Y67700000D03*
X31456000Y67700000D03*
X33996000Y65160000D03*
X31456000Y65160000D03*
X33996000Y62620000D03*
X31456000Y62620000D03*
X33996000Y60080000D03*
D16*
X31456000Y60080000D03*
D15*
X49236000Y82940000D03*
X46696000Y82940000D03*
X49236000Y80400000D03*
X46696000Y80400000D03*
X49236000Y77860000D03*
X46696000Y77860000D03*
X49236000Y75320000D03*
X46696000Y75320000D03*
X49236000Y72780000D03*
X46696000Y72780000D03*
X49236000Y70240000D03*
X46696000Y70240000D03*
X49236000Y67700000D03*
X46696000Y67700000D03*
X49236000Y65160000D03*
X46696000Y65160000D03*
X49236000Y62620000D03*
X46696000Y62620000D03*
X49236000Y60080000D03*
D16*
X46696000Y60080000D03*
D15*
X14184000Y66430000D03*
X14184000Y68970000D03*
X14184000Y71510000D03*
X14184000Y74050000D03*
D16*
X14184000Y76590000D03*
D17*
X7648000Y29010000D02*
X7648000Y28180000D01*
X7648000Y28180000D02*
X11898000Y23930000D01*
X11898000Y23930000D02*
X14184000Y23930000D01*
X7648000Y71510000D02*
X7648000Y70680000D01*
X7648000Y70680000D02*
X11898000Y66430000D01*
X11898000Y66430000D02*
X14184000Y66430000D01*
M02*
