G04 #@! TF.GenerationSoftware,KiCad,Pcbnew,(5.1.5)-3*
G04 #@! TF.CreationDate,2022-04-02T01:18:13+03:00*
G04 #@! TF.ProjectId,USB-UART_PANEL,5553422d-5541-4525-945f-50414e454c2e,rev?*
G04 #@! TF.SameCoordinates,Original*
G04 #@! TF.FileFunction,Legend,Bot*
G04 #@! TF.FilePolarity,Positive*
%FSLAX46Y46*%
G04 Gerber Fmt 4.6, Leading zero omitted, Abs format (unit mm)*
G04 Created by KiCad (PCBNEW (5.1.5)-3) date 2022-04-02 01:18:13*
%MOMM*%
%LPD*%
G04 APERTURE LIST*
%ADD10C,0.050000*%
%ADD11C,0.120000*%
%ADD12C,0.150000*%
G04 APERTURE END LIST*
D10*
X0Y100000000D02*
X0Y0D01*
X65000000Y100000000D02*
X0Y100000000D01*
X65000000Y0D02*
X65000000Y100000000D01*
X0Y0D02*
X65000000Y0D01*
X2500000Y22914000D02*
X2500000Y35106000D01*
X11898000Y22914000D02*
X2500000Y22914000D01*
X11898000Y12500000D02*
X11898000Y22914000D01*
X60920000Y12500000D02*
X11898000Y12500000D01*
X60920000Y45520000D02*
X60920000Y12500000D01*
X11898000Y45520000D02*
X60920000Y45520000D01*
X11898000Y35106000D02*
X11898000Y45520000D01*
X2500000Y35106000D02*
X11898000Y35106000D01*
X2500000Y65414000D02*
X2500000Y77606000D01*
X11898000Y65414000D02*
X2500000Y65414000D01*
X11898000Y55000000D02*
X11898000Y65414000D01*
X60920000Y55000000D02*
X11898000Y55000000D01*
X60920000Y88020000D02*
X60920000Y55000000D01*
X11898000Y88020000D02*
X60920000Y88020000D01*
X11898000Y77606000D02*
X11898000Y88020000D01*
X2500000Y77606000D02*
X11898000Y77606000D01*
D11*
X40094000Y22314779D02*
X40094000Y21989221D01*
X39074000Y22314779D02*
X39074000Y21989221D01*
X38570000Y22314779D02*
X38570000Y21989221D01*
X37550000Y22314779D02*
X37550000Y21989221D01*
X25362000Y42380779D02*
X25362000Y42055221D01*
X24342000Y42380779D02*
X24342000Y42055221D01*
X27140000Y42380779D02*
X27140000Y42055221D01*
X26120000Y42380779D02*
X26120000Y42055221D01*
X24117000Y37685000D02*
X24117000Y39970000D01*
X25587000Y37685000D02*
X24117000Y37685000D01*
X25587000Y39970000D02*
X25587000Y37685000D01*
X25895000Y37685000D02*
X25895000Y39970000D01*
X27365000Y37685000D02*
X25895000Y37685000D01*
X27365000Y39970000D02*
X27365000Y37685000D01*
X42906000Y29010000D02*
X42906000Y25560000D01*
X42906000Y29010000D02*
X42906000Y30960000D01*
X37786000Y29010000D02*
X37786000Y27060000D01*
X37786000Y29010000D02*
X37786000Y30960000D01*
X42906000Y16818000D02*
X42906000Y13368000D01*
X42906000Y16818000D02*
X42906000Y18768000D01*
X37786000Y16818000D02*
X37786000Y14868000D01*
X37786000Y16818000D02*
X37786000Y18768000D01*
X16545000Y32870000D02*
X16545000Y34685000D01*
X16310000Y32870000D02*
X16545000Y32870000D01*
X16310000Y29010000D02*
X16310000Y32870000D01*
X16310000Y25150000D02*
X16545000Y25150000D01*
X16310000Y29010000D02*
X16310000Y25150000D01*
X29330000Y32870000D02*
X29095000Y32870000D01*
X29330000Y29010000D02*
X29330000Y32870000D01*
X29330000Y25150000D02*
X29095000Y25150000D01*
X29330000Y29010000D02*
X29330000Y25150000D01*
X39078000Y34506779D02*
X39078000Y34181221D01*
X38058000Y34506779D02*
X38058000Y34181221D01*
X40508779Y23928000D02*
X40183221Y23928000D01*
X40508779Y24948000D02*
X40183221Y24948000D01*
X51266000Y40785221D02*
X51266000Y41110779D01*
X52286000Y40785221D02*
X52286000Y41110779D01*
X42634000Y34506779D02*
X42634000Y34181221D01*
X41614000Y34506779D02*
X41614000Y34181221D01*
X51266000Y23005221D02*
X51266000Y23330779D01*
X52286000Y23005221D02*
X52286000Y23330779D01*
X52286000Y19774779D02*
X52286000Y19449221D01*
X51266000Y19774779D02*
X51266000Y19449221D01*
X23584000Y42380779D02*
X23584000Y42055221D01*
X22564000Y42380779D02*
X22564000Y42055221D01*
X41364000Y39622000D02*
X42824000Y39622000D01*
X41364000Y42782000D02*
X43524000Y42782000D01*
X41364000Y42782000D02*
X41364000Y41852000D01*
X41364000Y39622000D02*
X41364000Y40552000D01*
X37808000Y39622000D02*
X39268000Y39622000D01*
X37808000Y42782000D02*
X39968000Y42782000D01*
X37808000Y42782000D02*
X37808000Y41852000D01*
X37808000Y39622000D02*
X37808000Y40552000D01*
X19516000Y40531221D02*
X19516000Y40856779D01*
X20536000Y40531221D02*
X20536000Y40856779D01*
X17738000Y40531221D02*
X17738000Y40856779D01*
X18758000Y40531221D02*
X18758000Y40856779D01*
X21298000Y21552779D02*
X21298000Y21227221D01*
X20278000Y21552779D02*
X20278000Y21227221D01*
X16307221Y36378000D02*
X16632779Y36378000D01*
X16307221Y35358000D02*
X16632779Y35358000D01*
X16307221Y38156000D02*
X16632779Y38156000D01*
X16307221Y37136000D02*
X16632779Y37136000D01*
X40094000Y64814779D02*
X40094000Y64489221D01*
X39074000Y64814779D02*
X39074000Y64489221D01*
X38570000Y64814779D02*
X38570000Y64489221D01*
X37550000Y64814779D02*
X37550000Y64489221D01*
X25362000Y84880779D02*
X25362000Y84555221D01*
X24342000Y84880779D02*
X24342000Y84555221D01*
X27140000Y84880779D02*
X27140000Y84555221D01*
X26120000Y84880779D02*
X26120000Y84555221D01*
X24117000Y80185000D02*
X24117000Y82470000D01*
X25587000Y80185000D02*
X24117000Y80185000D01*
X25587000Y82470000D02*
X25587000Y80185000D01*
X25895000Y80185000D02*
X25895000Y82470000D01*
X27365000Y80185000D02*
X25895000Y80185000D01*
X27365000Y82470000D02*
X27365000Y80185000D01*
X42906000Y71510000D02*
X42906000Y68060000D01*
X42906000Y71510000D02*
X42906000Y73460000D01*
X37786000Y71510000D02*
X37786000Y69560000D01*
X37786000Y71510000D02*
X37786000Y73460000D01*
X42906000Y59318000D02*
X42906000Y55868000D01*
X42906000Y59318000D02*
X42906000Y61268000D01*
X37786000Y59318000D02*
X37786000Y57368000D01*
X37786000Y59318000D02*
X37786000Y61268000D01*
X16545000Y75370000D02*
X16545000Y77185000D01*
X16310000Y75370000D02*
X16545000Y75370000D01*
X16310000Y71510000D02*
X16310000Y75370000D01*
X16310000Y67650000D02*
X16545000Y67650000D01*
X16310000Y71510000D02*
X16310000Y67650000D01*
X29330000Y75370000D02*
X29095000Y75370000D01*
X29330000Y71510000D02*
X29330000Y75370000D01*
X29330000Y67650000D02*
X29095000Y67650000D01*
X29330000Y71510000D02*
X29330000Y67650000D01*
X39078000Y77006779D02*
X39078000Y76681221D01*
X38058000Y77006779D02*
X38058000Y76681221D01*
X40508779Y66428000D02*
X40183221Y66428000D01*
X40508779Y67448000D02*
X40183221Y67448000D01*
X51266000Y83285221D02*
X51266000Y83610779D01*
X52286000Y83285221D02*
X52286000Y83610779D01*
X42634000Y77006779D02*
X42634000Y76681221D01*
X41614000Y77006779D02*
X41614000Y76681221D01*
X51266000Y65505221D02*
X51266000Y65830779D01*
X52286000Y65505221D02*
X52286000Y65830779D01*
X52286000Y62274779D02*
X52286000Y61949221D01*
X51266000Y62274779D02*
X51266000Y61949221D01*
X23584000Y84880779D02*
X23584000Y84555221D01*
X22564000Y84880779D02*
X22564000Y84555221D01*
X41364000Y82122000D02*
X42824000Y82122000D01*
X41364000Y85282000D02*
X43524000Y85282000D01*
X41364000Y85282000D02*
X41364000Y84352000D01*
X41364000Y82122000D02*
X41364000Y83052000D01*
X37808000Y82122000D02*
X39268000Y82122000D01*
X37808000Y85282000D02*
X39968000Y85282000D01*
X37808000Y85282000D02*
X37808000Y84352000D01*
X37808000Y82122000D02*
X37808000Y83052000D01*
X19516000Y83031221D02*
X19516000Y83356779D01*
X20536000Y83031221D02*
X20536000Y83356779D01*
X17738000Y83031221D02*
X17738000Y83356779D01*
X18758000Y83031221D02*
X18758000Y83356779D01*
X21298000Y64052779D02*
X21298000Y63727221D01*
X20278000Y64052779D02*
X20278000Y63727221D01*
X16307221Y78878000D02*
X16632779Y78878000D01*
X16307221Y77858000D02*
X16632779Y77858000D01*
X16307221Y80656000D02*
X16632779Y80656000D01*
X16307221Y79636000D02*
X16632779Y79636000D01*
D12*
X38606380Y22794857D02*
X38130190Y23128190D01*
X38606380Y23366285D02*
X37606380Y23366285D01*
X37606380Y22985333D01*
X37654000Y22890095D01*
X37701619Y22842476D01*
X37796857Y22794857D01*
X37939714Y22794857D01*
X38034952Y22842476D01*
X38082571Y22890095D01*
X38130190Y22985333D01*
X38130190Y23366285D01*
X38606380Y21842476D02*
X38606380Y22413904D01*
X38606380Y22128190D02*
X37606380Y22128190D01*
X37749238Y22223428D01*
X37844476Y22318666D01*
X37892095Y22413904D01*
X38606380Y20890095D02*
X38606380Y21461523D01*
X38606380Y21175809D02*
X37606380Y21175809D01*
X37749238Y21271047D01*
X37844476Y21366285D01*
X37892095Y21461523D01*
X37082380Y22794857D02*
X36606190Y23128190D01*
X37082380Y23366285D02*
X36082380Y23366285D01*
X36082380Y22985333D01*
X36130000Y22890095D01*
X36177619Y22842476D01*
X36272857Y22794857D01*
X36415714Y22794857D01*
X36510952Y22842476D01*
X36558571Y22890095D01*
X36606190Y22985333D01*
X36606190Y23366285D01*
X37082380Y21842476D02*
X37082380Y22413904D01*
X37082380Y22128190D02*
X36082380Y22128190D01*
X36225238Y22223428D01*
X36320476Y22318666D01*
X36368095Y22413904D01*
X36082380Y21223428D02*
X36082380Y21128190D01*
X36130000Y21032952D01*
X36177619Y20985333D01*
X36272857Y20937714D01*
X36463333Y20890095D01*
X36701428Y20890095D01*
X36891904Y20937714D01*
X36987142Y20985333D01*
X37034761Y21032952D01*
X37082380Y21128190D01*
X37082380Y21223428D01*
X37034761Y21318666D01*
X36987142Y21366285D01*
X36891904Y21413904D01*
X36701428Y21461523D01*
X36463333Y21461523D01*
X36272857Y21413904D01*
X36177619Y21366285D01*
X36130000Y21318666D01*
X36082380Y21223428D01*
X13501333Y36923619D02*
X13501333Y36209333D01*
X13548952Y36066476D01*
X13644190Y35971238D01*
X13787047Y35923619D01*
X13882285Y35923619D01*
X13072761Y36828380D02*
X13025142Y36876000D01*
X12929904Y36923619D01*
X12691809Y36923619D01*
X12596571Y36876000D01*
X12548952Y36828380D01*
X12501333Y36733142D01*
X12501333Y36637904D01*
X12548952Y36495047D01*
X13120380Y35923619D01*
X12501333Y35923619D01*
X25304380Y44670666D02*
X24828190Y45004000D01*
X25304380Y45242095D02*
X24304380Y45242095D01*
X24304380Y44861142D01*
X24352000Y44765904D01*
X24399619Y44718285D01*
X24494857Y44670666D01*
X24637714Y44670666D01*
X24732952Y44718285D01*
X24780571Y44765904D01*
X24828190Y44861142D01*
X24828190Y45242095D01*
X24304380Y44337333D02*
X24304380Y43718285D01*
X24685333Y44051619D01*
X24685333Y43908761D01*
X24732952Y43813523D01*
X24780571Y43765904D01*
X24875809Y43718285D01*
X25113904Y43718285D01*
X25209142Y43765904D01*
X25256761Y43813523D01*
X25304380Y43908761D01*
X25304380Y44194476D01*
X25256761Y44289714D01*
X25209142Y44337333D01*
X27082380Y44670666D02*
X26606190Y45004000D01*
X27082380Y45242095D02*
X26082380Y45242095D01*
X26082380Y44861142D01*
X26130000Y44765904D01*
X26177619Y44718285D01*
X26272857Y44670666D01*
X26415714Y44670666D01*
X26510952Y44718285D01*
X26558571Y44765904D01*
X26606190Y44861142D01*
X26606190Y45242095D01*
X26177619Y44289714D02*
X26130000Y44242095D01*
X26082380Y44146857D01*
X26082380Y43908761D01*
X26130000Y43813523D01*
X26177619Y43765904D01*
X26272857Y43718285D01*
X26368095Y43718285D01*
X26510952Y43765904D01*
X27082380Y44337333D01*
X27082380Y43718285D01*
X25304380Y37368095D02*
X24304380Y37368095D01*
X24304380Y37130000D01*
X24352000Y36987142D01*
X24447238Y36891904D01*
X24542476Y36844285D01*
X24732952Y36796666D01*
X24875809Y36796666D01*
X25066285Y36844285D01*
X25161523Y36891904D01*
X25256761Y36987142D01*
X25304380Y37130000D01*
X25304380Y37368095D01*
X24399619Y36415714D02*
X24352000Y36368095D01*
X24304380Y36272857D01*
X24304380Y36034761D01*
X24352000Y35939523D01*
X24399619Y35891904D01*
X24494857Y35844285D01*
X24590095Y35844285D01*
X24732952Y35891904D01*
X25304380Y36463333D01*
X25304380Y35844285D01*
X27082380Y37368095D02*
X26082380Y37368095D01*
X26082380Y37130000D01*
X26130000Y36987142D01*
X26225238Y36891904D01*
X26320476Y36844285D01*
X26510952Y36796666D01*
X26653809Y36796666D01*
X26844285Y36844285D01*
X26939523Y36891904D01*
X27034761Y36987142D01*
X27082380Y37130000D01*
X27082380Y37368095D01*
X27082380Y35844285D02*
X27082380Y36415714D01*
X27082380Y36130000D02*
X26082380Y36130000D01*
X26225238Y36225238D01*
X26320476Y36320476D01*
X26368095Y36415714D01*
X43354380Y29771904D02*
X44163904Y29771904D01*
X44259142Y29724285D01*
X44306761Y29676666D01*
X44354380Y29581428D01*
X44354380Y29390952D01*
X44306761Y29295714D01*
X44259142Y29248095D01*
X44163904Y29200476D01*
X43354380Y29200476D01*
X43354380Y28819523D02*
X43354380Y28200476D01*
X43735333Y28533809D01*
X43735333Y28390952D01*
X43782952Y28295714D01*
X43830571Y28248095D01*
X43925809Y28200476D01*
X44163904Y28200476D01*
X44259142Y28248095D01*
X44306761Y28295714D01*
X44354380Y28390952D01*
X44354380Y28676666D01*
X44306761Y28771904D01*
X44259142Y28819523D01*
X43354380Y17579904D02*
X44163904Y17579904D01*
X44259142Y17532285D01*
X44306761Y17484666D01*
X44354380Y17389428D01*
X44354380Y17198952D01*
X44306761Y17103714D01*
X44259142Y17056095D01*
X44163904Y17008476D01*
X43354380Y17008476D01*
X43449619Y16579904D02*
X43402000Y16532285D01*
X43354380Y16437047D01*
X43354380Y16198952D01*
X43402000Y16103714D01*
X43449619Y16056095D01*
X43544857Y16008476D01*
X43640095Y16008476D01*
X43782952Y16056095D01*
X44354380Y16627523D01*
X44354380Y16008476D01*
X28368380Y22151904D02*
X29177904Y22151904D01*
X29273142Y22104285D01*
X29320761Y22056666D01*
X29368380Y21961428D01*
X29368380Y21770952D01*
X29320761Y21675714D01*
X29273142Y21628095D01*
X29177904Y21580476D01*
X28368380Y21580476D01*
X29368380Y20580476D02*
X29368380Y21151904D01*
X29368380Y20866190D02*
X28368380Y20866190D01*
X28511238Y20961428D01*
X28606476Y21056666D01*
X28654095Y21151904D01*
X40544380Y34510666D02*
X40068190Y34844000D01*
X40544380Y35082095D02*
X39544380Y35082095D01*
X39544380Y34701142D01*
X39592000Y34605904D01*
X39639619Y34558285D01*
X39734857Y34510666D01*
X39877714Y34510666D01*
X39972952Y34558285D01*
X40020571Y34605904D01*
X40068190Y34701142D01*
X40068190Y35082095D01*
X40544380Y34034476D02*
X40544380Y33844000D01*
X40496761Y33748761D01*
X40449142Y33701142D01*
X40306285Y33605904D01*
X40115809Y33558285D01*
X39734857Y33558285D01*
X39639619Y33605904D01*
X39592000Y33653523D01*
X39544380Y33748761D01*
X39544380Y33939238D01*
X39592000Y34034476D01*
X39639619Y34082095D01*
X39734857Y34129714D01*
X39972952Y34129714D01*
X40068190Y34082095D01*
X40115809Y34034476D01*
X40163428Y33939238D01*
X40163428Y33748761D01*
X40115809Y33653523D01*
X40068190Y33605904D01*
X39972952Y33558285D01*
X43052666Y23985619D02*
X43386000Y24461809D01*
X43624095Y23985619D02*
X43624095Y24985619D01*
X43243142Y24985619D01*
X43147904Y24938000D01*
X43100285Y24890380D01*
X43052666Y24795142D01*
X43052666Y24652285D01*
X43100285Y24557047D01*
X43147904Y24509428D01*
X43243142Y24461809D01*
X43624095Y24461809D01*
X42481238Y24557047D02*
X42576476Y24604666D01*
X42624095Y24652285D01*
X42671714Y24747523D01*
X42671714Y24795142D01*
X42624095Y24890380D01*
X42576476Y24938000D01*
X42481238Y24985619D01*
X42290761Y24985619D01*
X42195523Y24938000D01*
X42147904Y24890380D01*
X42100285Y24795142D01*
X42100285Y24747523D01*
X42147904Y24652285D01*
X42195523Y24604666D01*
X42290761Y24557047D01*
X42481238Y24557047D01*
X42576476Y24509428D01*
X42624095Y24461809D01*
X42671714Y24366571D01*
X42671714Y24176095D01*
X42624095Y24080857D01*
X42576476Y24033238D01*
X42481238Y23985619D01*
X42290761Y23985619D01*
X42195523Y24033238D01*
X42147904Y24080857D01*
X42100285Y24176095D01*
X42100285Y24366571D01*
X42147904Y24461809D01*
X42195523Y24509428D01*
X42290761Y24557047D01*
X53752380Y41114666D02*
X53276190Y41448000D01*
X53752380Y41686095D02*
X52752380Y41686095D01*
X52752380Y41305142D01*
X52800000Y41209904D01*
X52847619Y41162285D01*
X52942857Y41114666D01*
X53085714Y41114666D01*
X53180952Y41162285D01*
X53228571Y41209904D01*
X53276190Y41305142D01*
X53276190Y41686095D01*
X52752380Y40781333D02*
X52752380Y40114666D01*
X53752380Y40543238D01*
X44100380Y34510666D02*
X43624190Y34844000D01*
X44100380Y35082095D02*
X43100380Y35082095D01*
X43100380Y34701142D01*
X43148000Y34605904D01*
X43195619Y34558285D01*
X43290857Y34510666D01*
X43433714Y34510666D01*
X43528952Y34558285D01*
X43576571Y34605904D01*
X43624190Y34701142D01*
X43624190Y35082095D01*
X43100380Y33653523D02*
X43100380Y33844000D01*
X43148000Y33939238D01*
X43195619Y33986857D01*
X43338476Y34082095D01*
X43528952Y34129714D01*
X43909904Y34129714D01*
X44005142Y34082095D01*
X44052761Y34034476D01*
X44100380Y33939238D01*
X44100380Y33748761D01*
X44052761Y33653523D01*
X44005142Y33605904D01*
X43909904Y33558285D01*
X43671809Y33558285D01*
X43576571Y33605904D01*
X43528952Y33653523D01*
X43481333Y33748761D01*
X43481333Y33939238D01*
X43528952Y34034476D01*
X43576571Y34082095D01*
X43671809Y34129714D01*
X53752380Y23334666D02*
X53276190Y23668000D01*
X53752380Y23906095D02*
X52752380Y23906095D01*
X52752380Y23525142D01*
X52800000Y23429904D01*
X52847619Y23382285D01*
X52942857Y23334666D01*
X53085714Y23334666D01*
X53180952Y23382285D01*
X53228571Y23429904D01*
X53276190Y23525142D01*
X53276190Y23906095D01*
X52752380Y22429904D02*
X52752380Y22906095D01*
X53228571Y22953714D01*
X53180952Y22906095D01*
X53133333Y22810857D01*
X53133333Y22572761D01*
X53180952Y22477523D01*
X53228571Y22429904D01*
X53323809Y22382285D01*
X53561904Y22382285D01*
X53657142Y22429904D01*
X53704761Y22477523D01*
X53752380Y22572761D01*
X53752380Y22810857D01*
X53704761Y22906095D01*
X53657142Y22953714D01*
X53752380Y19778666D02*
X53276190Y20112000D01*
X53752380Y20350095D02*
X52752380Y20350095D01*
X52752380Y19969142D01*
X52800000Y19873904D01*
X52847619Y19826285D01*
X52942857Y19778666D01*
X53085714Y19778666D01*
X53180952Y19826285D01*
X53228571Y19873904D01*
X53276190Y19969142D01*
X53276190Y20350095D01*
X53085714Y18921523D02*
X53752380Y18921523D01*
X52704761Y19159619D02*
X53419047Y19397714D01*
X53419047Y18778666D01*
X23526380Y44670666D02*
X23050190Y45004000D01*
X23526380Y45242095D02*
X22526380Y45242095D01*
X22526380Y44861142D01*
X22574000Y44765904D01*
X22621619Y44718285D01*
X22716857Y44670666D01*
X22859714Y44670666D01*
X22954952Y44718285D01*
X23002571Y44765904D01*
X23050190Y44861142D01*
X23050190Y45242095D01*
X23526380Y43718285D02*
X23526380Y44289714D01*
X23526380Y44004000D02*
X22526380Y44004000D01*
X22669238Y44099238D01*
X22764476Y44194476D01*
X22812095Y44289714D01*
X42219238Y38114380D02*
X42314476Y38162000D01*
X42409714Y38257238D01*
X42552571Y38400095D01*
X42647809Y38447714D01*
X42743047Y38447714D01*
X42695428Y38209619D02*
X42790666Y38257238D01*
X42885904Y38352476D01*
X42933523Y38542952D01*
X42933523Y38876285D01*
X42885904Y39066761D01*
X42790666Y39162000D01*
X42695428Y39209619D01*
X42504952Y39209619D01*
X42409714Y39162000D01*
X42314476Y39066761D01*
X42266857Y38876285D01*
X42266857Y38542952D01*
X42314476Y38352476D01*
X42409714Y38257238D01*
X42504952Y38209619D01*
X42695428Y38209619D01*
X41885904Y39114380D02*
X41838285Y39162000D01*
X41743047Y39209619D01*
X41504952Y39209619D01*
X41409714Y39162000D01*
X41362095Y39114380D01*
X41314476Y39019142D01*
X41314476Y38923904D01*
X41362095Y38781047D01*
X41933523Y38209619D01*
X41314476Y38209619D01*
X38663238Y38114380D02*
X38758476Y38162000D01*
X38853714Y38257238D01*
X38996571Y38400095D01*
X39091809Y38447714D01*
X39187047Y38447714D01*
X39139428Y38209619D02*
X39234666Y38257238D01*
X39329904Y38352476D01*
X39377523Y38542952D01*
X39377523Y38876285D01*
X39329904Y39066761D01*
X39234666Y39162000D01*
X39139428Y39209619D01*
X38948952Y39209619D01*
X38853714Y39162000D01*
X38758476Y39066761D01*
X38710857Y38876285D01*
X38710857Y38542952D01*
X38758476Y38352476D01*
X38853714Y38257238D01*
X38948952Y38209619D01*
X39139428Y38209619D01*
X37758476Y38209619D02*
X38329904Y38209619D01*
X38044190Y38209619D02*
X38044190Y39209619D01*
X38139428Y39066761D01*
X38234666Y38971523D01*
X38329904Y38923904D01*
X20383142Y43400666D02*
X20430761Y43448285D01*
X20478380Y43591142D01*
X20478380Y43686380D01*
X20430761Y43829238D01*
X20335523Y43924476D01*
X20240285Y43972095D01*
X20049809Y44019714D01*
X19906952Y44019714D01*
X19716476Y43972095D01*
X19621238Y43924476D01*
X19526000Y43829238D01*
X19478380Y43686380D01*
X19478380Y43591142D01*
X19526000Y43448285D01*
X19573619Y43400666D01*
X19478380Y42495904D02*
X19478380Y42972095D01*
X19954571Y43019714D01*
X19906952Y42972095D01*
X19859333Y42876857D01*
X19859333Y42638761D01*
X19906952Y42543523D01*
X19954571Y42495904D01*
X20049809Y42448285D01*
X20287904Y42448285D01*
X20383142Y42495904D01*
X20430761Y42543523D01*
X20478380Y42638761D01*
X20478380Y42876857D01*
X20430761Y42972095D01*
X20383142Y43019714D01*
X18605142Y43400666D02*
X18652761Y43448285D01*
X18700380Y43591142D01*
X18700380Y43686380D01*
X18652761Y43829238D01*
X18557523Y43924476D01*
X18462285Y43972095D01*
X18271809Y44019714D01*
X18128952Y44019714D01*
X17938476Y43972095D01*
X17843238Y43924476D01*
X17748000Y43829238D01*
X17700380Y43686380D01*
X17700380Y43591142D01*
X17748000Y43448285D01*
X17795619Y43400666D01*
X18033714Y42543523D02*
X18700380Y42543523D01*
X17652761Y42781619D02*
X18367047Y43019714D01*
X18367047Y42400666D01*
X22669142Y21556666D02*
X22716761Y21604285D01*
X22764380Y21747142D01*
X22764380Y21842380D01*
X22716761Y21985238D01*
X22621523Y22080476D01*
X22526285Y22128095D01*
X22335809Y22175714D01*
X22192952Y22175714D01*
X22002476Y22128095D01*
X21907238Y22080476D01*
X21812000Y21985238D01*
X21764380Y21842380D01*
X21764380Y21747142D01*
X21812000Y21604285D01*
X21859619Y21556666D01*
X21764380Y21223333D02*
X21764380Y20604285D01*
X22145333Y20937619D01*
X22145333Y20794761D01*
X22192952Y20699523D01*
X22240571Y20651904D01*
X22335809Y20604285D01*
X22573904Y20604285D01*
X22669142Y20651904D01*
X22716761Y20699523D01*
X22764380Y20794761D01*
X22764380Y21080476D01*
X22716761Y21175714D01*
X22669142Y21223333D01*
X19176666Y35510857D02*
X19224285Y35463238D01*
X19367142Y35415619D01*
X19462380Y35415619D01*
X19605238Y35463238D01*
X19700476Y35558476D01*
X19748095Y35653714D01*
X19795714Y35844190D01*
X19795714Y35987047D01*
X19748095Y36177523D01*
X19700476Y36272761D01*
X19605238Y36368000D01*
X19462380Y36415619D01*
X19367142Y36415619D01*
X19224285Y36368000D01*
X19176666Y36320380D01*
X18795714Y36320380D02*
X18748095Y36368000D01*
X18652857Y36415619D01*
X18414761Y36415619D01*
X18319523Y36368000D01*
X18271904Y36320380D01*
X18224285Y36225142D01*
X18224285Y36129904D01*
X18271904Y35987047D01*
X18843333Y35415619D01*
X18224285Y35415619D01*
X19176666Y37288857D02*
X19224285Y37241238D01*
X19367142Y37193619D01*
X19462380Y37193619D01*
X19605238Y37241238D01*
X19700476Y37336476D01*
X19748095Y37431714D01*
X19795714Y37622190D01*
X19795714Y37765047D01*
X19748095Y37955523D01*
X19700476Y38050761D01*
X19605238Y38146000D01*
X19462380Y38193619D01*
X19367142Y38193619D01*
X19224285Y38146000D01*
X19176666Y38098380D01*
X18224285Y37193619D02*
X18795714Y37193619D01*
X18510000Y37193619D02*
X18510000Y38193619D01*
X18605238Y38050761D01*
X18700476Y37955523D01*
X18795714Y37907904D01*
X38606380Y65294857D02*
X38130190Y65628190D01*
X38606380Y65866285D02*
X37606380Y65866285D01*
X37606380Y65485333D01*
X37654000Y65390095D01*
X37701619Y65342476D01*
X37796857Y65294857D01*
X37939714Y65294857D01*
X38034952Y65342476D01*
X38082571Y65390095D01*
X38130190Y65485333D01*
X38130190Y65866285D01*
X38606380Y64342476D02*
X38606380Y64913904D01*
X38606380Y64628190D02*
X37606380Y64628190D01*
X37749238Y64723428D01*
X37844476Y64818666D01*
X37892095Y64913904D01*
X38606380Y63390095D02*
X38606380Y63961523D01*
X38606380Y63675809D02*
X37606380Y63675809D01*
X37749238Y63771047D01*
X37844476Y63866285D01*
X37892095Y63961523D01*
X37082380Y65294857D02*
X36606190Y65628190D01*
X37082380Y65866285D02*
X36082380Y65866285D01*
X36082380Y65485333D01*
X36130000Y65390095D01*
X36177619Y65342476D01*
X36272857Y65294857D01*
X36415714Y65294857D01*
X36510952Y65342476D01*
X36558571Y65390095D01*
X36606190Y65485333D01*
X36606190Y65866285D01*
X37082380Y64342476D02*
X37082380Y64913904D01*
X37082380Y64628190D02*
X36082380Y64628190D01*
X36225238Y64723428D01*
X36320476Y64818666D01*
X36368095Y64913904D01*
X36082380Y63723428D02*
X36082380Y63628190D01*
X36130000Y63532952D01*
X36177619Y63485333D01*
X36272857Y63437714D01*
X36463333Y63390095D01*
X36701428Y63390095D01*
X36891904Y63437714D01*
X36987142Y63485333D01*
X37034761Y63532952D01*
X37082380Y63628190D01*
X37082380Y63723428D01*
X37034761Y63818666D01*
X36987142Y63866285D01*
X36891904Y63913904D01*
X36701428Y63961523D01*
X36463333Y63961523D01*
X36272857Y63913904D01*
X36177619Y63866285D01*
X36130000Y63818666D01*
X36082380Y63723428D01*
X13501333Y79423619D02*
X13501333Y78709333D01*
X13548952Y78566476D01*
X13644190Y78471238D01*
X13787047Y78423619D01*
X13882285Y78423619D01*
X13072761Y79328380D02*
X13025142Y79376000D01*
X12929904Y79423619D01*
X12691809Y79423619D01*
X12596571Y79376000D01*
X12548952Y79328380D01*
X12501333Y79233142D01*
X12501333Y79137904D01*
X12548952Y78995047D01*
X13120380Y78423619D01*
X12501333Y78423619D01*
X25304380Y87170666D02*
X24828190Y87504000D01*
X25304380Y87742095D02*
X24304380Y87742095D01*
X24304380Y87361142D01*
X24352000Y87265904D01*
X24399619Y87218285D01*
X24494857Y87170666D01*
X24637714Y87170666D01*
X24732952Y87218285D01*
X24780571Y87265904D01*
X24828190Y87361142D01*
X24828190Y87742095D01*
X24304380Y86837333D02*
X24304380Y86218285D01*
X24685333Y86551619D01*
X24685333Y86408761D01*
X24732952Y86313523D01*
X24780571Y86265904D01*
X24875809Y86218285D01*
X25113904Y86218285D01*
X25209142Y86265904D01*
X25256761Y86313523D01*
X25304380Y86408761D01*
X25304380Y86694476D01*
X25256761Y86789714D01*
X25209142Y86837333D01*
X27082380Y87170666D02*
X26606190Y87504000D01*
X27082380Y87742095D02*
X26082380Y87742095D01*
X26082380Y87361142D01*
X26130000Y87265904D01*
X26177619Y87218285D01*
X26272857Y87170666D01*
X26415714Y87170666D01*
X26510952Y87218285D01*
X26558571Y87265904D01*
X26606190Y87361142D01*
X26606190Y87742095D01*
X26177619Y86789714D02*
X26130000Y86742095D01*
X26082380Y86646857D01*
X26082380Y86408761D01*
X26130000Y86313523D01*
X26177619Y86265904D01*
X26272857Y86218285D01*
X26368095Y86218285D01*
X26510952Y86265904D01*
X27082380Y86837333D01*
X27082380Y86218285D01*
X25304380Y79868095D02*
X24304380Y79868095D01*
X24304380Y79630000D01*
X24352000Y79487142D01*
X24447238Y79391904D01*
X24542476Y79344285D01*
X24732952Y79296666D01*
X24875809Y79296666D01*
X25066285Y79344285D01*
X25161523Y79391904D01*
X25256761Y79487142D01*
X25304380Y79630000D01*
X25304380Y79868095D01*
X24399619Y78915714D02*
X24352000Y78868095D01*
X24304380Y78772857D01*
X24304380Y78534761D01*
X24352000Y78439523D01*
X24399619Y78391904D01*
X24494857Y78344285D01*
X24590095Y78344285D01*
X24732952Y78391904D01*
X25304380Y78963333D01*
X25304380Y78344285D01*
X27082380Y79868095D02*
X26082380Y79868095D01*
X26082380Y79630000D01*
X26130000Y79487142D01*
X26225238Y79391904D01*
X26320476Y79344285D01*
X26510952Y79296666D01*
X26653809Y79296666D01*
X26844285Y79344285D01*
X26939523Y79391904D01*
X27034761Y79487142D01*
X27082380Y79630000D01*
X27082380Y79868095D01*
X27082380Y78344285D02*
X27082380Y78915714D01*
X27082380Y78630000D02*
X26082380Y78630000D01*
X26225238Y78725238D01*
X26320476Y78820476D01*
X26368095Y78915714D01*
X43354380Y72271904D02*
X44163904Y72271904D01*
X44259142Y72224285D01*
X44306761Y72176666D01*
X44354380Y72081428D01*
X44354380Y71890952D01*
X44306761Y71795714D01*
X44259142Y71748095D01*
X44163904Y71700476D01*
X43354380Y71700476D01*
X43354380Y71319523D02*
X43354380Y70700476D01*
X43735333Y71033809D01*
X43735333Y70890952D01*
X43782952Y70795714D01*
X43830571Y70748095D01*
X43925809Y70700476D01*
X44163904Y70700476D01*
X44259142Y70748095D01*
X44306761Y70795714D01*
X44354380Y70890952D01*
X44354380Y71176666D01*
X44306761Y71271904D01*
X44259142Y71319523D01*
X43354380Y60079904D02*
X44163904Y60079904D01*
X44259142Y60032285D01*
X44306761Y59984666D01*
X44354380Y59889428D01*
X44354380Y59698952D01*
X44306761Y59603714D01*
X44259142Y59556095D01*
X44163904Y59508476D01*
X43354380Y59508476D01*
X43449619Y59079904D02*
X43402000Y59032285D01*
X43354380Y58937047D01*
X43354380Y58698952D01*
X43402000Y58603714D01*
X43449619Y58556095D01*
X43544857Y58508476D01*
X43640095Y58508476D01*
X43782952Y58556095D01*
X44354380Y59127523D01*
X44354380Y58508476D01*
X28368380Y64651904D02*
X29177904Y64651904D01*
X29273142Y64604285D01*
X29320761Y64556666D01*
X29368380Y64461428D01*
X29368380Y64270952D01*
X29320761Y64175714D01*
X29273142Y64128095D01*
X29177904Y64080476D01*
X28368380Y64080476D01*
X29368380Y63080476D02*
X29368380Y63651904D01*
X29368380Y63366190D02*
X28368380Y63366190D01*
X28511238Y63461428D01*
X28606476Y63556666D01*
X28654095Y63651904D01*
X40544380Y77010666D02*
X40068190Y77344000D01*
X40544380Y77582095D02*
X39544380Y77582095D01*
X39544380Y77201142D01*
X39592000Y77105904D01*
X39639619Y77058285D01*
X39734857Y77010666D01*
X39877714Y77010666D01*
X39972952Y77058285D01*
X40020571Y77105904D01*
X40068190Y77201142D01*
X40068190Y77582095D01*
X40544380Y76534476D02*
X40544380Y76344000D01*
X40496761Y76248761D01*
X40449142Y76201142D01*
X40306285Y76105904D01*
X40115809Y76058285D01*
X39734857Y76058285D01*
X39639619Y76105904D01*
X39592000Y76153523D01*
X39544380Y76248761D01*
X39544380Y76439238D01*
X39592000Y76534476D01*
X39639619Y76582095D01*
X39734857Y76629714D01*
X39972952Y76629714D01*
X40068190Y76582095D01*
X40115809Y76534476D01*
X40163428Y76439238D01*
X40163428Y76248761D01*
X40115809Y76153523D01*
X40068190Y76105904D01*
X39972952Y76058285D01*
X43052666Y66485619D02*
X43386000Y66961809D01*
X43624095Y66485619D02*
X43624095Y67485619D01*
X43243142Y67485619D01*
X43147904Y67438000D01*
X43100285Y67390380D01*
X43052666Y67295142D01*
X43052666Y67152285D01*
X43100285Y67057047D01*
X43147904Y67009428D01*
X43243142Y66961809D01*
X43624095Y66961809D01*
X42481238Y67057047D02*
X42576476Y67104666D01*
X42624095Y67152285D01*
X42671714Y67247523D01*
X42671714Y67295142D01*
X42624095Y67390380D01*
X42576476Y67438000D01*
X42481238Y67485619D01*
X42290761Y67485619D01*
X42195523Y67438000D01*
X42147904Y67390380D01*
X42100285Y67295142D01*
X42100285Y67247523D01*
X42147904Y67152285D01*
X42195523Y67104666D01*
X42290761Y67057047D01*
X42481238Y67057047D01*
X42576476Y67009428D01*
X42624095Y66961809D01*
X42671714Y66866571D01*
X42671714Y66676095D01*
X42624095Y66580857D01*
X42576476Y66533238D01*
X42481238Y66485619D01*
X42290761Y66485619D01*
X42195523Y66533238D01*
X42147904Y66580857D01*
X42100285Y66676095D01*
X42100285Y66866571D01*
X42147904Y66961809D01*
X42195523Y67009428D01*
X42290761Y67057047D01*
X53752380Y83614666D02*
X53276190Y83948000D01*
X53752380Y84186095D02*
X52752380Y84186095D01*
X52752380Y83805142D01*
X52800000Y83709904D01*
X52847619Y83662285D01*
X52942857Y83614666D01*
X53085714Y83614666D01*
X53180952Y83662285D01*
X53228571Y83709904D01*
X53276190Y83805142D01*
X53276190Y84186095D01*
X52752380Y83281333D02*
X52752380Y82614666D01*
X53752380Y83043238D01*
X44100380Y77010666D02*
X43624190Y77344000D01*
X44100380Y77582095D02*
X43100380Y77582095D01*
X43100380Y77201142D01*
X43148000Y77105904D01*
X43195619Y77058285D01*
X43290857Y77010666D01*
X43433714Y77010666D01*
X43528952Y77058285D01*
X43576571Y77105904D01*
X43624190Y77201142D01*
X43624190Y77582095D01*
X43100380Y76153523D02*
X43100380Y76344000D01*
X43148000Y76439238D01*
X43195619Y76486857D01*
X43338476Y76582095D01*
X43528952Y76629714D01*
X43909904Y76629714D01*
X44005142Y76582095D01*
X44052761Y76534476D01*
X44100380Y76439238D01*
X44100380Y76248761D01*
X44052761Y76153523D01*
X44005142Y76105904D01*
X43909904Y76058285D01*
X43671809Y76058285D01*
X43576571Y76105904D01*
X43528952Y76153523D01*
X43481333Y76248761D01*
X43481333Y76439238D01*
X43528952Y76534476D01*
X43576571Y76582095D01*
X43671809Y76629714D01*
X53752380Y65834666D02*
X53276190Y66168000D01*
X53752380Y66406095D02*
X52752380Y66406095D01*
X52752380Y66025142D01*
X52800000Y65929904D01*
X52847619Y65882285D01*
X52942857Y65834666D01*
X53085714Y65834666D01*
X53180952Y65882285D01*
X53228571Y65929904D01*
X53276190Y66025142D01*
X53276190Y66406095D01*
X52752380Y64929904D02*
X52752380Y65406095D01*
X53228571Y65453714D01*
X53180952Y65406095D01*
X53133333Y65310857D01*
X53133333Y65072761D01*
X53180952Y64977523D01*
X53228571Y64929904D01*
X53323809Y64882285D01*
X53561904Y64882285D01*
X53657142Y64929904D01*
X53704761Y64977523D01*
X53752380Y65072761D01*
X53752380Y65310857D01*
X53704761Y65406095D01*
X53657142Y65453714D01*
X53752380Y62278666D02*
X53276190Y62612000D01*
X53752380Y62850095D02*
X52752380Y62850095D01*
X52752380Y62469142D01*
X52800000Y62373904D01*
X52847619Y62326285D01*
X52942857Y62278666D01*
X53085714Y62278666D01*
X53180952Y62326285D01*
X53228571Y62373904D01*
X53276190Y62469142D01*
X53276190Y62850095D01*
X53085714Y61421523D02*
X53752380Y61421523D01*
X52704761Y61659619D02*
X53419047Y61897714D01*
X53419047Y61278666D01*
X23526380Y87170666D02*
X23050190Y87504000D01*
X23526380Y87742095D02*
X22526380Y87742095D01*
X22526380Y87361142D01*
X22574000Y87265904D01*
X22621619Y87218285D01*
X22716857Y87170666D01*
X22859714Y87170666D01*
X22954952Y87218285D01*
X23002571Y87265904D01*
X23050190Y87361142D01*
X23050190Y87742095D01*
X23526380Y86218285D02*
X23526380Y86789714D01*
X23526380Y86504000D02*
X22526380Y86504000D01*
X22669238Y86599238D01*
X22764476Y86694476D01*
X22812095Y86789714D01*
X42219238Y80614380D02*
X42314476Y80662000D01*
X42409714Y80757238D01*
X42552571Y80900095D01*
X42647809Y80947714D01*
X42743047Y80947714D01*
X42695428Y80709619D02*
X42790666Y80757238D01*
X42885904Y80852476D01*
X42933523Y81042952D01*
X42933523Y81376285D01*
X42885904Y81566761D01*
X42790666Y81662000D01*
X42695428Y81709619D01*
X42504952Y81709619D01*
X42409714Y81662000D01*
X42314476Y81566761D01*
X42266857Y81376285D01*
X42266857Y81042952D01*
X42314476Y80852476D01*
X42409714Y80757238D01*
X42504952Y80709619D01*
X42695428Y80709619D01*
X41885904Y81614380D02*
X41838285Y81662000D01*
X41743047Y81709619D01*
X41504952Y81709619D01*
X41409714Y81662000D01*
X41362095Y81614380D01*
X41314476Y81519142D01*
X41314476Y81423904D01*
X41362095Y81281047D01*
X41933523Y80709619D01*
X41314476Y80709619D01*
X38663238Y80614380D02*
X38758476Y80662000D01*
X38853714Y80757238D01*
X38996571Y80900095D01*
X39091809Y80947714D01*
X39187047Y80947714D01*
X39139428Y80709619D02*
X39234666Y80757238D01*
X39329904Y80852476D01*
X39377523Y81042952D01*
X39377523Y81376285D01*
X39329904Y81566761D01*
X39234666Y81662000D01*
X39139428Y81709619D01*
X38948952Y81709619D01*
X38853714Y81662000D01*
X38758476Y81566761D01*
X38710857Y81376285D01*
X38710857Y81042952D01*
X38758476Y80852476D01*
X38853714Y80757238D01*
X38948952Y80709619D01*
X39139428Y80709619D01*
X37758476Y80709619D02*
X38329904Y80709619D01*
X38044190Y80709619D02*
X38044190Y81709619D01*
X38139428Y81566761D01*
X38234666Y81471523D01*
X38329904Y81423904D01*
X20383142Y85900666D02*
X20430761Y85948285D01*
X20478380Y86091142D01*
X20478380Y86186380D01*
X20430761Y86329238D01*
X20335523Y86424476D01*
X20240285Y86472095D01*
X20049809Y86519714D01*
X19906952Y86519714D01*
X19716476Y86472095D01*
X19621238Y86424476D01*
X19526000Y86329238D01*
X19478380Y86186380D01*
X19478380Y86091142D01*
X19526000Y85948285D01*
X19573619Y85900666D01*
X19478380Y84995904D02*
X19478380Y85472095D01*
X19954571Y85519714D01*
X19906952Y85472095D01*
X19859333Y85376857D01*
X19859333Y85138761D01*
X19906952Y85043523D01*
X19954571Y84995904D01*
X20049809Y84948285D01*
X20287904Y84948285D01*
X20383142Y84995904D01*
X20430761Y85043523D01*
X20478380Y85138761D01*
X20478380Y85376857D01*
X20430761Y85472095D01*
X20383142Y85519714D01*
X18605142Y85900666D02*
X18652761Y85948285D01*
X18700380Y86091142D01*
X18700380Y86186380D01*
X18652761Y86329238D01*
X18557523Y86424476D01*
X18462285Y86472095D01*
X18271809Y86519714D01*
X18128952Y86519714D01*
X17938476Y86472095D01*
X17843238Y86424476D01*
X17748000Y86329238D01*
X17700380Y86186380D01*
X17700380Y86091142D01*
X17748000Y85948285D01*
X17795619Y85900666D01*
X18033714Y85043523D02*
X18700380Y85043523D01*
X17652761Y85281619D02*
X18367047Y85519714D01*
X18367047Y84900666D01*
X22669142Y64056666D02*
X22716761Y64104285D01*
X22764380Y64247142D01*
X22764380Y64342380D01*
X22716761Y64485238D01*
X22621523Y64580476D01*
X22526285Y64628095D01*
X22335809Y64675714D01*
X22192952Y64675714D01*
X22002476Y64628095D01*
X21907238Y64580476D01*
X21812000Y64485238D01*
X21764380Y64342380D01*
X21764380Y64247142D01*
X21812000Y64104285D01*
X21859619Y64056666D01*
X21764380Y63723333D02*
X21764380Y63104285D01*
X22145333Y63437619D01*
X22145333Y63294761D01*
X22192952Y63199523D01*
X22240571Y63151904D01*
X22335809Y63104285D01*
X22573904Y63104285D01*
X22669142Y63151904D01*
X22716761Y63199523D01*
X22764380Y63294761D01*
X22764380Y63580476D01*
X22716761Y63675714D01*
X22669142Y63723333D01*
X19176666Y78010857D02*
X19224285Y77963238D01*
X19367142Y77915619D01*
X19462380Y77915619D01*
X19605238Y77963238D01*
X19700476Y78058476D01*
X19748095Y78153714D01*
X19795714Y78344190D01*
X19795714Y78487047D01*
X19748095Y78677523D01*
X19700476Y78772761D01*
X19605238Y78868000D01*
X19462380Y78915619D01*
X19367142Y78915619D01*
X19224285Y78868000D01*
X19176666Y78820380D01*
X18795714Y78820380D02*
X18748095Y78868000D01*
X18652857Y78915619D01*
X18414761Y78915619D01*
X18319523Y78868000D01*
X18271904Y78820380D01*
X18224285Y78725142D01*
X18224285Y78629904D01*
X18271904Y78487047D01*
X18843333Y77915619D01*
X18224285Y77915619D01*
X19176666Y79788857D02*
X19224285Y79741238D01*
X19367142Y79693619D01*
X19462380Y79693619D01*
X19605238Y79741238D01*
X19700476Y79836476D01*
X19748095Y79931714D01*
X19795714Y80122190D01*
X19795714Y80265047D01*
X19748095Y80455523D01*
X19700476Y80550761D01*
X19605238Y80646000D01*
X19462380Y80693619D01*
X19367142Y80693619D01*
X19224285Y80646000D01*
X19176666Y80598380D01*
X18224285Y79693619D02*
X18795714Y79693619D01*
X18510000Y79693619D02*
X18510000Y80693619D01*
X18605238Y80550761D01*
X18700476Y80455523D01*
X18795714Y80407904D01*
M02*
