G04 #@! TF.GenerationSoftware,KiCad,Pcbnew,(5.1.5)-3*
G04 #@! TF.CreationDate,2022-04-02T01:18:13+03:00*
G04 #@! TF.ProjectId,USB-UART_PANEL,5553422d-5541-4525-945f-50414e454c2e,rev?*
G04 #@! TF.SameCoordinates,Original*
G04 #@! TF.FileFunction,Legend,Top*
G04 #@! TF.FilePolarity,Positive*
%FSLAX46Y46*%
G04 Gerber Fmt 4.6, Leading zero omitted, Abs format (unit mm)*
G04 Created by KiCad (PCBNEW (5.1.5)-3) date 2022-04-02 01:18:13*
%MOMM*%
%LPD*%
G04 APERTURE LIST*
%ADD10C,0.050000*%
%ADD11C,0.150000*%
%ADD12C,0.120000*%
G04 APERTURE END LIST*
D10*
X0Y100000000D02*
X0Y0D01*
X65000000Y100000000D02*
X0Y100000000D01*
X65000000Y0D02*
X65000000Y100000000D01*
X0Y0D02*
X65000000Y0D01*
D11*
X28154000Y45520000D02*
X28154000Y12500000D01*
X52538000Y45520000D02*
X52538000Y15040000D01*
X28154000Y45520000D02*
X52538000Y45520000D01*
X52538000Y15040000D02*
X49998000Y12500000D01*
X49998000Y12500000D02*
X28154000Y12500000D01*
D10*
X2500000Y22914000D02*
X2500000Y35106000D01*
X11898000Y22914000D02*
X2500000Y22914000D01*
X11898000Y12500000D02*
X11898000Y22914000D01*
X60920000Y12500000D02*
X11898000Y12500000D01*
X60920000Y45520000D02*
X60920000Y12500000D01*
X11898000Y45520000D02*
X60920000Y45520000D01*
X11898000Y35106000D02*
X11898000Y45520000D01*
X2500000Y35106000D02*
X11898000Y35106000D01*
D11*
X28154000Y88020000D02*
X28154000Y55000000D01*
X52538000Y88020000D02*
X52538000Y57540000D01*
X28154000Y88020000D02*
X52538000Y88020000D01*
X52538000Y57540000D02*
X49998000Y55000000D01*
X49998000Y55000000D02*
X28154000Y55000000D01*
D10*
X2500000Y65414000D02*
X2500000Y77606000D01*
X11898000Y65414000D02*
X2500000Y65414000D01*
X11898000Y55000000D02*
X11898000Y65414000D01*
X60920000Y55000000D02*
X11898000Y55000000D01*
X60920000Y88020000D02*
X60920000Y55000000D01*
X11898000Y88020000D02*
X60920000Y88020000D01*
X11898000Y77606000D02*
X11898000Y88020000D01*
X2500000Y77606000D02*
X11898000Y77606000D01*
D12*
X53046000Y16310000D02*
X60666000Y16310000D01*
X53046000Y41710000D02*
X60666000Y41710000D01*
X53046000Y16310000D02*
X53046000Y41710000D01*
X59396000Y16310000D02*
X59396000Y41710000D01*
X60666000Y16310000D02*
X60666000Y41710000D01*
X22289000Y37407000D02*
G75*
G03X22289000Y42457000I0J2525000D01*
G01*
X16039000Y37407000D02*
G75*
G02X16039000Y42457000I0J2525000D01*
G01*
X16039000Y37407000D02*
X22289000Y37407000D01*
X16039000Y42457000D02*
X22289000Y42457000D01*
X31456000Y16250000D02*
X30126000Y16250000D01*
X30126000Y16250000D02*
X30126000Y17580000D01*
X32726000Y16250000D02*
X32726000Y18850000D01*
X32726000Y18850000D02*
X30126000Y18850000D01*
X30126000Y18850000D02*
X30126000Y41770000D01*
X35326000Y41770000D02*
X30126000Y41770000D01*
X35326000Y16250000D02*
X35326000Y41770000D01*
X35326000Y16250000D02*
X32726000Y16250000D01*
X46696000Y16250000D02*
X45366000Y16250000D01*
X45366000Y16250000D02*
X45366000Y17580000D01*
X47966000Y16250000D02*
X47966000Y18850000D01*
X47966000Y18850000D02*
X45366000Y18850000D01*
X45366000Y18850000D02*
X45366000Y41770000D01*
X50566000Y41770000D02*
X45366000Y41770000D01*
X50566000Y16250000D02*
X50566000Y41770000D01*
X50566000Y16250000D02*
X47966000Y16250000D01*
X12854000Y35420000D02*
X14184000Y35420000D01*
X12854000Y34090000D02*
X12854000Y35420000D01*
X12854000Y32820000D02*
X15514000Y32820000D01*
X15514000Y32820000D02*
X15514000Y22600000D01*
X12854000Y32820000D02*
X12854000Y22600000D01*
X12854000Y22600000D02*
X15514000Y22600000D01*
X53046000Y58810000D02*
X60666000Y58810000D01*
X53046000Y84210000D02*
X60666000Y84210000D01*
X53046000Y58810000D02*
X53046000Y84210000D01*
X59396000Y58810000D02*
X59396000Y84210000D01*
X60666000Y58810000D02*
X60666000Y84210000D01*
X22289000Y79907000D02*
G75*
G03X22289000Y84957000I0J2525000D01*
G01*
X16039000Y79907000D02*
G75*
G02X16039000Y84957000I0J2525000D01*
G01*
X16039000Y79907000D02*
X22289000Y79907000D01*
X16039000Y84957000D02*
X22289000Y84957000D01*
X31456000Y58750000D02*
X30126000Y58750000D01*
X30126000Y58750000D02*
X30126000Y60080000D01*
X32726000Y58750000D02*
X32726000Y61350000D01*
X32726000Y61350000D02*
X30126000Y61350000D01*
X30126000Y61350000D02*
X30126000Y84270000D01*
X35326000Y84270000D02*
X30126000Y84270000D01*
X35326000Y58750000D02*
X35326000Y84270000D01*
X35326000Y58750000D02*
X32726000Y58750000D01*
X46696000Y58750000D02*
X45366000Y58750000D01*
X45366000Y58750000D02*
X45366000Y60080000D01*
X47966000Y58750000D02*
X47966000Y61350000D01*
X47966000Y61350000D02*
X45366000Y61350000D01*
X45366000Y61350000D02*
X45366000Y84270000D01*
X50566000Y84270000D02*
X45366000Y84270000D01*
X50566000Y58750000D02*
X50566000Y84270000D01*
X50566000Y58750000D02*
X47966000Y58750000D01*
X12854000Y77920000D02*
X14184000Y77920000D01*
X12854000Y76590000D02*
X12854000Y77920000D01*
X12854000Y75320000D02*
X15514000Y75320000D01*
X15514000Y75320000D02*
X15514000Y65100000D01*
X12854000Y75320000D02*
X12854000Y65100000D01*
X12854000Y65100000D02*
X15514000Y65100000D01*
D11*
X56522666Y15587619D02*
X56522666Y14873333D01*
X56475047Y14730476D01*
X56379809Y14635238D01*
X56236952Y14587619D01*
X56141714Y14587619D01*
X56903619Y15587619D02*
X57522666Y15587619D01*
X57189333Y15206666D01*
X57332190Y15206666D01*
X57427428Y15159047D01*
X57475047Y15111428D01*
X57522666Y15016190D01*
X57522666Y14778095D01*
X57475047Y14682857D01*
X57427428Y14635238D01*
X57332190Y14587619D01*
X57046476Y14587619D01*
X56951238Y14635238D01*
X56903619Y14682857D01*
X18687809Y43257809D02*
X18687809Y42781619D01*
X18354476Y43781619D02*
X18687809Y43257809D01*
X19021142Y43781619D01*
X19878285Y42781619D02*
X19306857Y42781619D01*
X19592571Y42781619D02*
X19592571Y43781619D01*
X19497333Y43638761D01*
X19402095Y43543523D01*
X19306857Y43495904D01*
X32392666Y15587619D02*
X32392666Y14873333D01*
X32345047Y14730476D01*
X32249809Y14635238D01*
X32106952Y14587619D01*
X32011714Y14587619D01*
X33345047Y15587619D02*
X32868857Y15587619D01*
X32821238Y15111428D01*
X32868857Y15159047D01*
X32964095Y15206666D01*
X33202190Y15206666D01*
X33297428Y15159047D01*
X33345047Y15111428D01*
X33392666Y15016190D01*
X33392666Y14778095D01*
X33345047Y14682857D01*
X33297428Y14635238D01*
X33202190Y14587619D01*
X32964095Y14587619D01*
X32868857Y14635238D01*
X32821238Y14682857D01*
X47632666Y15587619D02*
X47632666Y14873333D01*
X47585047Y14730476D01*
X47489809Y14635238D01*
X47346952Y14587619D01*
X47251714Y14587619D01*
X48537428Y15254285D02*
X48537428Y14587619D01*
X48299333Y15635238D02*
X48061238Y14920952D01*
X48680285Y14920952D01*
X13850666Y21937619D02*
X13850666Y21223333D01*
X13803047Y21080476D01*
X13707809Y20985238D01*
X13564952Y20937619D01*
X13469714Y20937619D01*
X14850666Y20937619D02*
X14279238Y20937619D01*
X14564952Y20937619D02*
X14564952Y21937619D01*
X14469714Y21794761D01*
X14374476Y21699523D01*
X14279238Y21651904D01*
X56522666Y58087619D02*
X56522666Y57373333D01*
X56475047Y57230476D01*
X56379809Y57135238D01*
X56236952Y57087619D01*
X56141714Y57087619D01*
X56903619Y58087619D02*
X57522666Y58087619D01*
X57189333Y57706666D01*
X57332190Y57706666D01*
X57427428Y57659047D01*
X57475047Y57611428D01*
X57522666Y57516190D01*
X57522666Y57278095D01*
X57475047Y57182857D01*
X57427428Y57135238D01*
X57332190Y57087619D01*
X57046476Y57087619D01*
X56951238Y57135238D01*
X56903619Y57182857D01*
X18687809Y85757809D02*
X18687809Y85281619D01*
X18354476Y86281619D02*
X18687809Y85757809D01*
X19021142Y86281619D01*
X19878285Y85281619D02*
X19306857Y85281619D01*
X19592571Y85281619D02*
X19592571Y86281619D01*
X19497333Y86138761D01*
X19402095Y86043523D01*
X19306857Y85995904D01*
X32392666Y58087619D02*
X32392666Y57373333D01*
X32345047Y57230476D01*
X32249809Y57135238D01*
X32106952Y57087619D01*
X32011714Y57087619D01*
X33345047Y58087619D02*
X32868857Y58087619D01*
X32821238Y57611428D01*
X32868857Y57659047D01*
X32964095Y57706666D01*
X33202190Y57706666D01*
X33297428Y57659047D01*
X33345047Y57611428D01*
X33392666Y57516190D01*
X33392666Y57278095D01*
X33345047Y57182857D01*
X33297428Y57135238D01*
X33202190Y57087619D01*
X32964095Y57087619D01*
X32868857Y57135238D01*
X32821238Y57182857D01*
X47632666Y58087619D02*
X47632666Y57373333D01*
X47585047Y57230476D01*
X47489809Y57135238D01*
X47346952Y57087619D01*
X47251714Y57087619D01*
X48537428Y57754285D02*
X48537428Y57087619D01*
X48299333Y58135238D02*
X48061238Y57420952D01*
X48680285Y57420952D01*
X13850666Y64437619D02*
X13850666Y63723333D01*
X13803047Y63580476D01*
X13707809Y63485238D01*
X13564952Y63437619D01*
X13469714Y63437619D01*
X14850666Y63437619D02*
X14279238Y63437619D01*
X14564952Y63437619D02*
X14564952Y64437619D01*
X14469714Y64294761D01*
X14374476Y64199523D01*
X14279238Y64151904D01*
M02*
