G04 #@! TF.GenerationSoftware,KiCad,Pcbnew,(5.1.5)-3*
G04 #@! TF.CreationDate,2022-01-02T05:02:30+03:00*
G04 #@! TF.ProjectId,Test,54657374-2e6b-4696-9361-645f70636258,rev?*
G04 #@! TF.SameCoordinates,Original*
G04 #@! TF.FileFunction,Legend,Top*
G04 #@! TF.FilePolarity,Positive*
%FSLAX46Y46*%
G04 Gerber Fmt 4.6, Leading zero omitted, Abs format (unit mm)*
G04 Created by KiCad (PCBNEW (5.1.5)-3) date 2022-01-02 05:02:30*
%MOMM*%
%LPD*%
G04 APERTURE LIST*
%ADD10C,0.120000*%
%ADD11C,0.150000*%
G04 APERTURE END LIST*
D10*
X37429221Y-81790000D02*
X37754779Y-81790000D01*
X37429221Y-80770000D02*
X37754779Y-80770000D01*
X42633000Y-80545000D02*
X40348000Y-80545000D01*
X42633000Y-82015000D02*
X42633000Y-80545000D01*
X40348000Y-82015000D02*
X42633000Y-82015000D01*
X30642779Y-81790000D02*
X30317221Y-81790000D01*
X30642779Y-80770000D02*
X30317221Y-80770000D01*
X27176000Y-65623221D02*
X27176000Y-65948779D01*
X28196000Y-65623221D02*
X28196000Y-65948779D01*
X33780000Y-65948779D02*
X33780000Y-65623221D01*
X34800000Y-65948779D02*
X34800000Y-65623221D01*
X32095221Y-84838000D02*
X32420779Y-84838000D01*
X32095221Y-83818000D02*
X32420779Y-83818000D01*
X26672000Y-83657221D02*
X26672000Y-83982779D01*
X25652000Y-83657221D02*
X25652000Y-83982779D01*
X28099936Y-91842000D02*
X29304064Y-91842000D01*
X28099936Y-90022000D02*
X29304064Y-90022000D01*
X24224064Y-91842000D02*
X23019936Y-91842000D01*
X24224064Y-90022000D02*
X23019936Y-90022000D01*
X38448064Y-90022000D02*
X37243936Y-90022000D01*
X38448064Y-91842000D02*
X37243936Y-91842000D01*
X42270000Y-85692064D02*
X42270000Y-84487936D01*
X44090000Y-85692064D02*
X44090000Y-84487936D01*
X28868000Y-85574000D02*
X30568000Y-85574000D01*
X30568000Y-85574000D02*
X30568000Y-83024000D01*
X28868000Y-85574000D02*
X28868000Y-83024000D01*
X34416000Y-85246000D02*
X31116000Y-85246000D01*
X31116000Y-85246000D02*
X31116000Y-90646000D01*
X34416000Y-85246000D02*
X34416000Y-90646000D01*
X25340000Y-60138000D02*
X25340000Y-62798000D01*
X38100000Y-60138000D02*
X25340000Y-60138000D01*
X38100000Y-62798000D02*
X25340000Y-62798000D01*
X38100000Y-60138000D02*
X38100000Y-62798000D01*
X39370000Y-60138000D02*
X40700000Y-60138000D01*
X40700000Y-60138000D02*
X40700000Y-61468000D01*
X41200000Y-89460000D02*
X35000000Y-89460000D01*
X35000000Y-89460000D02*
X35000000Y-89010000D01*
X35000000Y-83260000D02*
X41200000Y-83260000D01*
X35000000Y-83260000D02*
X35000000Y-83710000D01*
X41200000Y-83260000D02*
X41200000Y-83710000D01*
X41200000Y-89460000D02*
X41200000Y-89010000D01*
X33873221Y-80770000D02*
X34198779Y-80770000D01*
X33873221Y-81790000D02*
X34198779Y-81790000D01*
X28700000Y-65623221D02*
X28700000Y-65948779D01*
X29720000Y-65623221D02*
X29720000Y-65948779D01*
X38102000Y-65948779D02*
X38102000Y-65623221D01*
X37082000Y-65948779D02*
X37082000Y-65623221D01*
X35558000Y-65948779D02*
X35558000Y-65623221D01*
X36578000Y-65948779D02*
X36578000Y-65623221D01*
X28196000Y-83657221D02*
X28196000Y-83982779D01*
X27176000Y-83657221D02*
X27176000Y-83982779D01*
X26672000Y-86705221D02*
X26672000Y-87030779D01*
X25652000Y-86705221D02*
X25652000Y-87030779D01*
X23960000Y-74676000D02*
X23960000Y-78536000D01*
X23960000Y-78536000D02*
X24205000Y-78536000D01*
X23960000Y-74676000D02*
X23960000Y-70816000D01*
X23960000Y-70816000D02*
X24205000Y-70816000D01*
X42080000Y-74676000D02*
X42080000Y-78536000D01*
X42080000Y-78536000D02*
X41835000Y-78536000D01*
X42080000Y-74676000D02*
X42080000Y-70816000D01*
X42080000Y-70816000D02*
X41835000Y-70816000D01*
X41835000Y-70816000D02*
X41835000Y-69001000D01*
X27092000Y-86730000D02*
X27092000Y-88530000D01*
X30312000Y-88530000D02*
X30312000Y-86080000D01*
X33400000Y-64294000D02*
X30100000Y-64294000D01*
X30100000Y-64294000D02*
X30100000Y-68294000D01*
D11*
X37425333Y-83002380D02*
X37092000Y-82526190D01*
X36853904Y-83002380D02*
X36853904Y-82002380D01*
X37234857Y-82002380D01*
X37330095Y-82050000D01*
X37377714Y-82097619D01*
X37425333Y-82192857D01*
X37425333Y-82335714D01*
X37377714Y-82430952D01*
X37330095Y-82478571D01*
X37234857Y-82526190D01*
X36853904Y-82526190D01*
X37901523Y-83002380D02*
X38092000Y-83002380D01*
X38187238Y-82954761D01*
X38234857Y-82907142D01*
X38330095Y-82764285D01*
X38377714Y-82573809D01*
X38377714Y-82192857D01*
X38330095Y-82097619D01*
X38282476Y-82050000D01*
X38187238Y-82002380D01*
X37996761Y-82002380D01*
X37901523Y-82050000D01*
X37853904Y-82097619D01*
X37806285Y-82192857D01*
X37806285Y-82430952D01*
X37853904Y-82526190D01*
X37901523Y-82573809D01*
X37996761Y-82621428D01*
X38187238Y-82621428D01*
X38282476Y-82573809D01*
X38330095Y-82526190D01*
X38377714Y-82430952D01*
X42949904Y-81732380D02*
X42949904Y-80732380D01*
X43188000Y-80732380D01*
X43330857Y-80780000D01*
X43426095Y-80875238D01*
X43473714Y-80970476D01*
X43521333Y-81160952D01*
X43521333Y-81303809D01*
X43473714Y-81494285D01*
X43426095Y-81589523D01*
X43330857Y-81684761D01*
X43188000Y-81732380D01*
X42949904Y-81732380D01*
X44378476Y-80732380D02*
X44188000Y-80732380D01*
X44092761Y-80780000D01*
X44045142Y-80827619D01*
X43949904Y-80970476D01*
X43902285Y-81160952D01*
X43902285Y-81541904D01*
X43949904Y-81637142D01*
X43997523Y-81684761D01*
X44092761Y-81732380D01*
X44283238Y-81732380D01*
X44378476Y-81684761D01*
X44426095Y-81637142D01*
X44473714Y-81541904D01*
X44473714Y-81303809D01*
X44426095Y-81208571D01*
X44378476Y-81160952D01*
X44283238Y-81113333D01*
X44092761Y-81113333D01*
X43997523Y-81160952D01*
X43949904Y-81208571D01*
X43902285Y-81303809D01*
X28027333Y-81637142D02*
X27979714Y-81684761D01*
X27836857Y-81732380D01*
X27741619Y-81732380D01*
X27598761Y-81684761D01*
X27503523Y-81589523D01*
X27455904Y-81494285D01*
X27408285Y-81303809D01*
X27408285Y-81160952D01*
X27455904Y-80970476D01*
X27503523Y-80875238D01*
X27598761Y-80780000D01*
X27741619Y-80732380D01*
X27836857Y-80732380D01*
X27979714Y-80780000D01*
X28027333Y-80827619D01*
X28979714Y-81732380D02*
X28408285Y-81732380D01*
X28694000Y-81732380D02*
X28694000Y-80732380D01*
X28598761Y-80875238D01*
X28503523Y-80970476D01*
X28408285Y-81018095D01*
X28043142Y-68238666D02*
X28090761Y-68286285D01*
X28138380Y-68429142D01*
X28138380Y-68524380D01*
X28090761Y-68667238D01*
X27995523Y-68762476D01*
X27900285Y-68810095D01*
X27709809Y-68857714D01*
X27566952Y-68857714D01*
X27376476Y-68810095D01*
X27281238Y-68762476D01*
X27186000Y-68667238D01*
X27138380Y-68524380D01*
X27138380Y-68429142D01*
X27186000Y-68286285D01*
X27233619Y-68238666D01*
X27233619Y-67857714D02*
X27186000Y-67810095D01*
X27138380Y-67714857D01*
X27138380Y-67476761D01*
X27186000Y-67381523D01*
X27233619Y-67333904D01*
X27328857Y-67286285D01*
X27424095Y-67286285D01*
X27566952Y-67333904D01*
X28138380Y-67905333D01*
X28138380Y-67286285D01*
X34647142Y-68238666D02*
X34694761Y-68286285D01*
X34742380Y-68429142D01*
X34742380Y-68524380D01*
X34694761Y-68667238D01*
X34599523Y-68762476D01*
X34504285Y-68810095D01*
X34313809Y-68857714D01*
X34170952Y-68857714D01*
X33980476Y-68810095D01*
X33885238Y-68762476D01*
X33790000Y-68667238D01*
X33742380Y-68524380D01*
X33742380Y-68429142D01*
X33790000Y-68286285D01*
X33837619Y-68238666D01*
X33742380Y-67905333D02*
X33742380Y-67286285D01*
X34123333Y-67619619D01*
X34123333Y-67476761D01*
X34170952Y-67381523D01*
X34218571Y-67333904D01*
X34313809Y-67286285D01*
X34551904Y-67286285D01*
X34647142Y-67333904D01*
X34694761Y-67381523D01*
X34742380Y-67476761D01*
X34742380Y-67762476D01*
X34694761Y-67857714D01*
X34647142Y-67905333D01*
X31837333Y-83415142D02*
X31789714Y-83462761D01*
X31646857Y-83510380D01*
X31551619Y-83510380D01*
X31408761Y-83462761D01*
X31313523Y-83367523D01*
X31265904Y-83272285D01*
X31218285Y-83081809D01*
X31218285Y-82938952D01*
X31265904Y-82748476D01*
X31313523Y-82653238D01*
X31408761Y-82558000D01*
X31551619Y-82510380D01*
X31646857Y-82510380D01*
X31789714Y-82558000D01*
X31837333Y-82605619D01*
X32694476Y-82510380D02*
X32504000Y-82510380D01*
X32408761Y-82558000D01*
X32361142Y-82605619D01*
X32265904Y-82748476D01*
X32218285Y-82938952D01*
X32218285Y-83319904D01*
X32265904Y-83415142D01*
X32313523Y-83462761D01*
X32408761Y-83510380D01*
X32599238Y-83510380D01*
X32694476Y-83462761D01*
X32742095Y-83415142D01*
X32789714Y-83319904D01*
X32789714Y-83081809D01*
X32742095Y-82986571D01*
X32694476Y-82938952D01*
X32599238Y-82891333D01*
X32408761Y-82891333D01*
X32313523Y-82938952D01*
X32265904Y-82986571D01*
X32218285Y-83081809D01*
X26519142Y-81700666D02*
X26566761Y-81748285D01*
X26614380Y-81891142D01*
X26614380Y-81986380D01*
X26566761Y-82129238D01*
X26471523Y-82224476D01*
X26376285Y-82272095D01*
X26185809Y-82319714D01*
X26042952Y-82319714D01*
X25852476Y-82272095D01*
X25757238Y-82224476D01*
X25662000Y-82129238D01*
X25614380Y-81986380D01*
X25614380Y-81891142D01*
X25662000Y-81748285D01*
X25709619Y-81700666D01*
X25614380Y-81367333D02*
X25614380Y-80700666D01*
X26614380Y-81129238D01*
X25995333Y-89511142D02*
X25947714Y-89558761D01*
X25804857Y-89606380D01*
X25709619Y-89606380D01*
X25566761Y-89558761D01*
X25471523Y-89463523D01*
X25423904Y-89368285D01*
X25376285Y-89177809D01*
X25376285Y-89034952D01*
X25423904Y-88844476D01*
X25471523Y-88749238D01*
X25566761Y-88654000D01*
X25709619Y-88606380D01*
X25804857Y-88606380D01*
X25947714Y-88654000D01*
X25995333Y-88701619D01*
X26566761Y-89034952D02*
X26471523Y-88987333D01*
X26423904Y-88939714D01*
X26376285Y-88844476D01*
X26376285Y-88796857D01*
X26423904Y-88701619D01*
X26471523Y-88654000D01*
X26566761Y-88606380D01*
X26757238Y-88606380D01*
X26852476Y-88654000D01*
X26900095Y-88701619D01*
X26947714Y-88796857D01*
X26947714Y-88844476D01*
X26900095Y-88939714D01*
X26852476Y-88987333D01*
X26757238Y-89034952D01*
X26566761Y-89034952D01*
X26471523Y-89082571D01*
X26423904Y-89130190D01*
X26376285Y-89225428D01*
X26376285Y-89415904D01*
X26423904Y-89511142D01*
X26471523Y-89558761D01*
X26566761Y-89606380D01*
X26757238Y-89606380D01*
X26852476Y-89558761D01*
X26900095Y-89511142D01*
X26947714Y-89415904D01*
X26947714Y-89225428D01*
X26900095Y-89130190D01*
X26852476Y-89082571D01*
X26757238Y-89034952D01*
X23455333Y-89511142D02*
X23407714Y-89558761D01*
X23264857Y-89606380D01*
X23169619Y-89606380D01*
X23026761Y-89558761D01*
X22931523Y-89463523D01*
X22883904Y-89368285D01*
X22836285Y-89177809D01*
X22836285Y-89034952D01*
X22883904Y-88844476D01*
X22931523Y-88749238D01*
X23026761Y-88654000D01*
X23169619Y-88606380D01*
X23264857Y-88606380D01*
X23407714Y-88654000D01*
X23455333Y-88701619D01*
X23931523Y-89606380D02*
X24122000Y-89606380D01*
X24217238Y-89558761D01*
X24264857Y-89511142D01*
X24360095Y-89368285D01*
X24407714Y-89177809D01*
X24407714Y-88796857D01*
X24360095Y-88701619D01*
X24312476Y-88654000D01*
X24217238Y-88606380D01*
X24026761Y-88606380D01*
X23931523Y-88654000D01*
X23883904Y-88701619D01*
X23836285Y-88796857D01*
X23836285Y-89034952D01*
X23883904Y-89130190D01*
X23931523Y-89177809D01*
X24026761Y-89225428D01*
X24217238Y-89225428D01*
X24312476Y-89177809D01*
X24360095Y-89130190D01*
X24407714Y-89034952D01*
X40759142Y-91289142D02*
X40711523Y-91336761D01*
X40568666Y-91384380D01*
X40473428Y-91384380D01*
X40330571Y-91336761D01*
X40235333Y-91241523D01*
X40187714Y-91146285D01*
X40140095Y-90955809D01*
X40140095Y-90812952D01*
X40187714Y-90622476D01*
X40235333Y-90527238D01*
X40330571Y-90432000D01*
X40473428Y-90384380D01*
X40568666Y-90384380D01*
X40711523Y-90432000D01*
X40759142Y-90479619D01*
X41711523Y-91384380D02*
X41140095Y-91384380D01*
X41425809Y-91384380D02*
X41425809Y-90384380D01*
X41330571Y-90527238D01*
X41235333Y-90622476D01*
X41140095Y-90670095D01*
X42330571Y-90384380D02*
X42425809Y-90384380D01*
X42521047Y-90432000D01*
X42568666Y-90479619D01*
X42616285Y-90574857D01*
X42663904Y-90765333D01*
X42663904Y-91003428D01*
X42616285Y-91193904D01*
X42568666Y-91289142D01*
X42521047Y-91336761D01*
X42425809Y-91384380D01*
X42330571Y-91384380D01*
X42235333Y-91336761D01*
X42187714Y-91289142D01*
X42140095Y-91193904D01*
X42092476Y-91003428D01*
X42092476Y-90765333D01*
X42140095Y-90574857D01*
X42187714Y-90479619D01*
X42235333Y-90432000D01*
X42330571Y-90384380D01*
X43537142Y-89288857D02*
X43584761Y-89336476D01*
X43632380Y-89479333D01*
X43632380Y-89574571D01*
X43584761Y-89717428D01*
X43489523Y-89812666D01*
X43394285Y-89860285D01*
X43203809Y-89907904D01*
X43060952Y-89907904D01*
X42870476Y-89860285D01*
X42775238Y-89812666D01*
X42680000Y-89717428D01*
X42632380Y-89574571D01*
X42632380Y-89479333D01*
X42680000Y-89336476D01*
X42727619Y-89288857D01*
X43632380Y-88336476D02*
X43632380Y-88907904D01*
X43632380Y-88622190D02*
X42632380Y-88622190D01*
X42775238Y-88717428D01*
X42870476Y-88812666D01*
X42918095Y-88907904D01*
X43632380Y-87384095D02*
X43632380Y-87955523D01*
X43632380Y-87669809D02*
X42632380Y-87669809D01*
X42775238Y-87765047D01*
X42870476Y-87860285D01*
X42918095Y-87955523D01*
X25344380Y-84812095D02*
X24344380Y-84812095D01*
X24344380Y-84574000D01*
X24392000Y-84431142D01*
X24487238Y-84335904D01*
X24582476Y-84288285D01*
X24772952Y-84240666D01*
X24915809Y-84240666D01*
X25106285Y-84288285D01*
X25201523Y-84335904D01*
X25296761Y-84431142D01*
X25344380Y-84574000D01*
X25344380Y-84812095D01*
X24439619Y-83859714D02*
X24392000Y-83812095D01*
X24344380Y-83716857D01*
X24344380Y-83478761D01*
X24392000Y-83383523D01*
X24439619Y-83335904D01*
X24534857Y-83288285D01*
X24630095Y-83288285D01*
X24772952Y-83335904D01*
X25344380Y-83907333D01*
X25344380Y-83288285D01*
X34059904Y-91892380D02*
X34059904Y-90892380D01*
X34298000Y-90892380D01*
X34440857Y-90940000D01*
X34536095Y-91035238D01*
X34583714Y-91130476D01*
X34631333Y-91320952D01*
X34631333Y-91463809D01*
X34583714Y-91654285D01*
X34536095Y-91749523D01*
X34440857Y-91844761D01*
X34298000Y-91892380D01*
X34059904Y-91892380D01*
X35536095Y-90892380D02*
X35059904Y-90892380D01*
X35012285Y-91368571D01*
X35059904Y-91320952D01*
X35155142Y-91273333D01*
X35393238Y-91273333D01*
X35488476Y-91320952D01*
X35536095Y-91368571D01*
X35583714Y-91463809D01*
X35583714Y-91701904D01*
X35536095Y-91797142D01*
X35488476Y-91844761D01*
X35393238Y-91892380D01*
X35155142Y-91892380D01*
X35059904Y-91844761D01*
X35012285Y-91797142D01*
X41152380Y-61801333D02*
X41866666Y-61801333D01*
X42009523Y-61848952D01*
X42104761Y-61944190D01*
X42152380Y-62087047D01*
X42152380Y-62182285D01*
X41152380Y-61420380D02*
X41152380Y-60801333D01*
X41533333Y-61134666D01*
X41533333Y-60991809D01*
X41580952Y-60896571D01*
X41628571Y-60848952D01*
X41723809Y-60801333D01*
X41961904Y-60801333D01*
X42057142Y-60848952D01*
X42104761Y-60896571D01*
X42152380Y-60991809D01*
X42152380Y-61277523D01*
X42104761Y-61372761D01*
X42057142Y-61420380D01*
X40219333Y-83002380D02*
X39743142Y-83002380D01*
X39743142Y-82002380D01*
X41076476Y-83002380D02*
X40505047Y-83002380D01*
X40790761Y-83002380D02*
X40790761Y-82002380D01*
X40695523Y-82145238D01*
X40600285Y-82240476D01*
X40505047Y-82288095D01*
X33869333Y-83002380D02*
X33536000Y-82526190D01*
X33297904Y-83002380D02*
X33297904Y-82002380D01*
X33678857Y-82002380D01*
X33774095Y-82050000D01*
X33821714Y-82097619D01*
X33869333Y-82192857D01*
X33869333Y-82335714D01*
X33821714Y-82430952D01*
X33774095Y-82478571D01*
X33678857Y-82526190D01*
X33297904Y-82526190D01*
X34821714Y-83002380D02*
X34250285Y-83002380D01*
X34536000Y-83002380D02*
X34536000Y-82002380D01*
X34440761Y-82145238D01*
X34345523Y-82240476D01*
X34250285Y-82288095D01*
X29662380Y-68238666D02*
X29186190Y-68572000D01*
X29662380Y-68810095D02*
X28662380Y-68810095D01*
X28662380Y-68429142D01*
X28710000Y-68333904D01*
X28757619Y-68286285D01*
X28852857Y-68238666D01*
X28995714Y-68238666D01*
X29090952Y-68286285D01*
X29138571Y-68333904D01*
X29186190Y-68429142D01*
X29186190Y-68810095D01*
X28757619Y-67857714D02*
X28710000Y-67810095D01*
X28662380Y-67714857D01*
X28662380Y-67476761D01*
X28710000Y-67381523D01*
X28757619Y-67333904D01*
X28852857Y-67286285D01*
X28948095Y-67286285D01*
X29090952Y-67333904D01*
X29662380Y-67905333D01*
X29662380Y-67286285D01*
X38044380Y-68238666D02*
X37568190Y-68572000D01*
X38044380Y-68810095D02*
X37044380Y-68810095D01*
X37044380Y-68429142D01*
X37092000Y-68333904D01*
X37139619Y-68286285D01*
X37234857Y-68238666D01*
X37377714Y-68238666D01*
X37472952Y-68286285D01*
X37520571Y-68333904D01*
X37568190Y-68429142D01*
X37568190Y-68810095D01*
X37377714Y-67381523D02*
X38044380Y-67381523D01*
X36996761Y-67619619D02*
X37711047Y-67857714D01*
X37711047Y-67238666D01*
X36520380Y-68238666D02*
X36044190Y-68572000D01*
X36520380Y-68810095D02*
X35520380Y-68810095D01*
X35520380Y-68429142D01*
X35568000Y-68333904D01*
X35615619Y-68286285D01*
X35710857Y-68238666D01*
X35853714Y-68238666D01*
X35948952Y-68286285D01*
X35996571Y-68333904D01*
X36044190Y-68429142D01*
X36044190Y-68810095D01*
X35520380Y-67381523D02*
X35520380Y-67572000D01*
X35568000Y-67667238D01*
X35615619Y-67714857D01*
X35758476Y-67810095D01*
X35948952Y-67857714D01*
X36329904Y-67857714D01*
X36425142Y-67810095D01*
X36472761Y-67762476D01*
X36520380Y-67667238D01*
X36520380Y-67476761D01*
X36472761Y-67381523D01*
X36425142Y-67333904D01*
X36329904Y-67286285D01*
X36091809Y-67286285D01*
X35996571Y-67333904D01*
X35948952Y-67381523D01*
X35901333Y-67476761D01*
X35901333Y-67667238D01*
X35948952Y-67762476D01*
X35996571Y-67810095D01*
X36091809Y-67857714D01*
X23820380Y-83986666D02*
X23344190Y-84320000D01*
X23820380Y-84558095D02*
X22820380Y-84558095D01*
X22820380Y-84177142D01*
X22868000Y-84081904D01*
X22915619Y-84034285D01*
X23010857Y-83986666D01*
X23153714Y-83986666D01*
X23248952Y-84034285D01*
X23296571Y-84081904D01*
X23344190Y-84177142D01*
X23344190Y-84558095D01*
X22820380Y-83653333D02*
X22820380Y-82986666D01*
X23820380Y-83415238D01*
X23820380Y-87034666D02*
X23344190Y-87368000D01*
X23820380Y-87606095D02*
X22820380Y-87606095D01*
X22820380Y-87225142D01*
X22868000Y-87129904D01*
X22915619Y-87082285D01*
X23010857Y-87034666D01*
X23153714Y-87034666D01*
X23248952Y-87082285D01*
X23296571Y-87129904D01*
X23344190Y-87225142D01*
X23344190Y-87606095D01*
X23248952Y-86463238D02*
X23201333Y-86558476D01*
X23153714Y-86606095D01*
X23058476Y-86653714D01*
X23010857Y-86653714D01*
X22915619Y-86606095D01*
X22868000Y-86558476D01*
X22820380Y-86463238D01*
X22820380Y-86272761D01*
X22868000Y-86177523D01*
X22915619Y-86129904D01*
X23010857Y-86082285D01*
X23058476Y-86082285D01*
X23153714Y-86129904D01*
X23201333Y-86177523D01*
X23248952Y-86272761D01*
X23248952Y-86463238D01*
X23296571Y-86558476D01*
X23344190Y-86606095D01*
X23439428Y-86653714D01*
X23629904Y-86653714D01*
X23725142Y-86606095D01*
X23772761Y-86558476D01*
X23820380Y-86463238D01*
X23820380Y-86272761D01*
X23772761Y-86177523D01*
X23725142Y-86129904D01*
X23629904Y-86082285D01*
X23439428Y-86082285D01*
X23344190Y-86129904D01*
X23296571Y-86177523D01*
X23248952Y-86272761D01*
X42372380Y-75437904D02*
X43181904Y-75437904D01*
X43277142Y-75390285D01*
X43324761Y-75342666D01*
X43372380Y-75247428D01*
X43372380Y-75056952D01*
X43324761Y-74961714D01*
X43277142Y-74914095D01*
X43181904Y-74866476D01*
X42372380Y-74866476D01*
X43372380Y-73866476D02*
X43372380Y-74437904D01*
X43372380Y-74152190D02*
X42372380Y-74152190D01*
X42515238Y-74247428D01*
X42610476Y-74342666D01*
X42658095Y-74437904D01*
X24344380Y-88137904D02*
X25153904Y-88137904D01*
X25249142Y-88090285D01*
X25296761Y-88042666D01*
X25344380Y-87947428D01*
X25344380Y-87756952D01*
X25296761Y-87661714D01*
X25249142Y-87614095D01*
X25153904Y-87566476D01*
X24344380Y-87566476D01*
X24344380Y-87185523D02*
X24344380Y-86566476D01*
X24725333Y-86899809D01*
X24725333Y-86756952D01*
X24772952Y-86661714D01*
X24820571Y-86614095D01*
X24915809Y-86566476D01*
X25153904Y-86566476D01*
X25249142Y-86614095D01*
X25296761Y-86661714D01*
X25344380Y-86756952D01*
X25344380Y-87042666D01*
X25296761Y-87137904D01*
X25249142Y-87185523D01*
X31273809Y-63730190D02*
X31273809Y-64206380D01*
X30940476Y-63206380D02*
X31273809Y-63730190D01*
X31607142Y-63206380D01*
X32464285Y-64206380D02*
X31892857Y-64206380D01*
X32178571Y-64206380D02*
X32178571Y-63206380D01*
X32083333Y-63349238D01*
X31988095Y-63444476D01*
X31892857Y-63492095D01*
M02*
