G04 #@! TF.GenerationSoftware,KiCad,Pcbnew,(5.1.5)-3*
G04 #@! TF.CreationDate,2022-01-02T05:02:30+03:00*
G04 #@! TF.ProjectId,Test,54657374-2e6b-4696-9361-645f70636258,rev?*
G04 #@! TF.SameCoordinates,Original*
G04 #@! TF.FileFunction,Legend,Bot*
G04 #@! TF.FilePolarity,Positive*
%FSLAX46Y46*%
G04 Gerber Fmt 4.6, Leading zero omitted, Abs format (unit mm)*
G04 Created by KiCad (PCBNEW (5.1.5)-3) date 2022-01-02 05:02:30*
%MOMM*%
%LPD*%
G04 APERTURE LIST*
%ADD10C,0.120000*%
%ADD11C,0.150000*%
G04 APERTURE END LIST*
D10*
X32857221Y-78234000D02*
X33182779Y-78234000D01*
X32857221Y-77214000D02*
X33182779Y-77214000D01*
X31658779Y-64518000D02*
X31333221Y-64518000D01*
X31658779Y-63498000D02*
X31333221Y-63498000D01*
X29620000Y-91820000D02*
X35020000Y-91820000D01*
X29620000Y-88520000D02*
X35020000Y-88520000D01*
X29620000Y-91820000D02*
X29620000Y-88520000D01*
X34670000Y-86966000D02*
X31370000Y-86966000D01*
X31370000Y-86966000D02*
X31370000Y-81566000D01*
X34670000Y-86966000D02*
X34670000Y-81566000D01*
X41496064Y-89260000D02*
X40291936Y-89260000D01*
X41496064Y-91080000D02*
X40291936Y-91080000D01*
X43240000Y-66296000D02*
X43240000Y-65276000D01*
X38040000Y-66296000D02*
X38040000Y-65276000D01*
X43240000Y-68836000D02*
X43240000Y-67816000D01*
X38040000Y-68836000D02*
X38040000Y-67816000D01*
X43240000Y-71376000D02*
X43240000Y-70356000D01*
X38040000Y-71376000D02*
X38040000Y-70356000D01*
X43240000Y-73916000D02*
X43240000Y-72896000D01*
X38040000Y-73916000D02*
X38040000Y-72896000D01*
X43240000Y-76456000D02*
X43240000Y-75436000D01*
X38040000Y-76456000D02*
X38040000Y-75436000D01*
X43240000Y-78996000D02*
X43240000Y-77976000D01*
X38040000Y-78996000D02*
X38040000Y-77976000D01*
X43240000Y-81536000D02*
X43240000Y-80516000D01*
X38040000Y-81536000D02*
X38040000Y-80516000D01*
X43240000Y-84076000D02*
X43240000Y-83056000D01*
X38040000Y-84076000D02*
X38040000Y-83056000D01*
X43240000Y-86616000D02*
X43240000Y-85596000D01*
X38040000Y-86616000D02*
X38040000Y-85596000D01*
X43240000Y-63756000D02*
X43240000Y-63186000D01*
X38040000Y-63756000D02*
X38040000Y-63186000D01*
X43240000Y-88706000D02*
X43240000Y-88136000D01*
X38040000Y-88706000D02*
X38040000Y-88136000D01*
X36600000Y-88136000D02*
X38040000Y-88136000D01*
X38040000Y-63186000D02*
X43240000Y-63186000D01*
X38040000Y-88706000D02*
X43240000Y-88706000D01*
X22800000Y-88706000D02*
X28000000Y-88706000D01*
X22800000Y-63186000D02*
X28000000Y-63186000D01*
X21360000Y-88136000D02*
X22800000Y-88136000D01*
X22800000Y-88706000D02*
X22800000Y-88136000D01*
X28000000Y-88706000D02*
X28000000Y-88136000D01*
X22800000Y-63756000D02*
X22800000Y-63186000D01*
X28000000Y-63756000D02*
X28000000Y-63186000D01*
X22800000Y-86616000D02*
X22800000Y-85596000D01*
X28000000Y-86616000D02*
X28000000Y-85596000D01*
X22800000Y-84076000D02*
X22800000Y-83056000D01*
X28000000Y-84076000D02*
X28000000Y-83056000D01*
X22800000Y-81536000D02*
X22800000Y-80516000D01*
X28000000Y-81536000D02*
X28000000Y-80516000D01*
X22800000Y-78996000D02*
X22800000Y-77976000D01*
X28000000Y-78996000D02*
X28000000Y-77976000D01*
X22800000Y-76456000D02*
X22800000Y-75436000D01*
X28000000Y-76456000D02*
X28000000Y-75436000D01*
X22800000Y-73916000D02*
X22800000Y-72896000D01*
X28000000Y-73916000D02*
X28000000Y-72896000D01*
X22800000Y-71376000D02*
X22800000Y-70356000D01*
X28000000Y-71376000D02*
X28000000Y-70356000D01*
X22800000Y-68836000D02*
X22800000Y-67816000D01*
X28000000Y-68836000D02*
X28000000Y-67816000D01*
X22800000Y-66296000D02*
X22800000Y-65276000D01*
X28000000Y-66296000D02*
X28000000Y-65276000D01*
X34706779Y-64518000D02*
X34381221Y-64518000D01*
X34706779Y-63498000D02*
X34381221Y-63498000D01*
X32857221Y-65022000D02*
X33182779Y-65022000D01*
X32857221Y-66042000D02*
X33182779Y-66042000D01*
X30460000Y-73406000D02*
X30460000Y-71456000D01*
X30460000Y-73406000D02*
X30460000Y-75356000D01*
X35580000Y-73406000D02*
X35580000Y-71456000D01*
X35580000Y-73406000D02*
X35580000Y-76856000D01*
X34600000Y-68832000D02*
X33670000Y-68832000D01*
X31440000Y-68832000D02*
X32370000Y-68832000D01*
X31440000Y-68832000D02*
X31440000Y-66672000D01*
X34600000Y-68832000D02*
X34600000Y-67372000D01*
D11*
X33186666Y-79511142D02*
X33234285Y-79558761D01*
X33377142Y-79606380D01*
X33472380Y-79606380D01*
X33615238Y-79558761D01*
X33710476Y-79463523D01*
X33758095Y-79368285D01*
X33805714Y-79177809D01*
X33805714Y-79034952D01*
X33758095Y-78844476D01*
X33710476Y-78749238D01*
X33615238Y-78654000D01*
X33472380Y-78606380D01*
X33377142Y-78606380D01*
X33234285Y-78654000D01*
X33186666Y-78701619D01*
X32329523Y-78939714D02*
X32329523Y-79606380D01*
X32567619Y-78558761D02*
X32805714Y-79273047D01*
X32186666Y-79273047D01*
X29376666Y-63603142D02*
X29424285Y-63650761D01*
X29567142Y-63698380D01*
X29662380Y-63698380D01*
X29805238Y-63650761D01*
X29900476Y-63555523D01*
X29948095Y-63460285D01*
X29995714Y-63269809D01*
X29995714Y-63126952D01*
X29948095Y-62936476D01*
X29900476Y-62841238D01*
X29805238Y-62746000D01*
X29662380Y-62698380D01*
X29567142Y-62698380D01*
X29424285Y-62746000D01*
X29376666Y-62793619D01*
X28471904Y-62698380D02*
X28948095Y-62698380D01*
X28995714Y-63174571D01*
X28948095Y-63126952D01*
X28852857Y-63079333D01*
X28614761Y-63079333D01*
X28519523Y-63126952D01*
X28471904Y-63174571D01*
X28424285Y-63269809D01*
X28424285Y-63507904D01*
X28471904Y-63603142D01*
X28519523Y-63650761D01*
X28614761Y-63698380D01*
X28852857Y-63698380D01*
X28948095Y-63650761D01*
X28995714Y-63603142D01*
X33758095Y-88336380D02*
X33758095Y-87336380D01*
X33520000Y-87336380D01*
X33377142Y-87384000D01*
X33281904Y-87479238D01*
X33234285Y-87574476D01*
X33186666Y-87764952D01*
X33186666Y-87907809D01*
X33234285Y-88098285D01*
X33281904Y-88193523D01*
X33377142Y-88288761D01*
X33520000Y-88336380D01*
X33758095Y-88336380D01*
X32853333Y-87336380D02*
X32234285Y-87336380D01*
X32567619Y-87717333D01*
X32424761Y-87717333D01*
X32329523Y-87764952D01*
X32281904Y-87812571D01*
X32234285Y-87907809D01*
X32234285Y-88145904D01*
X32281904Y-88241142D01*
X32329523Y-88288761D01*
X32424761Y-88336380D01*
X32710476Y-88336380D01*
X32805714Y-88288761D01*
X32853333Y-88241142D01*
X35972380Y-82827904D02*
X34972380Y-82827904D01*
X34972380Y-83066000D01*
X35020000Y-83208857D01*
X35115238Y-83304095D01*
X35210476Y-83351714D01*
X35400952Y-83399333D01*
X35543809Y-83399333D01*
X35734285Y-83351714D01*
X35829523Y-83304095D01*
X35924761Y-83208857D01*
X35972380Y-83066000D01*
X35972380Y-82827904D01*
X35305714Y-84256476D02*
X35972380Y-84256476D01*
X34924761Y-84018380D02*
X35639047Y-83780285D01*
X35639047Y-84399333D01*
X37925333Y-90098571D02*
X38258666Y-90098571D01*
X38258666Y-90622380D02*
X38258666Y-89622380D01*
X37782476Y-89622380D01*
X36877714Y-90622380D02*
X37449142Y-90622380D01*
X37163428Y-90622380D02*
X37163428Y-89622380D01*
X37258666Y-89765238D01*
X37353904Y-89860476D01*
X37449142Y-89908095D01*
X42751333Y-61682380D02*
X42751333Y-62396666D01*
X42798952Y-62539523D01*
X42894190Y-62634761D01*
X43037047Y-62682380D01*
X43132285Y-62682380D01*
X41751333Y-62682380D02*
X42322761Y-62682380D01*
X42037047Y-62682380D02*
X42037047Y-61682380D01*
X42132285Y-61825238D01*
X42227523Y-61920476D01*
X42322761Y-61968095D01*
X23955333Y-61936380D02*
X23955333Y-62650666D01*
X24002952Y-62793523D01*
X24098190Y-62888761D01*
X24241047Y-62936380D01*
X24336285Y-62936380D01*
X23526761Y-62031619D02*
X23479142Y-61984000D01*
X23383904Y-61936380D01*
X23145809Y-61936380D01*
X23050571Y-61984000D01*
X23002952Y-62031619D01*
X22955333Y-62126857D01*
X22955333Y-62222095D01*
X23002952Y-62364952D01*
X23574380Y-62936380D01*
X22955333Y-62936380D01*
X36996666Y-63698380D02*
X37330000Y-63222190D01*
X37568095Y-63698380D02*
X37568095Y-62698380D01*
X37187142Y-62698380D01*
X37091904Y-62746000D01*
X37044285Y-62793619D01*
X36996666Y-62888857D01*
X36996666Y-63031714D01*
X37044285Y-63126952D01*
X37091904Y-63174571D01*
X37187142Y-63222190D01*
X37568095Y-63222190D01*
X36663333Y-62698380D02*
X36044285Y-62698380D01*
X36377619Y-63079333D01*
X36234761Y-63079333D01*
X36139523Y-63126952D01*
X36091904Y-63174571D01*
X36044285Y-63269809D01*
X36044285Y-63507904D01*
X36091904Y-63603142D01*
X36139523Y-63650761D01*
X36234761Y-63698380D01*
X36520476Y-63698380D01*
X36615714Y-63650761D01*
X36663333Y-63603142D01*
X35726666Y-65984380D02*
X36060000Y-65508190D01*
X36298095Y-65984380D02*
X36298095Y-64984380D01*
X35917142Y-64984380D01*
X35821904Y-65032000D01*
X35774285Y-65079619D01*
X35726666Y-65174857D01*
X35726666Y-65317714D01*
X35774285Y-65412952D01*
X35821904Y-65460571D01*
X35917142Y-65508190D01*
X36298095Y-65508190D01*
X34821904Y-64984380D02*
X35298095Y-64984380D01*
X35345714Y-65460571D01*
X35298095Y-65412952D01*
X35202857Y-65365333D01*
X34964761Y-65365333D01*
X34869523Y-65412952D01*
X34821904Y-65460571D01*
X34774285Y-65555809D01*
X34774285Y-65793904D01*
X34821904Y-65889142D01*
X34869523Y-65936761D01*
X34964761Y-65984380D01*
X35202857Y-65984380D01*
X35298095Y-65936761D01*
X35345714Y-65889142D01*
X35012380Y-67056095D02*
X35821904Y-67056095D01*
X35917142Y-67103714D01*
X35964761Y-67151333D01*
X36012380Y-67246571D01*
X36012380Y-67437047D01*
X35964761Y-67532285D01*
X35917142Y-67579904D01*
X35821904Y-67627523D01*
X35012380Y-67627523D01*
X35107619Y-68056095D02*
X35060000Y-68103714D01*
X35012380Y-68198952D01*
X35012380Y-68437047D01*
X35060000Y-68532285D01*
X35107619Y-68579904D01*
X35202857Y-68627523D01*
X35298095Y-68627523D01*
X35440952Y-68579904D01*
X36012380Y-68008476D01*
X36012380Y-68627523D01*
X30972380Y-67079904D02*
X29972380Y-67079904D01*
X29972380Y-67318000D01*
X30020000Y-67460857D01*
X30115238Y-67556095D01*
X30210476Y-67603714D01*
X30400952Y-67651333D01*
X30543809Y-67651333D01*
X30734285Y-67603714D01*
X30829523Y-67556095D01*
X30924761Y-67460857D01*
X30972380Y-67318000D01*
X30972380Y-67079904D01*
X30972380Y-68603714D02*
X30972380Y-68032285D01*
X30972380Y-68318000D02*
X29972380Y-68318000D01*
X30115238Y-68222761D01*
X30210476Y-68127523D01*
X30258095Y-68032285D01*
M02*
