G04 #@! TF.GenerationSoftware,KiCad,Pcbnew,(5.1.5)-3*
G04 #@! TF.CreationDate,2022-01-02T05:02:30+03:00*
G04 #@! TF.ProjectId,Test,54657374-2e6b-4696-9361-645f70636258,rev?*
G04 #@! TF.SameCoordinates,Original*
G04 #@! TF.FileFunction,Soldermask,Top*
G04 #@! TF.FilePolarity,Negative*
%FSLAX46Y46*%
G04 Gerber Fmt 4.6, Leading zero omitted, Abs format (unit mm)*
G04 Created by KiCad (PCBNEW (5.1.5)-3) date 2022-01-02 05:02:30*
%MOMM*%
%LPD*%
G04 APERTURE LIST*
%ADD10C,0.100000*%
G04 APERTURE END LIST*
D10*
G36*
X33717000Y-91947000D02*
G01*
X31815000Y-91947000D01*
X31815000Y-89345000D01*
X33717000Y-89345000D01*
X33717000Y-91947000D01*
G37*
G36*
X39764604Y-90010347D02*
G01*
X39801144Y-90021432D01*
X39834821Y-90039433D01*
X39864341Y-90063659D01*
X39888567Y-90093179D01*
X39906568Y-90126856D01*
X39917653Y-90163396D01*
X39922000Y-90207538D01*
X39922000Y-91656462D01*
X39917653Y-91700604D01*
X39906568Y-91737144D01*
X39888567Y-91770821D01*
X39864341Y-91800341D01*
X39834821Y-91824567D01*
X39801144Y-91842568D01*
X39764604Y-91853653D01*
X39720462Y-91858000D01*
X38771538Y-91858000D01*
X38727396Y-91853653D01*
X38690856Y-91842568D01*
X38657179Y-91824567D01*
X38627659Y-91800341D01*
X38603433Y-91770821D01*
X38585432Y-91737144D01*
X38574347Y-91700604D01*
X38570000Y-91656462D01*
X38570000Y-90207538D01*
X38574347Y-90163396D01*
X38585432Y-90126856D01*
X38603433Y-90093179D01*
X38627659Y-90063659D01*
X38657179Y-90039433D01*
X38690856Y-90021432D01*
X38727396Y-90010347D01*
X38771538Y-90006000D01*
X39720462Y-90006000D01*
X39764604Y-90010347D01*
G37*
G36*
X30620604Y-90010347D02*
G01*
X30657144Y-90021432D01*
X30690821Y-90039433D01*
X30720341Y-90063659D01*
X30744567Y-90093179D01*
X30762568Y-90126856D01*
X30773653Y-90163396D01*
X30778000Y-90207538D01*
X30778000Y-91656462D01*
X30773653Y-91700604D01*
X30762568Y-91737144D01*
X30744567Y-91770821D01*
X30720341Y-91800341D01*
X30690821Y-91824567D01*
X30657144Y-91842568D01*
X30620604Y-91853653D01*
X30576462Y-91858000D01*
X29627538Y-91858000D01*
X29583396Y-91853653D01*
X29546856Y-91842568D01*
X29513179Y-91824567D01*
X29483659Y-91800341D01*
X29459433Y-91770821D01*
X29441432Y-91737144D01*
X29430347Y-91700604D01*
X29426000Y-91656462D01*
X29426000Y-90207538D01*
X29430347Y-90163396D01*
X29441432Y-90126856D01*
X29459433Y-90093179D01*
X29483659Y-90063659D01*
X29513179Y-90039433D01*
X29546856Y-90021432D01*
X29583396Y-90010347D01*
X29627538Y-90006000D01*
X30576462Y-90006000D01*
X30620604Y-90010347D01*
G37*
G36*
X27820604Y-90010347D02*
G01*
X27857144Y-90021432D01*
X27890821Y-90039433D01*
X27920341Y-90063659D01*
X27944567Y-90093179D01*
X27962568Y-90126856D01*
X27973653Y-90163396D01*
X27978000Y-90207538D01*
X27978000Y-91656462D01*
X27973653Y-91700604D01*
X27962568Y-91737144D01*
X27944567Y-91770821D01*
X27920341Y-91800341D01*
X27890821Y-91824567D01*
X27857144Y-91842568D01*
X27820604Y-91853653D01*
X27776462Y-91858000D01*
X26827538Y-91858000D01*
X26783396Y-91853653D01*
X26746856Y-91842568D01*
X26713179Y-91824567D01*
X26683659Y-91800341D01*
X26659433Y-91770821D01*
X26641432Y-91737144D01*
X26630347Y-91700604D01*
X26626000Y-91656462D01*
X26626000Y-90207538D01*
X26630347Y-90163396D01*
X26641432Y-90126856D01*
X26659433Y-90093179D01*
X26683659Y-90063659D01*
X26713179Y-90039433D01*
X26746856Y-90021432D01*
X26783396Y-90010347D01*
X26827538Y-90006000D01*
X27776462Y-90006000D01*
X27820604Y-90010347D01*
G37*
G36*
X25540604Y-90010347D02*
G01*
X25577144Y-90021432D01*
X25610821Y-90039433D01*
X25640341Y-90063659D01*
X25664567Y-90093179D01*
X25682568Y-90126856D01*
X25693653Y-90163396D01*
X25698000Y-90207538D01*
X25698000Y-91656462D01*
X25693653Y-91700604D01*
X25682568Y-91737144D01*
X25664567Y-91770821D01*
X25640341Y-91800341D01*
X25610821Y-91824567D01*
X25577144Y-91842568D01*
X25540604Y-91853653D01*
X25496462Y-91858000D01*
X24547538Y-91858000D01*
X24503396Y-91853653D01*
X24466856Y-91842568D01*
X24433179Y-91824567D01*
X24403659Y-91800341D01*
X24379433Y-91770821D01*
X24361432Y-91737144D01*
X24350347Y-91700604D01*
X24346000Y-91656462D01*
X24346000Y-90207538D01*
X24350347Y-90163396D01*
X24361432Y-90126856D01*
X24379433Y-90093179D01*
X24403659Y-90063659D01*
X24433179Y-90039433D01*
X24466856Y-90021432D01*
X24503396Y-90010347D01*
X24547538Y-90006000D01*
X25496462Y-90006000D01*
X25540604Y-90010347D01*
G37*
G36*
X22740604Y-90010347D02*
G01*
X22777144Y-90021432D01*
X22810821Y-90039433D01*
X22840341Y-90063659D01*
X22864567Y-90093179D01*
X22882568Y-90126856D01*
X22893653Y-90163396D01*
X22898000Y-90207538D01*
X22898000Y-91656462D01*
X22893653Y-91700604D01*
X22882568Y-91737144D01*
X22864567Y-91770821D01*
X22840341Y-91800341D01*
X22810821Y-91824567D01*
X22777144Y-91842568D01*
X22740604Y-91853653D01*
X22696462Y-91858000D01*
X21747538Y-91858000D01*
X21703396Y-91853653D01*
X21666856Y-91842568D01*
X21633179Y-91824567D01*
X21603659Y-91800341D01*
X21579433Y-91770821D01*
X21561432Y-91737144D01*
X21550347Y-91700604D01*
X21546000Y-91656462D01*
X21546000Y-90207538D01*
X21550347Y-90163396D01*
X21561432Y-90126856D01*
X21579433Y-90093179D01*
X21603659Y-90063659D01*
X21633179Y-90039433D01*
X21666856Y-90021432D01*
X21703396Y-90010347D01*
X21747538Y-90006000D01*
X22696462Y-90006000D01*
X22740604Y-90010347D01*
G37*
G36*
X36964604Y-90010347D02*
G01*
X37001144Y-90021432D01*
X37034821Y-90039433D01*
X37064341Y-90063659D01*
X37088567Y-90093179D01*
X37106568Y-90126856D01*
X37117653Y-90163396D01*
X37122000Y-90207538D01*
X37122000Y-91656462D01*
X37117653Y-91700604D01*
X37106568Y-91737144D01*
X37088567Y-91770821D01*
X37064341Y-91800341D01*
X37034821Y-91824567D01*
X37001144Y-91842568D01*
X36964604Y-91853653D01*
X36920462Y-91858000D01*
X35971538Y-91858000D01*
X35927396Y-91853653D01*
X35890856Y-91842568D01*
X35857179Y-91824567D01*
X35827659Y-91800341D01*
X35803433Y-91770821D01*
X35785432Y-91737144D01*
X35774347Y-91700604D01*
X35770000Y-91656462D01*
X35770000Y-90207538D01*
X35774347Y-90163396D01*
X35785432Y-90126856D01*
X35803433Y-90093179D01*
X35827659Y-90063659D01*
X35857179Y-90039433D01*
X35890856Y-90021432D01*
X35927396Y-90010347D01*
X35971538Y-90006000D01*
X36920462Y-90006000D01*
X36964604Y-90010347D01*
G37*
G36*
X30028000Y-89311000D02*
G01*
X27376000Y-89311000D01*
X27376000Y-88149000D01*
X30028000Y-88149000D01*
X30028000Y-89311000D01*
G37*
G36*
X37251000Y-88961000D02*
G01*
X34799000Y-88961000D01*
X34799000Y-83759000D01*
X37251000Y-83759000D01*
X37251000Y-88961000D01*
G37*
G36*
X41401000Y-88961000D02*
G01*
X38949000Y-88961000D01*
X38949000Y-83759000D01*
X41401000Y-83759000D01*
X41401000Y-88961000D01*
G37*
G36*
X26541591Y-87171085D02*
G01*
X26575569Y-87181393D01*
X26606890Y-87198134D01*
X26634339Y-87220661D01*
X26656866Y-87248110D01*
X26673607Y-87279431D01*
X26683915Y-87313409D01*
X26688000Y-87354890D01*
X26688000Y-87956110D01*
X26683915Y-87997591D01*
X26673607Y-88031569D01*
X26656866Y-88062890D01*
X26634339Y-88090339D01*
X26606890Y-88112866D01*
X26575569Y-88129607D01*
X26541591Y-88139915D01*
X26500110Y-88144000D01*
X25823890Y-88144000D01*
X25782409Y-88139915D01*
X25748431Y-88129607D01*
X25717110Y-88112866D01*
X25689661Y-88090339D01*
X25667134Y-88062890D01*
X25650393Y-88031569D01*
X25640085Y-87997591D01*
X25636000Y-87956110D01*
X25636000Y-87354890D01*
X25640085Y-87313409D01*
X25650393Y-87279431D01*
X25667134Y-87248110D01*
X25689661Y-87220661D01*
X25717110Y-87198134D01*
X25748431Y-87181393D01*
X25782409Y-87171085D01*
X25823890Y-87167000D01*
X26500110Y-87167000D01*
X26541591Y-87171085D01*
G37*
G36*
X33717000Y-87947000D02*
G01*
X31815000Y-87947000D01*
X31815000Y-85345000D01*
X33717000Y-85345000D01*
X33717000Y-87947000D01*
G37*
G36*
X43948604Y-85818347D02*
G01*
X43985144Y-85829432D01*
X44018821Y-85847433D01*
X44048341Y-85871659D01*
X44072567Y-85901179D01*
X44090568Y-85934856D01*
X44101653Y-85971396D01*
X44106000Y-86015538D01*
X44106000Y-86964462D01*
X44101653Y-87008604D01*
X44090568Y-87045144D01*
X44072567Y-87078821D01*
X44048341Y-87108341D01*
X44018821Y-87132567D01*
X43985144Y-87150568D01*
X43948604Y-87161653D01*
X43904462Y-87166000D01*
X42455538Y-87166000D01*
X42411396Y-87161653D01*
X42374856Y-87150568D01*
X42341179Y-87132567D01*
X42311659Y-87108341D01*
X42287433Y-87078821D01*
X42269432Y-87045144D01*
X42258347Y-87008604D01*
X42254000Y-86964462D01*
X42254000Y-86015538D01*
X42258347Y-85971396D01*
X42269432Y-85934856D01*
X42287433Y-85901179D01*
X42311659Y-85871659D01*
X42341179Y-85847433D01*
X42374856Y-85829432D01*
X42411396Y-85818347D01*
X42455538Y-85814000D01*
X43904462Y-85814000D01*
X43948604Y-85818347D01*
G37*
G36*
X30028000Y-87111000D02*
G01*
X27376000Y-87111000D01*
X27376000Y-85949000D01*
X30028000Y-85949000D01*
X30028000Y-87111000D01*
G37*
G36*
X26541591Y-85596085D02*
G01*
X26575569Y-85606393D01*
X26606890Y-85623134D01*
X26634339Y-85645661D01*
X26656866Y-85673110D01*
X26673607Y-85704431D01*
X26683915Y-85738409D01*
X26688000Y-85779890D01*
X26688000Y-86381110D01*
X26683915Y-86422591D01*
X26673607Y-86456569D01*
X26656866Y-86487890D01*
X26634339Y-86515339D01*
X26606890Y-86537866D01*
X26575569Y-86554607D01*
X26541591Y-86564915D01*
X26500110Y-86569000D01*
X25823890Y-86569000D01*
X25782409Y-86564915D01*
X25748431Y-86554607D01*
X25717110Y-86537866D01*
X25689661Y-86515339D01*
X25667134Y-86487890D01*
X25650393Y-86456569D01*
X25640085Y-86422591D01*
X25636000Y-86381110D01*
X25636000Y-85779890D01*
X25640085Y-85738409D01*
X25650393Y-85704431D01*
X25667134Y-85673110D01*
X25689661Y-85645661D01*
X25717110Y-85623134D01*
X25748431Y-85606393D01*
X25782409Y-85596085D01*
X25823890Y-85592000D01*
X26500110Y-85592000D01*
X26541591Y-85596085D01*
G37*
G36*
X29994000Y-85475000D02*
G01*
X29442000Y-85475000D01*
X29442000Y-84773000D01*
X29994000Y-84773000D01*
X29994000Y-85475000D01*
G37*
G36*
X28065591Y-84123085D02*
G01*
X28099569Y-84133393D01*
X28130890Y-84150134D01*
X28158339Y-84172661D01*
X28180866Y-84200110D01*
X28197607Y-84231431D01*
X28207915Y-84265409D01*
X28212000Y-84306890D01*
X28212000Y-84908110D01*
X28207915Y-84949591D01*
X28197607Y-84983569D01*
X28180866Y-85014890D01*
X28158339Y-85042339D01*
X28130890Y-85064866D01*
X28099569Y-85081607D01*
X28065591Y-85091915D01*
X28024110Y-85096000D01*
X27347890Y-85096000D01*
X27306409Y-85091915D01*
X27272431Y-85081607D01*
X27241110Y-85064866D01*
X27213661Y-85042339D01*
X27191134Y-85014890D01*
X27174393Y-84983569D01*
X27164085Y-84949591D01*
X27160000Y-84908110D01*
X27160000Y-84306890D01*
X27164085Y-84265409D01*
X27174393Y-84231431D01*
X27191134Y-84200110D01*
X27213661Y-84172661D01*
X27241110Y-84150134D01*
X27272431Y-84133393D01*
X27306409Y-84123085D01*
X27347890Y-84119000D01*
X28024110Y-84119000D01*
X28065591Y-84123085D01*
G37*
G36*
X26541591Y-84123085D02*
G01*
X26575569Y-84133393D01*
X26606890Y-84150134D01*
X26634339Y-84172661D01*
X26656866Y-84200110D01*
X26673607Y-84231431D01*
X26683915Y-84265409D01*
X26688000Y-84306890D01*
X26688000Y-84908110D01*
X26683915Y-84949591D01*
X26673607Y-84983569D01*
X26656866Y-85014890D01*
X26634339Y-85042339D01*
X26606890Y-85064866D01*
X26575569Y-85081607D01*
X26541591Y-85091915D01*
X26500110Y-85096000D01*
X25823890Y-85096000D01*
X25782409Y-85091915D01*
X25748431Y-85081607D01*
X25717110Y-85064866D01*
X25689661Y-85042339D01*
X25667134Y-85014890D01*
X25650393Y-84983569D01*
X25640085Y-84949591D01*
X25636000Y-84908110D01*
X25636000Y-84306890D01*
X25640085Y-84265409D01*
X25650393Y-84231431D01*
X25667134Y-84200110D01*
X25689661Y-84172661D01*
X25717110Y-84150134D01*
X25748431Y-84133393D01*
X25782409Y-84123085D01*
X25823890Y-84119000D01*
X26500110Y-84119000D01*
X26541591Y-84123085D01*
G37*
G36*
X31812591Y-83806085D02*
G01*
X31846569Y-83816393D01*
X31877890Y-83833134D01*
X31905339Y-83855661D01*
X31927866Y-83883110D01*
X31944607Y-83914431D01*
X31954915Y-83948409D01*
X31959000Y-83989890D01*
X31959000Y-84666110D01*
X31954915Y-84707591D01*
X31944607Y-84741569D01*
X31927866Y-84772890D01*
X31905339Y-84800339D01*
X31877890Y-84822866D01*
X31846569Y-84839607D01*
X31812591Y-84849915D01*
X31771110Y-84854000D01*
X31169890Y-84854000D01*
X31128409Y-84849915D01*
X31094431Y-84839607D01*
X31063110Y-84822866D01*
X31035661Y-84800339D01*
X31013134Y-84772890D01*
X30996393Y-84741569D01*
X30986085Y-84707591D01*
X30982000Y-84666110D01*
X30982000Y-83989890D01*
X30986085Y-83948409D01*
X30996393Y-83914431D01*
X31013134Y-83883110D01*
X31035661Y-83855661D01*
X31063110Y-83833134D01*
X31094431Y-83816393D01*
X31128409Y-83806085D01*
X31169890Y-83802000D01*
X31771110Y-83802000D01*
X31812591Y-83806085D01*
G37*
G36*
X33387591Y-83806085D02*
G01*
X33421569Y-83816393D01*
X33452890Y-83833134D01*
X33480339Y-83855661D01*
X33502866Y-83883110D01*
X33519607Y-83914431D01*
X33529915Y-83948409D01*
X33534000Y-83989890D01*
X33534000Y-84666110D01*
X33529915Y-84707591D01*
X33519607Y-84741569D01*
X33502866Y-84772890D01*
X33480339Y-84800339D01*
X33452890Y-84822866D01*
X33421569Y-84839607D01*
X33387591Y-84849915D01*
X33346110Y-84854000D01*
X32744890Y-84854000D01*
X32703409Y-84849915D01*
X32669431Y-84839607D01*
X32638110Y-84822866D01*
X32610661Y-84800339D01*
X32588134Y-84772890D01*
X32571393Y-84741569D01*
X32561085Y-84707591D01*
X32557000Y-84666110D01*
X32557000Y-83989890D01*
X32561085Y-83948409D01*
X32571393Y-83914431D01*
X32588134Y-83883110D01*
X32610661Y-83855661D01*
X32638110Y-83833134D01*
X32669431Y-83816393D01*
X32703409Y-83806085D01*
X32744890Y-83802000D01*
X33346110Y-83802000D01*
X33387591Y-83806085D01*
G37*
G36*
X43948604Y-83018347D02*
G01*
X43985144Y-83029432D01*
X44018821Y-83047433D01*
X44048341Y-83071659D01*
X44072567Y-83101179D01*
X44090568Y-83134856D01*
X44101653Y-83171396D01*
X44106000Y-83215538D01*
X44106000Y-84164462D01*
X44101653Y-84208604D01*
X44090568Y-84245144D01*
X44072567Y-84278821D01*
X44048341Y-84308341D01*
X44018821Y-84332567D01*
X43985144Y-84350568D01*
X43948604Y-84361653D01*
X43904462Y-84366000D01*
X42455538Y-84366000D01*
X42411396Y-84361653D01*
X42374856Y-84350568D01*
X42341179Y-84332567D01*
X42311659Y-84308341D01*
X42287433Y-84278821D01*
X42269432Y-84245144D01*
X42258347Y-84208604D01*
X42254000Y-84164462D01*
X42254000Y-83215538D01*
X42258347Y-83171396D01*
X42269432Y-83134856D01*
X42287433Y-83101179D01*
X42311659Y-83071659D01*
X42341179Y-83047433D01*
X42374856Y-83029432D01*
X42411396Y-83018347D01*
X42455538Y-83014000D01*
X43904462Y-83014000D01*
X43948604Y-83018347D01*
G37*
G36*
X26541591Y-82548085D02*
G01*
X26575569Y-82558393D01*
X26606890Y-82575134D01*
X26634339Y-82597661D01*
X26656866Y-82625110D01*
X26673607Y-82656431D01*
X26683915Y-82690409D01*
X26688000Y-82731890D01*
X26688000Y-83333110D01*
X26683915Y-83374591D01*
X26673607Y-83408569D01*
X26656866Y-83439890D01*
X26634339Y-83467339D01*
X26606890Y-83489866D01*
X26575569Y-83506607D01*
X26541591Y-83516915D01*
X26500110Y-83521000D01*
X25823890Y-83521000D01*
X25782409Y-83516915D01*
X25748431Y-83506607D01*
X25717110Y-83489866D01*
X25689661Y-83467339D01*
X25667134Y-83439890D01*
X25650393Y-83408569D01*
X25640085Y-83374591D01*
X25636000Y-83333110D01*
X25636000Y-82731890D01*
X25640085Y-82690409D01*
X25650393Y-82656431D01*
X25667134Y-82625110D01*
X25689661Y-82597661D01*
X25717110Y-82575134D01*
X25748431Y-82558393D01*
X25782409Y-82548085D01*
X25823890Y-82544000D01*
X26500110Y-82544000D01*
X26541591Y-82548085D01*
G37*
G36*
X28065591Y-82548085D02*
G01*
X28099569Y-82558393D01*
X28130890Y-82575134D01*
X28158339Y-82597661D01*
X28180866Y-82625110D01*
X28197607Y-82656431D01*
X28207915Y-82690409D01*
X28212000Y-82731890D01*
X28212000Y-83333110D01*
X28207915Y-83374591D01*
X28197607Y-83408569D01*
X28180866Y-83439890D01*
X28158339Y-83467339D01*
X28130890Y-83489866D01*
X28099569Y-83506607D01*
X28065591Y-83516915D01*
X28024110Y-83521000D01*
X27347890Y-83521000D01*
X27306409Y-83516915D01*
X27272431Y-83506607D01*
X27241110Y-83489866D01*
X27213661Y-83467339D01*
X27191134Y-83439890D01*
X27174393Y-83408569D01*
X27164085Y-83374591D01*
X27160000Y-83333110D01*
X27160000Y-82731890D01*
X27164085Y-82690409D01*
X27174393Y-82656431D01*
X27191134Y-82625110D01*
X27213661Y-82597661D01*
X27241110Y-82575134D01*
X27272431Y-82558393D01*
X27306409Y-82548085D01*
X27347890Y-82544000D01*
X28024110Y-82544000D01*
X28065591Y-82548085D01*
G37*
G36*
X29994000Y-83375000D02*
G01*
X29442000Y-83375000D01*
X29442000Y-82673000D01*
X29994000Y-82673000D01*
X29994000Y-83375000D01*
G37*
G36*
X42277591Y-80758085D02*
G01*
X42311569Y-80768393D01*
X42342890Y-80785134D01*
X42370339Y-80807661D01*
X42392866Y-80835110D01*
X42409607Y-80866431D01*
X42419915Y-80900409D01*
X42424000Y-80941890D01*
X42424000Y-81618110D01*
X42419915Y-81659591D01*
X42409607Y-81693569D01*
X42392866Y-81724890D01*
X42370339Y-81752339D01*
X42342890Y-81774866D01*
X42311569Y-81791607D01*
X42277591Y-81801915D01*
X42236110Y-81806000D01*
X41634890Y-81806000D01*
X41593409Y-81801915D01*
X41559431Y-81791607D01*
X41528110Y-81774866D01*
X41500661Y-81752339D01*
X41478134Y-81724890D01*
X41461393Y-81693569D01*
X41451085Y-81659591D01*
X41447000Y-81618110D01*
X41447000Y-80941890D01*
X41451085Y-80900409D01*
X41461393Y-80866431D01*
X41478134Y-80835110D01*
X41500661Y-80807661D01*
X41528110Y-80785134D01*
X41559431Y-80768393D01*
X41593409Y-80758085D01*
X41634890Y-80754000D01*
X42236110Y-80754000D01*
X42277591Y-80758085D01*
G37*
G36*
X38721591Y-80758085D02*
G01*
X38755569Y-80768393D01*
X38786890Y-80785134D01*
X38814339Y-80807661D01*
X38836866Y-80835110D01*
X38853607Y-80866431D01*
X38863915Y-80900409D01*
X38868000Y-80941890D01*
X38868000Y-81618110D01*
X38863915Y-81659591D01*
X38853607Y-81693569D01*
X38836866Y-81724890D01*
X38814339Y-81752339D01*
X38786890Y-81774866D01*
X38755569Y-81791607D01*
X38721591Y-81801915D01*
X38680110Y-81806000D01*
X38078890Y-81806000D01*
X38037409Y-81801915D01*
X38003431Y-81791607D01*
X37972110Y-81774866D01*
X37944661Y-81752339D01*
X37922134Y-81724890D01*
X37905393Y-81693569D01*
X37895085Y-81659591D01*
X37891000Y-81618110D01*
X37891000Y-80941890D01*
X37895085Y-80900409D01*
X37905393Y-80866431D01*
X37922134Y-80835110D01*
X37944661Y-80807661D01*
X37972110Y-80785134D01*
X38003431Y-80768393D01*
X38037409Y-80758085D01*
X38078890Y-80754000D01*
X38680110Y-80754000D01*
X38721591Y-80758085D01*
G37*
G36*
X37146591Y-80758085D02*
G01*
X37180569Y-80768393D01*
X37211890Y-80785134D01*
X37239339Y-80807661D01*
X37261866Y-80835110D01*
X37278607Y-80866431D01*
X37288915Y-80900409D01*
X37293000Y-80941890D01*
X37293000Y-81618110D01*
X37288915Y-81659591D01*
X37278607Y-81693569D01*
X37261866Y-81724890D01*
X37239339Y-81752339D01*
X37211890Y-81774866D01*
X37180569Y-81791607D01*
X37146591Y-81801915D01*
X37105110Y-81806000D01*
X36503890Y-81806000D01*
X36462409Y-81801915D01*
X36428431Y-81791607D01*
X36397110Y-81774866D01*
X36369661Y-81752339D01*
X36347134Y-81724890D01*
X36330393Y-81693569D01*
X36320085Y-81659591D01*
X36316000Y-81618110D01*
X36316000Y-80941890D01*
X36320085Y-80900409D01*
X36330393Y-80866431D01*
X36347134Y-80835110D01*
X36369661Y-80807661D01*
X36397110Y-80785134D01*
X36428431Y-80768393D01*
X36462409Y-80758085D01*
X36503890Y-80754000D01*
X37105110Y-80754000D01*
X37146591Y-80758085D01*
G37*
G36*
X31609591Y-80758085D02*
G01*
X31643569Y-80768393D01*
X31674890Y-80785134D01*
X31702339Y-80807661D01*
X31724866Y-80835110D01*
X31741607Y-80866431D01*
X31751915Y-80900409D01*
X31756000Y-80941890D01*
X31756000Y-81618110D01*
X31751915Y-81659591D01*
X31741607Y-81693569D01*
X31724866Y-81724890D01*
X31702339Y-81752339D01*
X31674890Y-81774866D01*
X31643569Y-81791607D01*
X31609591Y-81801915D01*
X31568110Y-81806000D01*
X30966890Y-81806000D01*
X30925409Y-81801915D01*
X30891431Y-81791607D01*
X30860110Y-81774866D01*
X30832661Y-81752339D01*
X30810134Y-81724890D01*
X30793393Y-81693569D01*
X30783085Y-81659591D01*
X30779000Y-81618110D01*
X30779000Y-80941890D01*
X30783085Y-80900409D01*
X30793393Y-80866431D01*
X30810134Y-80835110D01*
X30832661Y-80807661D01*
X30860110Y-80785134D01*
X30891431Y-80768393D01*
X30925409Y-80758085D01*
X30966890Y-80754000D01*
X31568110Y-80754000D01*
X31609591Y-80758085D01*
G37*
G36*
X30034591Y-80758085D02*
G01*
X30068569Y-80768393D01*
X30099890Y-80785134D01*
X30127339Y-80807661D01*
X30149866Y-80835110D01*
X30166607Y-80866431D01*
X30176915Y-80900409D01*
X30181000Y-80941890D01*
X30181000Y-81618110D01*
X30176915Y-81659591D01*
X30166607Y-81693569D01*
X30149866Y-81724890D01*
X30127339Y-81752339D01*
X30099890Y-81774866D01*
X30068569Y-81791607D01*
X30034591Y-81801915D01*
X29993110Y-81806000D01*
X29391890Y-81806000D01*
X29350409Y-81801915D01*
X29316431Y-81791607D01*
X29285110Y-81774866D01*
X29257661Y-81752339D01*
X29235134Y-81724890D01*
X29218393Y-81693569D01*
X29208085Y-81659591D01*
X29204000Y-81618110D01*
X29204000Y-80941890D01*
X29208085Y-80900409D01*
X29218393Y-80866431D01*
X29235134Y-80835110D01*
X29257661Y-80807661D01*
X29285110Y-80785134D01*
X29316431Y-80768393D01*
X29350409Y-80758085D01*
X29391890Y-80754000D01*
X29993110Y-80754000D01*
X30034591Y-80758085D01*
G37*
G36*
X40702591Y-80758085D02*
G01*
X40736569Y-80768393D01*
X40767890Y-80785134D01*
X40795339Y-80807661D01*
X40817866Y-80835110D01*
X40834607Y-80866431D01*
X40844915Y-80900409D01*
X40849000Y-80941890D01*
X40849000Y-81618110D01*
X40844915Y-81659591D01*
X40834607Y-81693569D01*
X40817866Y-81724890D01*
X40795339Y-81752339D01*
X40767890Y-81774866D01*
X40736569Y-81791607D01*
X40702591Y-81801915D01*
X40661110Y-81806000D01*
X40059890Y-81806000D01*
X40018409Y-81801915D01*
X39984431Y-81791607D01*
X39953110Y-81774866D01*
X39925661Y-81752339D01*
X39903134Y-81724890D01*
X39886393Y-81693569D01*
X39876085Y-81659591D01*
X39872000Y-81618110D01*
X39872000Y-80941890D01*
X39876085Y-80900409D01*
X39886393Y-80866431D01*
X39903134Y-80835110D01*
X39925661Y-80807661D01*
X39953110Y-80785134D01*
X39984431Y-80768393D01*
X40018409Y-80758085D01*
X40059890Y-80754000D01*
X40661110Y-80754000D01*
X40702591Y-80758085D01*
G37*
G36*
X35165591Y-80758085D02*
G01*
X35199569Y-80768393D01*
X35230890Y-80785134D01*
X35258339Y-80807661D01*
X35280866Y-80835110D01*
X35297607Y-80866431D01*
X35307915Y-80900409D01*
X35312000Y-80941890D01*
X35312000Y-81618110D01*
X35307915Y-81659591D01*
X35297607Y-81693569D01*
X35280866Y-81724890D01*
X35258339Y-81752339D01*
X35230890Y-81774866D01*
X35199569Y-81791607D01*
X35165591Y-81801915D01*
X35124110Y-81806000D01*
X34522890Y-81806000D01*
X34481409Y-81801915D01*
X34447431Y-81791607D01*
X34416110Y-81774866D01*
X34388661Y-81752339D01*
X34366134Y-81724890D01*
X34349393Y-81693569D01*
X34339085Y-81659591D01*
X34335000Y-81618110D01*
X34335000Y-80941890D01*
X34339085Y-80900409D01*
X34349393Y-80866431D01*
X34366134Y-80835110D01*
X34388661Y-80807661D01*
X34416110Y-80785134D01*
X34447431Y-80768393D01*
X34481409Y-80758085D01*
X34522890Y-80754000D01*
X35124110Y-80754000D01*
X35165591Y-80758085D01*
G37*
G36*
X33590591Y-80758085D02*
G01*
X33624569Y-80768393D01*
X33655890Y-80785134D01*
X33683339Y-80807661D01*
X33705866Y-80835110D01*
X33722607Y-80866431D01*
X33732915Y-80900409D01*
X33737000Y-80941890D01*
X33737000Y-81618110D01*
X33732915Y-81659591D01*
X33722607Y-81693569D01*
X33705866Y-81724890D01*
X33683339Y-81752339D01*
X33655890Y-81774866D01*
X33624569Y-81791607D01*
X33590591Y-81801915D01*
X33549110Y-81806000D01*
X32947890Y-81806000D01*
X32906409Y-81801915D01*
X32872431Y-81791607D01*
X32841110Y-81774866D01*
X32813661Y-81752339D01*
X32791134Y-81724890D01*
X32774393Y-81693569D01*
X32764085Y-81659591D01*
X32760000Y-81618110D01*
X32760000Y-80941890D01*
X32764085Y-80900409D01*
X32774393Y-80866431D01*
X32791134Y-80835110D01*
X32813661Y-80807661D01*
X32841110Y-80785134D01*
X32872431Y-80768393D01*
X32906409Y-80758085D01*
X32947890Y-80754000D01*
X33549110Y-80754000D01*
X33590591Y-80758085D01*
G37*
G36*
X28834928Y-78252764D02*
G01*
X28856009Y-78259160D01*
X28875445Y-78269548D01*
X28892476Y-78283524D01*
X28906452Y-78300555D01*
X28916840Y-78319991D01*
X28923236Y-78341072D01*
X28926000Y-78369140D01*
X28926000Y-80282860D01*
X28923236Y-80310928D01*
X28916840Y-80332009D01*
X28906452Y-80351445D01*
X28892476Y-80368476D01*
X28875445Y-80382452D01*
X28856009Y-80392840D01*
X28834928Y-80399236D01*
X28806860Y-80402000D01*
X28343140Y-80402000D01*
X28315072Y-80399236D01*
X28293991Y-80392840D01*
X28274555Y-80382452D01*
X28257524Y-80368476D01*
X28243548Y-80351445D01*
X28233160Y-80332009D01*
X28226764Y-80310928D01*
X28224000Y-80282860D01*
X28224000Y-78369140D01*
X28226764Y-78341072D01*
X28233160Y-78319991D01*
X28243548Y-78300555D01*
X28257524Y-78283524D01*
X28274555Y-78269548D01*
X28293991Y-78259160D01*
X28315072Y-78252764D01*
X28343140Y-78250000D01*
X28806860Y-78250000D01*
X28834928Y-78252764D01*
G37*
G36*
X41534928Y-78252764D02*
G01*
X41556009Y-78259160D01*
X41575445Y-78269548D01*
X41592476Y-78283524D01*
X41606452Y-78300555D01*
X41616840Y-78319991D01*
X41623236Y-78341072D01*
X41626000Y-78369140D01*
X41626000Y-80282860D01*
X41623236Y-80310928D01*
X41616840Y-80332009D01*
X41606452Y-80351445D01*
X41592476Y-80368476D01*
X41575445Y-80382452D01*
X41556009Y-80392840D01*
X41534928Y-80399236D01*
X41506860Y-80402000D01*
X41043140Y-80402000D01*
X41015072Y-80399236D01*
X40993991Y-80392840D01*
X40974555Y-80382452D01*
X40957524Y-80368476D01*
X40943548Y-80351445D01*
X40933160Y-80332009D01*
X40926764Y-80310928D01*
X40924000Y-80282860D01*
X40924000Y-78369140D01*
X40926764Y-78341072D01*
X40933160Y-78319991D01*
X40943548Y-78300555D01*
X40957524Y-78283524D01*
X40974555Y-78269548D01*
X40993991Y-78259160D01*
X41015072Y-78252764D01*
X41043140Y-78250000D01*
X41506860Y-78250000D01*
X41534928Y-78252764D01*
G37*
G36*
X40264928Y-78252764D02*
G01*
X40286009Y-78259160D01*
X40305445Y-78269548D01*
X40322476Y-78283524D01*
X40336452Y-78300555D01*
X40346840Y-78319991D01*
X40353236Y-78341072D01*
X40356000Y-78369140D01*
X40356000Y-80282860D01*
X40353236Y-80310928D01*
X40346840Y-80332009D01*
X40336452Y-80351445D01*
X40322476Y-80368476D01*
X40305445Y-80382452D01*
X40286009Y-80392840D01*
X40264928Y-80399236D01*
X40236860Y-80402000D01*
X39773140Y-80402000D01*
X39745072Y-80399236D01*
X39723991Y-80392840D01*
X39704555Y-80382452D01*
X39687524Y-80368476D01*
X39673548Y-80351445D01*
X39663160Y-80332009D01*
X39656764Y-80310928D01*
X39654000Y-80282860D01*
X39654000Y-78369140D01*
X39656764Y-78341072D01*
X39663160Y-78319991D01*
X39673548Y-78300555D01*
X39687524Y-78283524D01*
X39704555Y-78269548D01*
X39723991Y-78259160D01*
X39745072Y-78252764D01*
X39773140Y-78250000D01*
X40236860Y-78250000D01*
X40264928Y-78252764D01*
G37*
G36*
X35184928Y-78252764D02*
G01*
X35206009Y-78259160D01*
X35225445Y-78269548D01*
X35242476Y-78283524D01*
X35256452Y-78300555D01*
X35266840Y-78319991D01*
X35273236Y-78341072D01*
X35276000Y-78369140D01*
X35276000Y-80282860D01*
X35273236Y-80310928D01*
X35266840Y-80332009D01*
X35256452Y-80351445D01*
X35242476Y-80368476D01*
X35225445Y-80382452D01*
X35206009Y-80392840D01*
X35184928Y-80399236D01*
X35156860Y-80402000D01*
X34693140Y-80402000D01*
X34665072Y-80399236D01*
X34643991Y-80392840D01*
X34624555Y-80382452D01*
X34607524Y-80368476D01*
X34593548Y-80351445D01*
X34583160Y-80332009D01*
X34576764Y-80310928D01*
X34574000Y-80282860D01*
X34574000Y-78369140D01*
X34576764Y-78341072D01*
X34583160Y-78319991D01*
X34593548Y-78300555D01*
X34607524Y-78283524D01*
X34624555Y-78269548D01*
X34643991Y-78259160D01*
X34665072Y-78252764D01*
X34693140Y-78250000D01*
X35156860Y-78250000D01*
X35184928Y-78252764D01*
G37*
G36*
X37724928Y-78252764D02*
G01*
X37746009Y-78259160D01*
X37765445Y-78269548D01*
X37782476Y-78283524D01*
X37796452Y-78300555D01*
X37806840Y-78319991D01*
X37813236Y-78341072D01*
X37816000Y-78369140D01*
X37816000Y-80282860D01*
X37813236Y-80310928D01*
X37806840Y-80332009D01*
X37796452Y-80351445D01*
X37782476Y-80368476D01*
X37765445Y-80382452D01*
X37746009Y-80392840D01*
X37724928Y-80399236D01*
X37696860Y-80402000D01*
X37233140Y-80402000D01*
X37205072Y-80399236D01*
X37183991Y-80392840D01*
X37164555Y-80382452D01*
X37147524Y-80368476D01*
X37133548Y-80351445D01*
X37123160Y-80332009D01*
X37116764Y-80310928D01*
X37114000Y-80282860D01*
X37114000Y-78369140D01*
X37116764Y-78341072D01*
X37123160Y-78319991D01*
X37133548Y-78300555D01*
X37147524Y-78283524D01*
X37164555Y-78269548D01*
X37183991Y-78259160D01*
X37205072Y-78252764D01*
X37233140Y-78250000D01*
X37696860Y-78250000D01*
X37724928Y-78252764D01*
G37*
G36*
X38994928Y-78252764D02*
G01*
X39016009Y-78259160D01*
X39035445Y-78269548D01*
X39052476Y-78283524D01*
X39066452Y-78300555D01*
X39076840Y-78319991D01*
X39083236Y-78341072D01*
X39086000Y-78369140D01*
X39086000Y-80282860D01*
X39083236Y-80310928D01*
X39076840Y-80332009D01*
X39066452Y-80351445D01*
X39052476Y-80368476D01*
X39035445Y-80382452D01*
X39016009Y-80392840D01*
X38994928Y-80399236D01*
X38966860Y-80402000D01*
X38503140Y-80402000D01*
X38475072Y-80399236D01*
X38453991Y-80392840D01*
X38434555Y-80382452D01*
X38417524Y-80368476D01*
X38403548Y-80351445D01*
X38393160Y-80332009D01*
X38386764Y-80310928D01*
X38384000Y-80282860D01*
X38384000Y-78369140D01*
X38386764Y-78341072D01*
X38393160Y-78319991D01*
X38403548Y-78300555D01*
X38417524Y-78283524D01*
X38434555Y-78269548D01*
X38453991Y-78259160D01*
X38475072Y-78252764D01*
X38503140Y-78250000D01*
X38966860Y-78250000D01*
X38994928Y-78252764D01*
G37*
G36*
X30104928Y-78252764D02*
G01*
X30126009Y-78259160D01*
X30145445Y-78269548D01*
X30162476Y-78283524D01*
X30176452Y-78300555D01*
X30186840Y-78319991D01*
X30193236Y-78341072D01*
X30196000Y-78369140D01*
X30196000Y-80282860D01*
X30193236Y-80310928D01*
X30186840Y-80332009D01*
X30176452Y-80351445D01*
X30162476Y-80368476D01*
X30145445Y-80382452D01*
X30126009Y-80392840D01*
X30104928Y-80399236D01*
X30076860Y-80402000D01*
X29613140Y-80402000D01*
X29585072Y-80399236D01*
X29563991Y-80392840D01*
X29544555Y-80382452D01*
X29527524Y-80368476D01*
X29513548Y-80351445D01*
X29503160Y-80332009D01*
X29496764Y-80310928D01*
X29494000Y-80282860D01*
X29494000Y-78369140D01*
X29496764Y-78341072D01*
X29503160Y-78319991D01*
X29513548Y-78300555D01*
X29527524Y-78283524D01*
X29544555Y-78269548D01*
X29563991Y-78259160D01*
X29585072Y-78252764D01*
X29613140Y-78250000D01*
X30076860Y-78250000D01*
X30104928Y-78252764D01*
G37*
G36*
X25024928Y-78252764D02*
G01*
X25046009Y-78259160D01*
X25065445Y-78269548D01*
X25082476Y-78283524D01*
X25096452Y-78300555D01*
X25106840Y-78319991D01*
X25113236Y-78341072D01*
X25116000Y-78369140D01*
X25116000Y-80282860D01*
X25113236Y-80310928D01*
X25106840Y-80332009D01*
X25096452Y-80351445D01*
X25082476Y-80368476D01*
X25065445Y-80382452D01*
X25046009Y-80392840D01*
X25024928Y-80399236D01*
X24996860Y-80402000D01*
X24533140Y-80402000D01*
X24505072Y-80399236D01*
X24483991Y-80392840D01*
X24464555Y-80382452D01*
X24447524Y-80368476D01*
X24433548Y-80351445D01*
X24423160Y-80332009D01*
X24416764Y-80310928D01*
X24414000Y-80282860D01*
X24414000Y-78369140D01*
X24416764Y-78341072D01*
X24423160Y-78319991D01*
X24433548Y-78300555D01*
X24447524Y-78283524D01*
X24464555Y-78269548D01*
X24483991Y-78259160D01*
X24505072Y-78252764D01*
X24533140Y-78250000D01*
X24996860Y-78250000D01*
X25024928Y-78252764D01*
G37*
G36*
X26294928Y-78252764D02*
G01*
X26316009Y-78259160D01*
X26335445Y-78269548D01*
X26352476Y-78283524D01*
X26366452Y-78300555D01*
X26376840Y-78319991D01*
X26383236Y-78341072D01*
X26386000Y-78369140D01*
X26386000Y-80282860D01*
X26383236Y-80310928D01*
X26376840Y-80332009D01*
X26366452Y-80351445D01*
X26352476Y-80368476D01*
X26335445Y-80382452D01*
X26316009Y-80392840D01*
X26294928Y-80399236D01*
X26266860Y-80402000D01*
X25803140Y-80402000D01*
X25775072Y-80399236D01*
X25753991Y-80392840D01*
X25734555Y-80382452D01*
X25717524Y-80368476D01*
X25703548Y-80351445D01*
X25693160Y-80332009D01*
X25686764Y-80310928D01*
X25684000Y-80282860D01*
X25684000Y-78369140D01*
X25686764Y-78341072D01*
X25693160Y-78319991D01*
X25703548Y-78300555D01*
X25717524Y-78283524D01*
X25734555Y-78269548D01*
X25753991Y-78259160D01*
X25775072Y-78252764D01*
X25803140Y-78250000D01*
X26266860Y-78250000D01*
X26294928Y-78252764D01*
G37*
G36*
X27564928Y-78252764D02*
G01*
X27586009Y-78259160D01*
X27605445Y-78269548D01*
X27622476Y-78283524D01*
X27636452Y-78300555D01*
X27646840Y-78319991D01*
X27653236Y-78341072D01*
X27656000Y-78369140D01*
X27656000Y-80282860D01*
X27653236Y-80310928D01*
X27646840Y-80332009D01*
X27636452Y-80351445D01*
X27622476Y-80368476D01*
X27605445Y-80382452D01*
X27586009Y-80392840D01*
X27564928Y-80399236D01*
X27536860Y-80402000D01*
X27073140Y-80402000D01*
X27045072Y-80399236D01*
X27023991Y-80392840D01*
X27004555Y-80382452D01*
X26987524Y-80368476D01*
X26973548Y-80351445D01*
X26963160Y-80332009D01*
X26956764Y-80310928D01*
X26954000Y-80282860D01*
X26954000Y-78369140D01*
X26956764Y-78341072D01*
X26963160Y-78319991D01*
X26973548Y-78300555D01*
X26987524Y-78283524D01*
X27004555Y-78269548D01*
X27023991Y-78259160D01*
X27045072Y-78252764D01*
X27073140Y-78250000D01*
X27536860Y-78250000D01*
X27564928Y-78252764D01*
G37*
G36*
X32644928Y-78252764D02*
G01*
X32666009Y-78259160D01*
X32685445Y-78269548D01*
X32702476Y-78283524D01*
X32716452Y-78300555D01*
X32726840Y-78319991D01*
X32733236Y-78341072D01*
X32736000Y-78369140D01*
X32736000Y-80282860D01*
X32733236Y-80310928D01*
X32726840Y-80332009D01*
X32716452Y-80351445D01*
X32702476Y-80368476D01*
X32685445Y-80382452D01*
X32666009Y-80392840D01*
X32644928Y-80399236D01*
X32616860Y-80402000D01*
X32153140Y-80402000D01*
X32125072Y-80399236D01*
X32103991Y-80392840D01*
X32084555Y-80382452D01*
X32067524Y-80368476D01*
X32053548Y-80351445D01*
X32043160Y-80332009D01*
X32036764Y-80310928D01*
X32034000Y-80282860D01*
X32034000Y-78369140D01*
X32036764Y-78341072D01*
X32043160Y-78319991D01*
X32053548Y-78300555D01*
X32067524Y-78283524D01*
X32084555Y-78269548D01*
X32103991Y-78259160D01*
X32125072Y-78252764D01*
X32153140Y-78250000D01*
X32616860Y-78250000D01*
X32644928Y-78252764D01*
G37*
G36*
X33914928Y-78252764D02*
G01*
X33936009Y-78259160D01*
X33955445Y-78269548D01*
X33972476Y-78283524D01*
X33986452Y-78300555D01*
X33996840Y-78319991D01*
X34003236Y-78341072D01*
X34006000Y-78369140D01*
X34006000Y-80282860D01*
X34003236Y-80310928D01*
X33996840Y-80332009D01*
X33986452Y-80351445D01*
X33972476Y-80368476D01*
X33955445Y-80382452D01*
X33936009Y-80392840D01*
X33914928Y-80399236D01*
X33886860Y-80402000D01*
X33423140Y-80402000D01*
X33395072Y-80399236D01*
X33373991Y-80392840D01*
X33354555Y-80382452D01*
X33337524Y-80368476D01*
X33323548Y-80351445D01*
X33313160Y-80332009D01*
X33306764Y-80310928D01*
X33304000Y-80282860D01*
X33304000Y-78369140D01*
X33306764Y-78341072D01*
X33313160Y-78319991D01*
X33323548Y-78300555D01*
X33337524Y-78283524D01*
X33354555Y-78269548D01*
X33373991Y-78259160D01*
X33395072Y-78252764D01*
X33423140Y-78250000D01*
X33886860Y-78250000D01*
X33914928Y-78252764D01*
G37*
G36*
X36454928Y-78252764D02*
G01*
X36476009Y-78259160D01*
X36495445Y-78269548D01*
X36512476Y-78283524D01*
X36526452Y-78300555D01*
X36536840Y-78319991D01*
X36543236Y-78341072D01*
X36546000Y-78369140D01*
X36546000Y-80282860D01*
X36543236Y-80310928D01*
X36536840Y-80332009D01*
X36526452Y-80351445D01*
X36512476Y-80368476D01*
X36495445Y-80382452D01*
X36476009Y-80392840D01*
X36454928Y-80399236D01*
X36426860Y-80402000D01*
X35963140Y-80402000D01*
X35935072Y-80399236D01*
X35913991Y-80392840D01*
X35894555Y-80382452D01*
X35877524Y-80368476D01*
X35863548Y-80351445D01*
X35853160Y-80332009D01*
X35846764Y-80310928D01*
X35844000Y-80282860D01*
X35844000Y-78369140D01*
X35846764Y-78341072D01*
X35853160Y-78319991D01*
X35863548Y-78300555D01*
X35877524Y-78283524D01*
X35894555Y-78269548D01*
X35913991Y-78259160D01*
X35935072Y-78252764D01*
X35963140Y-78250000D01*
X36426860Y-78250000D01*
X36454928Y-78252764D01*
G37*
G36*
X31374928Y-78252764D02*
G01*
X31396009Y-78259160D01*
X31415445Y-78269548D01*
X31432476Y-78283524D01*
X31446452Y-78300555D01*
X31456840Y-78319991D01*
X31463236Y-78341072D01*
X31466000Y-78369140D01*
X31466000Y-80282860D01*
X31463236Y-80310928D01*
X31456840Y-80332009D01*
X31446452Y-80351445D01*
X31432476Y-80368476D01*
X31415445Y-80382452D01*
X31396009Y-80392840D01*
X31374928Y-80399236D01*
X31346860Y-80402000D01*
X30883140Y-80402000D01*
X30855072Y-80399236D01*
X30833991Y-80392840D01*
X30814555Y-80382452D01*
X30797524Y-80368476D01*
X30783548Y-80351445D01*
X30773160Y-80332009D01*
X30766764Y-80310928D01*
X30764000Y-80282860D01*
X30764000Y-78369140D01*
X30766764Y-78341072D01*
X30773160Y-78319991D01*
X30783548Y-78300555D01*
X30797524Y-78283524D01*
X30814555Y-78269548D01*
X30833991Y-78259160D01*
X30855072Y-78252764D01*
X30883140Y-78250000D01*
X31346860Y-78250000D01*
X31374928Y-78252764D01*
G37*
G36*
X27564928Y-68952764D02*
G01*
X27586009Y-68959160D01*
X27605445Y-68969548D01*
X27622476Y-68983524D01*
X27636452Y-69000555D01*
X27646840Y-69019991D01*
X27653236Y-69041072D01*
X27656000Y-69069140D01*
X27656000Y-70982860D01*
X27653236Y-71010928D01*
X27646840Y-71032009D01*
X27636452Y-71051445D01*
X27622476Y-71068476D01*
X27605445Y-71082452D01*
X27586009Y-71092840D01*
X27564928Y-71099236D01*
X27536860Y-71102000D01*
X27073140Y-71102000D01*
X27045072Y-71099236D01*
X27023991Y-71092840D01*
X27004555Y-71082452D01*
X26987524Y-71068476D01*
X26973548Y-71051445D01*
X26963160Y-71032009D01*
X26956764Y-71010928D01*
X26954000Y-70982860D01*
X26954000Y-69069140D01*
X26956764Y-69041072D01*
X26963160Y-69019991D01*
X26973548Y-69000555D01*
X26987524Y-68983524D01*
X27004555Y-68969548D01*
X27023991Y-68959160D01*
X27045072Y-68952764D01*
X27073140Y-68950000D01*
X27536860Y-68950000D01*
X27564928Y-68952764D01*
G37*
G36*
X25024928Y-68952764D02*
G01*
X25046009Y-68959160D01*
X25065445Y-68969548D01*
X25082476Y-68983524D01*
X25096452Y-69000555D01*
X25106840Y-69019991D01*
X25113236Y-69041072D01*
X25116000Y-69069140D01*
X25116000Y-70982860D01*
X25113236Y-71010928D01*
X25106840Y-71032009D01*
X25096452Y-71051445D01*
X25082476Y-71068476D01*
X25065445Y-71082452D01*
X25046009Y-71092840D01*
X25024928Y-71099236D01*
X24996860Y-71102000D01*
X24533140Y-71102000D01*
X24505072Y-71099236D01*
X24483991Y-71092840D01*
X24464555Y-71082452D01*
X24447524Y-71068476D01*
X24433548Y-71051445D01*
X24423160Y-71032009D01*
X24416764Y-71010928D01*
X24414000Y-70982860D01*
X24414000Y-69069140D01*
X24416764Y-69041072D01*
X24423160Y-69019991D01*
X24433548Y-69000555D01*
X24447524Y-68983524D01*
X24464555Y-68969548D01*
X24483991Y-68959160D01*
X24505072Y-68952764D01*
X24533140Y-68950000D01*
X24996860Y-68950000D01*
X25024928Y-68952764D01*
G37*
G36*
X26294928Y-68952764D02*
G01*
X26316009Y-68959160D01*
X26335445Y-68969548D01*
X26352476Y-68983524D01*
X26366452Y-69000555D01*
X26376840Y-69019991D01*
X26383236Y-69041072D01*
X26386000Y-69069140D01*
X26386000Y-70982860D01*
X26383236Y-71010928D01*
X26376840Y-71032009D01*
X26366452Y-71051445D01*
X26352476Y-71068476D01*
X26335445Y-71082452D01*
X26316009Y-71092840D01*
X26294928Y-71099236D01*
X26266860Y-71102000D01*
X25803140Y-71102000D01*
X25775072Y-71099236D01*
X25753991Y-71092840D01*
X25734555Y-71082452D01*
X25717524Y-71068476D01*
X25703548Y-71051445D01*
X25693160Y-71032009D01*
X25686764Y-71010928D01*
X25684000Y-70982860D01*
X25684000Y-69069140D01*
X25686764Y-69041072D01*
X25693160Y-69019991D01*
X25703548Y-69000555D01*
X25717524Y-68983524D01*
X25734555Y-68969548D01*
X25753991Y-68959160D01*
X25775072Y-68952764D01*
X25803140Y-68950000D01*
X26266860Y-68950000D01*
X26294928Y-68952764D01*
G37*
G36*
X41534928Y-68952764D02*
G01*
X41556009Y-68959160D01*
X41575445Y-68969548D01*
X41592476Y-68983524D01*
X41606452Y-69000555D01*
X41616840Y-69019991D01*
X41623236Y-69041072D01*
X41626000Y-69069140D01*
X41626000Y-70982860D01*
X41623236Y-71010928D01*
X41616840Y-71032009D01*
X41606452Y-71051445D01*
X41592476Y-71068476D01*
X41575445Y-71082452D01*
X41556009Y-71092840D01*
X41534928Y-71099236D01*
X41506860Y-71102000D01*
X41043140Y-71102000D01*
X41015072Y-71099236D01*
X40993991Y-71092840D01*
X40974555Y-71082452D01*
X40957524Y-71068476D01*
X40943548Y-71051445D01*
X40933160Y-71032009D01*
X40926764Y-71010928D01*
X40924000Y-70982860D01*
X40924000Y-69069140D01*
X40926764Y-69041072D01*
X40933160Y-69019991D01*
X40943548Y-69000555D01*
X40957524Y-68983524D01*
X40974555Y-68969548D01*
X40993991Y-68959160D01*
X41015072Y-68952764D01*
X41043140Y-68950000D01*
X41506860Y-68950000D01*
X41534928Y-68952764D01*
G37*
G36*
X40264928Y-68952764D02*
G01*
X40286009Y-68959160D01*
X40305445Y-68969548D01*
X40322476Y-68983524D01*
X40336452Y-69000555D01*
X40346840Y-69019991D01*
X40353236Y-69041072D01*
X40356000Y-69069140D01*
X40356000Y-70982860D01*
X40353236Y-71010928D01*
X40346840Y-71032009D01*
X40336452Y-71051445D01*
X40322476Y-71068476D01*
X40305445Y-71082452D01*
X40286009Y-71092840D01*
X40264928Y-71099236D01*
X40236860Y-71102000D01*
X39773140Y-71102000D01*
X39745072Y-71099236D01*
X39723991Y-71092840D01*
X39704555Y-71082452D01*
X39687524Y-71068476D01*
X39673548Y-71051445D01*
X39663160Y-71032009D01*
X39656764Y-71010928D01*
X39654000Y-70982860D01*
X39654000Y-69069140D01*
X39656764Y-69041072D01*
X39663160Y-69019991D01*
X39673548Y-69000555D01*
X39687524Y-68983524D01*
X39704555Y-68969548D01*
X39723991Y-68959160D01*
X39745072Y-68952764D01*
X39773140Y-68950000D01*
X40236860Y-68950000D01*
X40264928Y-68952764D01*
G37*
G36*
X37724928Y-68952764D02*
G01*
X37746009Y-68959160D01*
X37765445Y-68969548D01*
X37782476Y-68983524D01*
X37796452Y-69000555D01*
X37806840Y-69019991D01*
X37813236Y-69041072D01*
X37816000Y-69069140D01*
X37816000Y-70982860D01*
X37813236Y-71010928D01*
X37806840Y-71032009D01*
X37796452Y-71051445D01*
X37782476Y-71068476D01*
X37765445Y-71082452D01*
X37746009Y-71092840D01*
X37724928Y-71099236D01*
X37696860Y-71102000D01*
X37233140Y-71102000D01*
X37205072Y-71099236D01*
X37183991Y-71092840D01*
X37164555Y-71082452D01*
X37147524Y-71068476D01*
X37133548Y-71051445D01*
X37123160Y-71032009D01*
X37116764Y-71010928D01*
X37114000Y-70982860D01*
X37114000Y-69069140D01*
X37116764Y-69041072D01*
X37123160Y-69019991D01*
X37133548Y-69000555D01*
X37147524Y-68983524D01*
X37164555Y-68969548D01*
X37183991Y-68959160D01*
X37205072Y-68952764D01*
X37233140Y-68950000D01*
X37696860Y-68950000D01*
X37724928Y-68952764D01*
G37*
G36*
X36454928Y-68952764D02*
G01*
X36476009Y-68959160D01*
X36495445Y-68969548D01*
X36512476Y-68983524D01*
X36526452Y-69000555D01*
X36536840Y-69019991D01*
X36543236Y-69041072D01*
X36546000Y-69069140D01*
X36546000Y-70982860D01*
X36543236Y-71010928D01*
X36536840Y-71032009D01*
X36526452Y-71051445D01*
X36512476Y-71068476D01*
X36495445Y-71082452D01*
X36476009Y-71092840D01*
X36454928Y-71099236D01*
X36426860Y-71102000D01*
X35963140Y-71102000D01*
X35935072Y-71099236D01*
X35913991Y-71092840D01*
X35894555Y-71082452D01*
X35877524Y-71068476D01*
X35863548Y-71051445D01*
X35853160Y-71032009D01*
X35846764Y-71010928D01*
X35844000Y-70982860D01*
X35844000Y-69069140D01*
X35846764Y-69041072D01*
X35853160Y-69019991D01*
X35863548Y-69000555D01*
X35877524Y-68983524D01*
X35894555Y-68969548D01*
X35913991Y-68959160D01*
X35935072Y-68952764D01*
X35963140Y-68950000D01*
X36426860Y-68950000D01*
X36454928Y-68952764D01*
G37*
G36*
X33914928Y-68952764D02*
G01*
X33936009Y-68959160D01*
X33955445Y-68969548D01*
X33972476Y-68983524D01*
X33986452Y-69000555D01*
X33996840Y-69019991D01*
X34003236Y-69041072D01*
X34006000Y-69069140D01*
X34006000Y-70982860D01*
X34003236Y-71010928D01*
X33996840Y-71032009D01*
X33986452Y-71051445D01*
X33972476Y-71068476D01*
X33955445Y-71082452D01*
X33936009Y-71092840D01*
X33914928Y-71099236D01*
X33886860Y-71102000D01*
X33423140Y-71102000D01*
X33395072Y-71099236D01*
X33373991Y-71092840D01*
X33354555Y-71082452D01*
X33337524Y-71068476D01*
X33323548Y-71051445D01*
X33313160Y-71032009D01*
X33306764Y-71010928D01*
X33304000Y-70982860D01*
X33304000Y-69069140D01*
X33306764Y-69041072D01*
X33313160Y-69019991D01*
X33323548Y-69000555D01*
X33337524Y-68983524D01*
X33354555Y-68969548D01*
X33373991Y-68959160D01*
X33395072Y-68952764D01*
X33423140Y-68950000D01*
X33886860Y-68950000D01*
X33914928Y-68952764D01*
G37*
G36*
X32644928Y-68952764D02*
G01*
X32666009Y-68959160D01*
X32685445Y-68969548D01*
X32702476Y-68983524D01*
X32716452Y-69000555D01*
X32726840Y-69019991D01*
X32733236Y-69041072D01*
X32736000Y-69069140D01*
X32736000Y-70982860D01*
X32733236Y-71010928D01*
X32726840Y-71032009D01*
X32716452Y-71051445D01*
X32702476Y-71068476D01*
X32685445Y-71082452D01*
X32666009Y-71092840D01*
X32644928Y-71099236D01*
X32616860Y-71102000D01*
X32153140Y-71102000D01*
X32125072Y-71099236D01*
X32103991Y-71092840D01*
X32084555Y-71082452D01*
X32067524Y-71068476D01*
X32053548Y-71051445D01*
X32043160Y-71032009D01*
X32036764Y-71010928D01*
X32034000Y-70982860D01*
X32034000Y-69069140D01*
X32036764Y-69041072D01*
X32043160Y-69019991D01*
X32053548Y-69000555D01*
X32067524Y-68983524D01*
X32084555Y-68969548D01*
X32103991Y-68959160D01*
X32125072Y-68952764D01*
X32153140Y-68950000D01*
X32616860Y-68950000D01*
X32644928Y-68952764D01*
G37*
G36*
X31374928Y-68952764D02*
G01*
X31396009Y-68959160D01*
X31415445Y-68969548D01*
X31432476Y-68983524D01*
X31446452Y-69000555D01*
X31456840Y-69019991D01*
X31463236Y-69041072D01*
X31466000Y-69069140D01*
X31466000Y-70982860D01*
X31463236Y-71010928D01*
X31456840Y-71032009D01*
X31446452Y-71051445D01*
X31432476Y-71068476D01*
X31415445Y-71082452D01*
X31396009Y-71092840D01*
X31374928Y-71099236D01*
X31346860Y-71102000D01*
X30883140Y-71102000D01*
X30855072Y-71099236D01*
X30833991Y-71092840D01*
X30814555Y-71082452D01*
X30797524Y-71068476D01*
X30783548Y-71051445D01*
X30773160Y-71032009D01*
X30766764Y-71010928D01*
X30764000Y-70982860D01*
X30764000Y-69069140D01*
X30766764Y-69041072D01*
X30773160Y-69019991D01*
X30783548Y-69000555D01*
X30797524Y-68983524D01*
X30814555Y-68969548D01*
X30833991Y-68959160D01*
X30855072Y-68952764D01*
X30883140Y-68950000D01*
X31346860Y-68950000D01*
X31374928Y-68952764D01*
G37*
G36*
X28834928Y-68952764D02*
G01*
X28856009Y-68959160D01*
X28875445Y-68969548D01*
X28892476Y-68983524D01*
X28906452Y-69000555D01*
X28916840Y-69019991D01*
X28923236Y-69041072D01*
X28926000Y-69069140D01*
X28926000Y-70982860D01*
X28923236Y-71010928D01*
X28916840Y-71032009D01*
X28906452Y-71051445D01*
X28892476Y-71068476D01*
X28875445Y-71082452D01*
X28856009Y-71092840D01*
X28834928Y-71099236D01*
X28806860Y-71102000D01*
X28343140Y-71102000D01*
X28315072Y-71099236D01*
X28293991Y-71092840D01*
X28274555Y-71082452D01*
X28257524Y-71068476D01*
X28243548Y-71051445D01*
X28233160Y-71032009D01*
X28226764Y-71010928D01*
X28224000Y-70982860D01*
X28224000Y-69069140D01*
X28226764Y-69041072D01*
X28233160Y-69019991D01*
X28243548Y-69000555D01*
X28257524Y-68983524D01*
X28274555Y-68969548D01*
X28293991Y-68959160D01*
X28315072Y-68952764D01*
X28343140Y-68950000D01*
X28806860Y-68950000D01*
X28834928Y-68952764D01*
G37*
G36*
X38994928Y-68952764D02*
G01*
X39016009Y-68959160D01*
X39035445Y-68969548D01*
X39052476Y-68983524D01*
X39066452Y-69000555D01*
X39076840Y-69019991D01*
X39083236Y-69041072D01*
X39086000Y-69069140D01*
X39086000Y-70982860D01*
X39083236Y-71010928D01*
X39076840Y-71032009D01*
X39066452Y-71051445D01*
X39052476Y-71068476D01*
X39035445Y-71082452D01*
X39016009Y-71092840D01*
X38994928Y-71099236D01*
X38966860Y-71102000D01*
X38503140Y-71102000D01*
X38475072Y-71099236D01*
X38453991Y-71092840D01*
X38434555Y-71082452D01*
X38417524Y-71068476D01*
X38403548Y-71051445D01*
X38393160Y-71032009D01*
X38386764Y-71010928D01*
X38384000Y-70982860D01*
X38384000Y-69069140D01*
X38386764Y-69041072D01*
X38393160Y-69019991D01*
X38403548Y-69000555D01*
X38417524Y-68983524D01*
X38434555Y-68969548D01*
X38453991Y-68959160D01*
X38475072Y-68952764D01*
X38503140Y-68950000D01*
X38966860Y-68950000D01*
X38994928Y-68952764D01*
G37*
G36*
X30104928Y-68952764D02*
G01*
X30126009Y-68959160D01*
X30145445Y-68969548D01*
X30162476Y-68983524D01*
X30176452Y-69000555D01*
X30186840Y-69019991D01*
X30193236Y-69041072D01*
X30196000Y-69069140D01*
X30196000Y-70982860D01*
X30193236Y-71010928D01*
X30186840Y-71032009D01*
X30176452Y-71051445D01*
X30162476Y-71068476D01*
X30145445Y-71082452D01*
X30126009Y-71092840D01*
X30104928Y-71099236D01*
X30076860Y-71102000D01*
X29613140Y-71102000D01*
X29585072Y-71099236D01*
X29563991Y-71092840D01*
X29544555Y-71082452D01*
X29527524Y-71068476D01*
X29513548Y-71051445D01*
X29503160Y-71032009D01*
X29496764Y-71010928D01*
X29494000Y-70982860D01*
X29494000Y-69069140D01*
X29496764Y-69041072D01*
X29503160Y-69019991D01*
X29513548Y-69000555D01*
X29527524Y-68983524D01*
X29544555Y-68969548D01*
X29563991Y-68959160D01*
X29585072Y-68952764D01*
X29613140Y-68950000D01*
X30076860Y-68950000D01*
X30104928Y-68952764D01*
G37*
G36*
X35184928Y-68952764D02*
G01*
X35206009Y-68959160D01*
X35225445Y-68969548D01*
X35242476Y-68983524D01*
X35256452Y-69000555D01*
X35266840Y-69019991D01*
X35273236Y-69041072D01*
X35276000Y-69069140D01*
X35276000Y-70982860D01*
X35273236Y-71010928D01*
X35266840Y-71032009D01*
X35256452Y-71051445D01*
X35242476Y-71068476D01*
X35225445Y-71082452D01*
X35206009Y-71092840D01*
X35184928Y-71099236D01*
X35156860Y-71102000D01*
X34693140Y-71102000D01*
X34665072Y-71099236D01*
X34643991Y-71092840D01*
X34624555Y-71082452D01*
X34607524Y-71068476D01*
X34593548Y-71051445D01*
X34583160Y-71032009D01*
X34576764Y-71010928D01*
X34574000Y-70982860D01*
X34574000Y-69069140D01*
X34576764Y-69041072D01*
X34583160Y-69019991D01*
X34593548Y-69000555D01*
X34607524Y-68983524D01*
X34624555Y-68969548D01*
X34643991Y-68959160D01*
X34665072Y-68952764D01*
X34693140Y-68950000D01*
X35156860Y-68950000D01*
X35184928Y-68952764D01*
G37*
G36*
X31551000Y-68145000D02*
G01*
X30249000Y-68145000D01*
X30249000Y-66643000D01*
X31551000Y-66643000D01*
X31551000Y-68145000D01*
G37*
G36*
X33251000Y-68145000D02*
G01*
X31949000Y-68145000D01*
X31949000Y-66643000D01*
X33251000Y-66643000D01*
X33251000Y-68145000D01*
G37*
G36*
X28065591Y-66089085D02*
G01*
X28099569Y-66099393D01*
X28130890Y-66116134D01*
X28158339Y-66138661D01*
X28180866Y-66166110D01*
X28197607Y-66197431D01*
X28207915Y-66231409D01*
X28212000Y-66272890D01*
X28212000Y-66874110D01*
X28207915Y-66915591D01*
X28197607Y-66949569D01*
X28180866Y-66980890D01*
X28158339Y-67008339D01*
X28130890Y-67030866D01*
X28099569Y-67047607D01*
X28065591Y-67057915D01*
X28024110Y-67062000D01*
X27347890Y-67062000D01*
X27306409Y-67057915D01*
X27272431Y-67047607D01*
X27241110Y-67030866D01*
X27213661Y-67008339D01*
X27191134Y-66980890D01*
X27174393Y-66949569D01*
X27164085Y-66915591D01*
X27160000Y-66874110D01*
X27160000Y-66272890D01*
X27164085Y-66231409D01*
X27174393Y-66197431D01*
X27191134Y-66166110D01*
X27213661Y-66138661D01*
X27241110Y-66116134D01*
X27272431Y-66099393D01*
X27306409Y-66089085D01*
X27347890Y-66085000D01*
X28024110Y-66085000D01*
X28065591Y-66089085D01*
G37*
G36*
X34669591Y-66089085D02*
G01*
X34703569Y-66099393D01*
X34734890Y-66116134D01*
X34762339Y-66138661D01*
X34784866Y-66166110D01*
X34801607Y-66197431D01*
X34811915Y-66231409D01*
X34816000Y-66272890D01*
X34816000Y-66874110D01*
X34811915Y-66915591D01*
X34801607Y-66949569D01*
X34784866Y-66980890D01*
X34762339Y-67008339D01*
X34734890Y-67030866D01*
X34703569Y-67047607D01*
X34669591Y-67057915D01*
X34628110Y-67062000D01*
X33951890Y-67062000D01*
X33910409Y-67057915D01*
X33876431Y-67047607D01*
X33845110Y-67030866D01*
X33817661Y-67008339D01*
X33795134Y-66980890D01*
X33778393Y-66949569D01*
X33768085Y-66915591D01*
X33764000Y-66874110D01*
X33764000Y-66272890D01*
X33768085Y-66231409D01*
X33778393Y-66197431D01*
X33795134Y-66166110D01*
X33817661Y-66138661D01*
X33845110Y-66116134D01*
X33876431Y-66099393D01*
X33910409Y-66089085D01*
X33951890Y-66085000D01*
X34628110Y-66085000D01*
X34669591Y-66089085D01*
G37*
G36*
X29589591Y-66089085D02*
G01*
X29623569Y-66099393D01*
X29654890Y-66116134D01*
X29682339Y-66138661D01*
X29704866Y-66166110D01*
X29721607Y-66197431D01*
X29731915Y-66231409D01*
X29736000Y-66272890D01*
X29736000Y-66874110D01*
X29731915Y-66915591D01*
X29721607Y-66949569D01*
X29704866Y-66980890D01*
X29682339Y-67008339D01*
X29654890Y-67030866D01*
X29623569Y-67047607D01*
X29589591Y-67057915D01*
X29548110Y-67062000D01*
X28871890Y-67062000D01*
X28830409Y-67057915D01*
X28796431Y-67047607D01*
X28765110Y-67030866D01*
X28737661Y-67008339D01*
X28715134Y-66980890D01*
X28698393Y-66949569D01*
X28688085Y-66915591D01*
X28684000Y-66874110D01*
X28684000Y-66272890D01*
X28688085Y-66231409D01*
X28698393Y-66197431D01*
X28715134Y-66166110D01*
X28737661Y-66138661D01*
X28765110Y-66116134D01*
X28796431Y-66099393D01*
X28830409Y-66089085D01*
X28871890Y-66085000D01*
X29548110Y-66085000D01*
X29589591Y-66089085D01*
G37*
G36*
X37971591Y-66089085D02*
G01*
X38005569Y-66099393D01*
X38036890Y-66116134D01*
X38064339Y-66138661D01*
X38086866Y-66166110D01*
X38103607Y-66197431D01*
X38113915Y-66231409D01*
X38118000Y-66272890D01*
X38118000Y-66874110D01*
X38113915Y-66915591D01*
X38103607Y-66949569D01*
X38086866Y-66980890D01*
X38064339Y-67008339D01*
X38036890Y-67030866D01*
X38005569Y-67047607D01*
X37971591Y-67057915D01*
X37930110Y-67062000D01*
X37253890Y-67062000D01*
X37212409Y-67057915D01*
X37178431Y-67047607D01*
X37147110Y-67030866D01*
X37119661Y-67008339D01*
X37097134Y-66980890D01*
X37080393Y-66949569D01*
X37070085Y-66915591D01*
X37066000Y-66874110D01*
X37066000Y-66272890D01*
X37070085Y-66231409D01*
X37080393Y-66197431D01*
X37097134Y-66166110D01*
X37119661Y-66138661D01*
X37147110Y-66116134D01*
X37178431Y-66099393D01*
X37212409Y-66089085D01*
X37253890Y-66085000D01*
X37930110Y-66085000D01*
X37971591Y-66089085D01*
G37*
G36*
X36447591Y-66089085D02*
G01*
X36481569Y-66099393D01*
X36512890Y-66116134D01*
X36540339Y-66138661D01*
X36562866Y-66166110D01*
X36579607Y-66197431D01*
X36589915Y-66231409D01*
X36594000Y-66272890D01*
X36594000Y-66874110D01*
X36589915Y-66915591D01*
X36579607Y-66949569D01*
X36562866Y-66980890D01*
X36540339Y-67008339D01*
X36512890Y-67030866D01*
X36481569Y-67047607D01*
X36447591Y-67057915D01*
X36406110Y-67062000D01*
X35729890Y-67062000D01*
X35688409Y-67057915D01*
X35654431Y-67047607D01*
X35623110Y-67030866D01*
X35595661Y-67008339D01*
X35573134Y-66980890D01*
X35556393Y-66949569D01*
X35546085Y-66915591D01*
X35542000Y-66874110D01*
X35542000Y-66272890D01*
X35546085Y-66231409D01*
X35556393Y-66197431D01*
X35573134Y-66166110D01*
X35595661Y-66138661D01*
X35623110Y-66116134D01*
X35654431Y-66099393D01*
X35688409Y-66089085D01*
X35729890Y-66085000D01*
X36406110Y-66085000D01*
X36447591Y-66089085D01*
G37*
G36*
X33251000Y-65945000D02*
G01*
X31949000Y-65945000D01*
X31949000Y-64443000D01*
X33251000Y-64443000D01*
X33251000Y-65945000D01*
G37*
G36*
X31551000Y-65945000D02*
G01*
X30249000Y-65945000D01*
X30249000Y-64443000D01*
X31551000Y-64443000D01*
X31551000Y-65945000D01*
G37*
G36*
X37971591Y-64514085D02*
G01*
X38005569Y-64524393D01*
X38036890Y-64541134D01*
X38064339Y-64563661D01*
X38086866Y-64591110D01*
X38103607Y-64622431D01*
X38113915Y-64656409D01*
X38118000Y-64697890D01*
X38118000Y-65299110D01*
X38113915Y-65340591D01*
X38103607Y-65374569D01*
X38086866Y-65405890D01*
X38064339Y-65433339D01*
X38036890Y-65455866D01*
X38005569Y-65472607D01*
X37971591Y-65482915D01*
X37930110Y-65487000D01*
X37253890Y-65487000D01*
X37212409Y-65482915D01*
X37178431Y-65472607D01*
X37147110Y-65455866D01*
X37119661Y-65433339D01*
X37097134Y-65405890D01*
X37080393Y-65374569D01*
X37070085Y-65340591D01*
X37066000Y-65299110D01*
X37066000Y-64697890D01*
X37070085Y-64656409D01*
X37080393Y-64622431D01*
X37097134Y-64591110D01*
X37119661Y-64563661D01*
X37147110Y-64541134D01*
X37178431Y-64524393D01*
X37212409Y-64514085D01*
X37253890Y-64510000D01*
X37930110Y-64510000D01*
X37971591Y-64514085D01*
G37*
G36*
X36447591Y-64514085D02*
G01*
X36481569Y-64524393D01*
X36512890Y-64541134D01*
X36540339Y-64563661D01*
X36562866Y-64591110D01*
X36579607Y-64622431D01*
X36589915Y-64656409D01*
X36594000Y-64697890D01*
X36594000Y-65299110D01*
X36589915Y-65340591D01*
X36579607Y-65374569D01*
X36562866Y-65405890D01*
X36540339Y-65433339D01*
X36512890Y-65455866D01*
X36481569Y-65472607D01*
X36447591Y-65482915D01*
X36406110Y-65487000D01*
X35729890Y-65487000D01*
X35688409Y-65482915D01*
X35654431Y-65472607D01*
X35623110Y-65455866D01*
X35595661Y-65433339D01*
X35573134Y-65405890D01*
X35556393Y-65374569D01*
X35546085Y-65340591D01*
X35542000Y-65299110D01*
X35542000Y-64697890D01*
X35546085Y-64656409D01*
X35556393Y-64622431D01*
X35573134Y-64591110D01*
X35595661Y-64563661D01*
X35623110Y-64541134D01*
X35654431Y-64524393D01*
X35688409Y-64514085D01*
X35729890Y-64510000D01*
X36406110Y-64510000D01*
X36447591Y-64514085D01*
G37*
G36*
X29589591Y-64514085D02*
G01*
X29623569Y-64524393D01*
X29654890Y-64541134D01*
X29682339Y-64563661D01*
X29704866Y-64591110D01*
X29721607Y-64622431D01*
X29731915Y-64656409D01*
X29736000Y-64697890D01*
X29736000Y-65299110D01*
X29731915Y-65340591D01*
X29721607Y-65374569D01*
X29704866Y-65405890D01*
X29682339Y-65433339D01*
X29654890Y-65455866D01*
X29623569Y-65472607D01*
X29589591Y-65482915D01*
X29548110Y-65487000D01*
X28871890Y-65487000D01*
X28830409Y-65482915D01*
X28796431Y-65472607D01*
X28765110Y-65455866D01*
X28737661Y-65433339D01*
X28715134Y-65405890D01*
X28698393Y-65374569D01*
X28688085Y-65340591D01*
X28684000Y-65299110D01*
X28684000Y-64697890D01*
X28688085Y-64656409D01*
X28698393Y-64622431D01*
X28715134Y-64591110D01*
X28737661Y-64563661D01*
X28765110Y-64541134D01*
X28796431Y-64524393D01*
X28830409Y-64514085D01*
X28871890Y-64510000D01*
X29548110Y-64510000D01*
X29589591Y-64514085D01*
G37*
G36*
X34669591Y-64514085D02*
G01*
X34703569Y-64524393D01*
X34734890Y-64541134D01*
X34762339Y-64563661D01*
X34784866Y-64591110D01*
X34801607Y-64622431D01*
X34811915Y-64656409D01*
X34816000Y-64697890D01*
X34816000Y-65299110D01*
X34811915Y-65340591D01*
X34801607Y-65374569D01*
X34784866Y-65405890D01*
X34762339Y-65433339D01*
X34734890Y-65455866D01*
X34703569Y-65472607D01*
X34669591Y-65482915D01*
X34628110Y-65487000D01*
X33951890Y-65487000D01*
X33910409Y-65482915D01*
X33876431Y-65472607D01*
X33845110Y-65455866D01*
X33817661Y-65433339D01*
X33795134Y-65405890D01*
X33778393Y-65374569D01*
X33768085Y-65340591D01*
X33764000Y-65299110D01*
X33764000Y-64697890D01*
X33768085Y-64656409D01*
X33778393Y-64622431D01*
X33795134Y-64591110D01*
X33817661Y-64563661D01*
X33845110Y-64541134D01*
X33876431Y-64524393D01*
X33910409Y-64514085D01*
X33951890Y-64510000D01*
X34628110Y-64510000D01*
X34669591Y-64514085D01*
G37*
G36*
X28065591Y-64514085D02*
G01*
X28099569Y-64524393D01*
X28130890Y-64541134D01*
X28158339Y-64563661D01*
X28180866Y-64591110D01*
X28197607Y-64622431D01*
X28207915Y-64656409D01*
X28212000Y-64697890D01*
X28212000Y-65299110D01*
X28207915Y-65340591D01*
X28197607Y-65374569D01*
X28180866Y-65405890D01*
X28158339Y-65433339D01*
X28130890Y-65455866D01*
X28099569Y-65472607D01*
X28065591Y-65482915D01*
X28024110Y-65487000D01*
X27347890Y-65487000D01*
X27306409Y-65482915D01*
X27272431Y-65472607D01*
X27241110Y-65455866D01*
X27213661Y-65433339D01*
X27191134Y-65405890D01*
X27174393Y-65374569D01*
X27164085Y-65340591D01*
X27160000Y-65299110D01*
X27160000Y-64697890D01*
X27164085Y-64656409D01*
X27174393Y-64622431D01*
X27191134Y-64591110D01*
X27213661Y-64563661D01*
X27241110Y-64541134D01*
X27272431Y-64524393D01*
X27306409Y-64514085D01*
X27347890Y-64510000D01*
X28024110Y-64510000D01*
X28065591Y-64514085D01*
G37*
G36*
X40271000Y-62369000D02*
G01*
X38469000Y-62369000D01*
X38469000Y-60567000D01*
X40271000Y-60567000D01*
X40271000Y-62369000D01*
G37*
G36*
X36943512Y-60571927D02*
G01*
X37092812Y-60601624D01*
X37256784Y-60669544D01*
X37404354Y-60768147D01*
X37529853Y-60893646D01*
X37628456Y-61041216D01*
X37696376Y-61205188D01*
X37731000Y-61379259D01*
X37731000Y-61556741D01*
X37696376Y-61730812D01*
X37628456Y-61894784D01*
X37529853Y-62042354D01*
X37404354Y-62167853D01*
X37256784Y-62266456D01*
X37092812Y-62334376D01*
X36943512Y-62364073D01*
X36918742Y-62369000D01*
X36741258Y-62369000D01*
X36716488Y-62364073D01*
X36567188Y-62334376D01*
X36403216Y-62266456D01*
X36255646Y-62167853D01*
X36130147Y-62042354D01*
X36031544Y-61894784D01*
X35963624Y-61730812D01*
X35929000Y-61556741D01*
X35929000Y-61379259D01*
X35963624Y-61205188D01*
X36031544Y-61041216D01*
X36130147Y-60893646D01*
X36255646Y-60768147D01*
X36403216Y-60669544D01*
X36567188Y-60601624D01*
X36716488Y-60571927D01*
X36741258Y-60567000D01*
X36918742Y-60567000D01*
X36943512Y-60571927D01*
G37*
G36*
X34403512Y-60571927D02*
G01*
X34552812Y-60601624D01*
X34716784Y-60669544D01*
X34864354Y-60768147D01*
X34989853Y-60893646D01*
X35088456Y-61041216D01*
X35156376Y-61205188D01*
X35191000Y-61379259D01*
X35191000Y-61556741D01*
X35156376Y-61730812D01*
X35088456Y-61894784D01*
X34989853Y-62042354D01*
X34864354Y-62167853D01*
X34716784Y-62266456D01*
X34552812Y-62334376D01*
X34403512Y-62364073D01*
X34378742Y-62369000D01*
X34201258Y-62369000D01*
X34176488Y-62364073D01*
X34027188Y-62334376D01*
X33863216Y-62266456D01*
X33715646Y-62167853D01*
X33590147Y-62042354D01*
X33491544Y-61894784D01*
X33423624Y-61730812D01*
X33389000Y-61556741D01*
X33389000Y-61379259D01*
X33423624Y-61205188D01*
X33491544Y-61041216D01*
X33590147Y-60893646D01*
X33715646Y-60768147D01*
X33863216Y-60669544D01*
X34027188Y-60601624D01*
X34176488Y-60571927D01*
X34201258Y-60567000D01*
X34378742Y-60567000D01*
X34403512Y-60571927D01*
G37*
G36*
X31863512Y-60571927D02*
G01*
X32012812Y-60601624D01*
X32176784Y-60669544D01*
X32324354Y-60768147D01*
X32449853Y-60893646D01*
X32548456Y-61041216D01*
X32616376Y-61205188D01*
X32651000Y-61379259D01*
X32651000Y-61556741D01*
X32616376Y-61730812D01*
X32548456Y-61894784D01*
X32449853Y-62042354D01*
X32324354Y-62167853D01*
X32176784Y-62266456D01*
X32012812Y-62334376D01*
X31863512Y-62364073D01*
X31838742Y-62369000D01*
X31661258Y-62369000D01*
X31636488Y-62364073D01*
X31487188Y-62334376D01*
X31323216Y-62266456D01*
X31175646Y-62167853D01*
X31050147Y-62042354D01*
X30951544Y-61894784D01*
X30883624Y-61730812D01*
X30849000Y-61556741D01*
X30849000Y-61379259D01*
X30883624Y-61205188D01*
X30951544Y-61041216D01*
X31050147Y-60893646D01*
X31175646Y-60768147D01*
X31323216Y-60669544D01*
X31487188Y-60601624D01*
X31636488Y-60571927D01*
X31661258Y-60567000D01*
X31838742Y-60567000D01*
X31863512Y-60571927D01*
G37*
G36*
X29323512Y-60571927D02*
G01*
X29472812Y-60601624D01*
X29636784Y-60669544D01*
X29784354Y-60768147D01*
X29909853Y-60893646D01*
X30008456Y-61041216D01*
X30076376Y-61205188D01*
X30111000Y-61379259D01*
X30111000Y-61556741D01*
X30076376Y-61730812D01*
X30008456Y-61894784D01*
X29909853Y-62042354D01*
X29784354Y-62167853D01*
X29636784Y-62266456D01*
X29472812Y-62334376D01*
X29323512Y-62364073D01*
X29298742Y-62369000D01*
X29121258Y-62369000D01*
X29096488Y-62364073D01*
X28947188Y-62334376D01*
X28783216Y-62266456D01*
X28635646Y-62167853D01*
X28510147Y-62042354D01*
X28411544Y-61894784D01*
X28343624Y-61730812D01*
X28309000Y-61556741D01*
X28309000Y-61379259D01*
X28343624Y-61205188D01*
X28411544Y-61041216D01*
X28510147Y-60893646D01*
X28635646Y-60768147D01*
X28783216Y-60669544D01*
X28947188Y-60601624D01*
X29096488Y-60571927D01*
X29121258Y-60567000D01*
X29298742Y-60567000D01*
X29323512Y-60571927D01*
G37*
G36*
X26783512Y-60571927D02*
G01*
X26932812Y-60601624D01*
X27096784Y-60669544D01*
X27244354Y-60768147D01*
X27369853Y-60893646D01*
X27468456Y-61041216D01*
X27536376Y-61205188D01*
X27571000Y-61379259D01*
X27571000Y-61556741D01*
X27536376Y-61730812D01*
X27468456Y-61894784D01*
X27369853Y-62042354D01*
X27244354Y-62167853D01*
X27096784Y-62266456D01*
X26932812Y-62334376D01*
X26783512Y-62364073D01*
X26758742Y-62369000D01*
X26581258Y-62369000D01*
X26556488Y-62364073D01*
X26407188Y-62334376D01*
X26243216Y-62266456D01*
X26095646Y-62167853D01*
X25970147Y-62042354D01*
X25871544Y-61894784D01*
X25803624Y-61730812D01*
X25769000Y-61556741D01*
X25769000Y-61379259D01*
X25803624Y-61205188D01*
X25871544Y-61041216D01*
X25970147Y-60893646D01*
X26095646Y-60768147D01*
X26243216Y-60669544D01*
X26407188Y-60601624D01*
X26556488Y-60571927D01*
X26581258Y-60567000D01*
X26758742Y-60567000D01*
X26783512Y-60571927D01*
G37*
M02*
